<svg xmlns="http://www.w3.org/2000/svg" xmlns:xlink="http://www.w3.org/1999/xlink" width="33.847" height="31.684" viewBox="0 0 33.847 31.684"><defs><style>.a{fill:none;}.b{clip-path:url(#a);}.c{clip-path:url(#b);}.d{fill:#fff;}</style><clipPath id="a"><path class="a" d="M306.434-10.912a16.525,16.525,0,0,0-6.159-5.91A17.092,17.092,0,0,0,291.78-19a17.094,17.094,0,0,0-8.495,2.178,16.523,16.523,0,0,0-6.159,5.91,15.4,15.4,0,0,0-2.27,8.151,15.357,15.357,0,0,0,3.228,9.547,16.55,16.55,0,0,0,8.34,5.867,1.019,1.019,0,0,0,.881-.148.812.812,0,0,0,.286-.634q0-.063-.011-1.142t-.011-1.882l-.507.084a6.733,6.733,0,0,1-1.223.074,9.7,9.7,0,0,1-1.531-.148,3.493,3.493,0,0,1-1.476-.634,2.691,2.691,0,0,1-.969-1.3l-.22-.487a5.254,5.254,0,0,0-.694-1.078,2.632,2.632,0,0,0-.958-.8l-.154-.106a1.6,1.6,0,0,1-.287-.254,1.156,1.156,0,0,1-.2-.3q-.066-.148.11-.244a1.484,1.484,0,0,1,.639-.094l.44.063a3.278,3.278,0,0,1,1.091.507,3.474,3.474,0,0,1,1.069,1.1,3.783,3.783,0,0,0,1.223,1.322,2.669,2.669,0,0,0,1.443.454,6.521,6.521,0,0,0,1.256-.105,4.513,4.513,0,0,0,.992-.317,3.374,3.374,0,0,1,1.08-2.178,15.67,15.67,0,0,1-2.259-.381,9.207,9.207,0,0,1-2.071-.825,5.882,5.882,0,0,1-1.774-1.416,6.706,6.706,0,0,1-1.157-2.22,10.158,10.158,0,0,1-.452-3.172,6.031,6.031,0,0,1,1.741-4.356,5.473,5.473,0,0,1,.154-4.313,3.205,3.205,0,0,1,1.9.285,13.531,13.531,0,0,1,1.84.814q.584.338.936.571a16.561,16.561,0,0,1,8.462,0l.837-.507a12.085,12.085,0,0,1,2.027-.931,3,3,0,0,1,1.785-.232,5.42,5.42,0,0,1,.176,4.313,6.032,6.032,0,0,1,1.741,4.356,10.272,10.272,0,0,1-.452,3.182,6.449,6.449,0,0,1-1.167,2.22A6.115,6.115,0,0,1,299.174,3.2a9.226,9.226,0,0,1-2.071.825,15.65,15.65,0,0,1-2.259.381,3.684,3.684,0,0,1,1.145,3V11.87a.826.826,0,0,0,.276.634.989.989,0,0,0,.87.148,16.548,16.548,0,0,0,8.341-5.867A15.36,15.36,0,0,0,308.7-2.762,15.407,15.407,0,0,0,306.434-10.912Z" transform="translate(-274.857 19)"/></clipPath><clipPath id="b"><path class="a" d="M-174,788.962H3027.71V-1012H-174Z" transform="translate(174 1012)"/></clipPath></defs><g class="b"><g class="c" transform="translate(-748.495 -1655.885)"><path class="d" d="M269.857-24h50.522V24.359H269.857Z" transform="translate(470.3 1671.547)"/></g></g></svg>