<svg width="32" height="32" viewBox="0 0 32 32" fill="none" xmlns="http://www.w3.org/2000/svg">
<rect width="32" height="32" rx="16" fill="white"/>
<path d="M14.8076 11.895L12.778 17.0082L10.773 11.895H7.3335L11.1225 20.7925L9.74156 24H13.1131L18.158 11.895H14.8076ZM18.5812 16.7446C18.1689 16.7446 17.7659 16.8666 17.4231 17.0951C17.0803 17.3235 16.8132 17.6483 16.6554 18.0282C16.4976 18.4082 16.4564 18.8262 16.5368 19.2296C16.6172 19.6329 16.8157 20.0034 17.1073 20.2942C17.3988 20.585 17.7702 20.783 18.1745 20.8633C18.5788 20.9435 18.9979 20.9023 19.3788 20.7449C19.7597 20.5876 20.0852 20.3211 20.3143 19.9791C20.5433 19.6372 20.6656 19.2352 20.6656 18.8239C20.6656 18.5509 20.6116 18.2805 20.5069 18.0282C20.4021 17.7759 20.2486 17.5467 20.0551 17.3537C19.8615 17.1606 19.6317 17.0074 19.3788 16.9029C19.1259 16.7984 18.8549 16.7446 18.5812 16.7446ZM20.9284 8L17.5987 15.9811H21.3505L24.6668 8H20.9284Z" fill="#36337F"/>
</svg>
