<svg width="316" height="195" viewBox="0 0 316 195" fill="none" xmlns="http://www.w3.org/2000/svg">
<g opacity="0.3">
<ellipse cx="1.46342" cy="1.30872" rx="1.46342" ry="1.30872" fill="#C4C4C4"/>
<ellipse cx="46.0976" cy="1.30872" rx="1.46342" ry="1.30872" fill="#C4C4C4"/>
<ellipse cx="90.7319" cy="1.30872" rx="1.46342" ry="1.30872" fill="#C4C4C4"/>
<ellipse cx="135.366" cy="1.30872" rx="1.46342" ry="1.30872" fill="#C4C4C4"/>
<ellipse cx="180" cy="1.30872" rx="1.46342" ry="1.30872" fill="#C4C4C4"/>
<ellipse cx="224.634" cy="1.30872" rx="1.46342" ry="1.30872" fill="#C4C4C4"/>
<ellipse cx="269.269" cy="1.30872" rx="1.46342" ry="1.30872" fill="#C4C4C4"/>
<ellipse cx="313.903" cy="1.30872" rx="1.46342" ry="1.30872" fill="#C4C4C4"/>
<ellipse cx="1.46342" cy="33.3732" rx="1.46342" ry="1.30872" fill="#C4C4C4"/>
<ellipse cx="46.0976" cy="33.3732" rx="1.46342" ry="1.30872" fill="#C4C4C4"/>
<ellipse cx="90.7319" cy="33.3732" rx="1.46342" ry="1.30872" fill="#C4C4C4"/>
<ellipse cx="135.366" cy="33.3732" rx="1.46342" ry="1.30872" fill="#C4C4C4"/>
<ellipse cx="180" cy="33.3732" rx="1.46342" ry="1.30872" fill="#C4C4C4"/>
<ellipse cx="224.634" cy="33.3732" rx="1.46342" ry="1.30872" fill="#C4C4C4"/>
<ellipse cx="269.269" cy="33.3732" rx="1.46342" ry="1.30872" fill="#C4C4C4"/>
<ellipse cx="313.903" cy="33.3732" rx="1.46342" ry="1.30872" fill="#C4C4C4"/>
<ellipse cx="1.46342" cy="65.4357" rx="1.46342" ry="1.30872" fill="#C4C4C4"/>
<ellipse cx="46.0976" cy="65.4357" rx="1.46342" ry="1.30872" fill="#C4C4C4"/>
<ellipse cx="90.7319" cy="65.4357" rx="1.46342" ry="1.30872" fill="#C4C4C4"/>
<ellipse cx="135.366" cy="65.4357" rx="1.46342" ry="1.30872" fill="#C4C4C4"/>
<ellipse cx="180" cy="65.4357" rx="1.46342" ry="1.30872" fill="#C4C4C4"/>
<ellipse cx="224.634" cy="65.4357" rx="1.46342" ry="1.30872" fill="#C4C4C4"/>
<ellipse cx="269.269" cy="65.4357" rx="1.46342" ry="1.30872" fill="#C4C4C4"/>
<ellipse cx="313.903" cy="65.4357" rx="1.46342" ry="1.30872" fill="#C4C4C4"/>
<ellipse cx="1.46342" cy="97.5001" rx="1.46342" ry="1.30872" fill="#C4C4C4"/>
<ellipse cx="46.0976" cy="97.5001" rx="1.46342" ry="1.30872" fill="#C4C4C4"/>
<ellipse cx="90.7319" cy="97.5001" rx="1.46342" ry="1.30872" fill="#C4C4C4"/>
<ellipse cx="135.366" cy="97.5001" rx="1.46342" ry="1.30872" fill="#C4C4C4"/>
<ellipse cx="180" cy="97.5001" rx="1.46342" ry="1.30872" fill="#C4C4C4"/>
<ellipse cx="224.634" cy="97.5001" rx="1.46342" ry="1.30872" fill="#C4C4C4"/>
<ellipse cx="269.269" cy="97.5001" rx="1.46342" ry="1.30872" fill="#C4C4C4"/>
<ellipse cx="313.903" cy="97.5001" rx="1.46342" ry="1.30872" fill="#C4C4C4"/>
<ellipse cx="1.46342" cy="129.565" rx="1.46342" ry="1.30872" fill="#C4C4C4"/>
<ellipse cx="46.0976" cy="129.565" rx="1.46342" ry="1.30872" fill="#C4C4C4"/>
<ellipse cx="90.7319" cy="129.565" rx="1.46342" ry="1.30872" fill="#C4C4C4"/>
<ellipse cx="135.366" cy="129.565" rx="1.46342" ry="1.30872" fill="#C4C4C4"/>
<ellipse cx="180" cy="129.565" rx="1.46342" ry="1.30872" fill="#C4C4C4"/>
<ellipse cx="224.634" cy="129.565" rx="1.46342" ry="1.30872" fill="#C4C4C4"/>
<ellipse cx="269.269" cy="129.565" rx="1.46342" ry="1.30872" fill="#C4C4C4"/>
<ellipse cx="313.903" cy="129.565" rx="1.46342" ry="1.30872" fill="#C4C4C4"/>
<ellipse cx="1.46342" cy="161.627" rx="1.46342" ry="1.30872" fill="#C4C4C4"/>
<ellipse cx="46.0976" cy="161.627" rx="1.46342" ry="1.30872" fill="#C4C4C4"/>
<ellipse cx="90.7319" cy="161.627" rx="1.46342" ry="1.30872" fill="#C4C4C4"/>
<ellipse cx="135.366" cy="161.627" rx="1.46342" ry="1.30872" fill="#C4C4C4"/>
<ellipse cx="180" cy="161.627" rx="1.46342" ry="1.30872" fill="#C4C4C4"/>
<ellipse cx="224.634" cy="161.627" rx="1.46342" ry="1.30872" fill="#C4C4C4"/>
<ellipse cx="269.269" cy="161.627" rx="1.46342" ry="1.30872" fill="#C4C4C4"/>
<ellipse cx="313.903" cy="161.627" rx="1.46342" ry="1.30872" fill="#C4C4C4"/>
<ellipse cx="1.46342" cy="193.692" rx="1.46342" ry="1.30872" fill="#C4C4C4"/>
<ellipse cx="46.0976" cy="193.692" rx="1.46342" ry="1.30872" fill="#C4C4C4"/>
<ellipse cx="90.7319" cy="193.692" rx="1.46342" ry="1.30872" fill="#C4C4C4"/>
<ellipse cx="135.366" cy="193.692" rx="1.46342" ry="1.30872" fill="#C4C4C4"/>
<ellipse cx="180" cy="193.692" rx="1.46342" ry="1.30872" fill="#C4C4C4"/>
<ellipse cx="224.634" cy="193.692" rx="1.46342" ry="1.30872" fill="#C4C4C4"/>
<ellipse cx="269.269" cy="193.692" rx="1.46342" ry="1.30872" fill="#C4C4C4"/>
<ellipse cx="313.903" cy="193.692" rx="1.46342" ry="1.30872" fill="#C4C4C4"/>
</g>
</svg>
