<svg width="71" height="71" viewBox="0 0 71 71" fill="none" xmlns="http://www.w3.org/2000/svg">
<path d="M35.5 71C55.1061 71 71 55.1061 71 35.5C71 15.8939 55.1061 0 35.5 0C15.8939 0 0 15.8939 0 35.5C0 55.1061 15.8939 71 35.5 71Z" fill="url(#paint0_linear_227_868)"/>
<path d="M51.0356 49.6451L39.0315 20.6229C38.3544 19.1224 37.348 18.3904 36.0213 18.3904H34.96C33.6333 18.3904 32.6269 19.1224 31.9498 20.6229L26.7255 33.2675H22.7729C21.5926 33.2767 20.6319 34.2282 20.6227 35.4176V35.4451C20.6319 36.6254 21.5926 37.5861 22.7729 37.5952H24.8956L19.9091 49.6451C19.8176 49.9104 19.7627 50.1849 19.7627 50.4685C19.7627 51.1456 19.9731 51.6763 20.3483 52.088C20.7234 52.4997 21.2632 52.701 21.9403 52.701C22.3886 52.6919 22.8186 52.5546 23.1755 52.2893C23.5597 52.0239 23.8251 51.6397 24.0355 51.2005L29.5252 37.5861H33.3314C34.5117 37.5769 35.4724 36.6254 35.4815 35.4359V35.381C35.4724 34.2008 34.5117 33.2401 33.3314 33.2309H31.3002L35.4907 22.7913L46.9092 51.1913C47.1197 51.6305 47.385 52.0148 47.7693 52.2801C48.1261 52.5455 48.5653 52.6827 49.0044 52.6919C49.6815 52.6919 50.2122 52.4906 50.5965 52.0788C50.9807 51.6671 51.182 51.1364 51.182 50.4594C51.1912 50.1849 51.1454 49.9013 51.0356 49.6451Z" fill="white"/>
<defs>
<linearGradient id="paint0_linear_227_868" x1="61.9683" y1="13.2289" x2="9.14429" y2="57.6749" gradientUnits="userSpaceOnUse">
<stop stop-color="#B6509E"/>
<stop offset="1" stop-color="#2EBAC6"/>
</linearGradient>
</defs>
</svg>
