<svg width="47" height="46" viewBox="0 0 47 46" fill="none" xmlns="http://www.w3.org/2000/svg">
<path fill-rule="evenodd" clip-rule="evenodd" d="M0.789551 22.9115C0.789551 10.2578 11.087 0 23.7896 0C36.4921 0 46.7896 10.2578 46.7896 22.9115C46.7896 35.5652 36.4921 45.823 23.7896 45.823C11.087 45.823 0.789551 35.5652 0.789551 22.9115ZM27.534 13.5192C28.4122 12.3899 29.0779 10.7938 28.8371 9.16461C27.4018 9.26397 25.7242 10.1787 24.7453 11.3711C23.8529 12.4514 23.1195 14.0586 23.406 15.6184C24.975 15.6673 26.5945 14.7305 27.534 13.5192ZM34.5105 18.164C29.9906 20.6464 30.7224 27.1144 35.2896 28.8446C34.6616 30.2388 34.3594 30.8618 33.5505 32.0967C32.4221 33.8206 30.831 35.9671 28.8575 35.9829C28.0462 35.9917 27.5138 35.747 26.9397 35.4832C26.2743 35.1775 25.5528 34.846 24.2762 34.8536C23.007 34.8604 22.274 35.1879 21.5996 35.4892C21.0104 35.7524 20.4659 35.9957 19.6477 35.9876C17.6757 35.9703 16.168 34.0335 15.0396 32.3096C11.8826 27.493 11.5505 21.8388 13.4973 18.8311C14.8822 16.6956 17.0666 15.4465 19.1189 15.4465C20.2122 15.4465 21.0934 15.7612 21.933 16.0611C22.6972 16.334 23.4269 16.5947 24.251 16.5947C25.0136 16.5947 25.6406 16.3568 26.3245 16.0973C27.1453 15.7859 28.0481 15.4433 29.3658 15.4433C31.1945 15.4433 33.1319 16.4417 34.5105 18.164Z" fill="white"/>
</svg>
