<svg width="46" height="46" viewBox="0 0 46 46" fill="none" xmlns="http://www.w3.org/2000/svg">
<path fill-rule="evenodd" clip-rule="evenodd" d="M22.9422 0.0820312C10.2716 0.0820312 0 10.3536 0 23.0242C0 35.6949 10.2716 45.9664 22.9422 45.9664C35.6128 45.9664 45.8844 35.6949 45.8844 23.0242C45.8844 10.3536 35.6128 0.0820312 22.9422 0.0820312ZM14.2482 10.0237H32.4009C33.9317 10.0237 35.178 11.2549 35.178 12.7805V36.7896L32.2655 34.2468L30.6263 32.7479L28.8923 31.1553L29.6103 33.6312H14.2482C12.7174 33.6312 11.4711 32.3999 11.4711 30.8743V12.7805C11.4711 11.2549 12.7174 10.0237 14.2482 10.0237Z" fill="white"/>
<path fill-rule="evenodd" clip-rule="evenodd" d="M27.1715 27.5016C27.1715 27.5016 26.6838 26.9261 26.2774 26.4175C28.052 25.9224 28.7294 24.825 28.7294 24.825C28.174 25.1863 27.6456 25.4406 27.1715 25.6146C26.4942 25.8956 25.8439 26.083 25.2072 26.19C23.9067 26.4309 22.7146 26.364 21.6986 26.1766C20.9264 26.0294 20.2626 25.8153 19.7072 25.6012C19.3956 25.4807 19.057 25.3335 18.7183 25.1462C18.698 25.1328 18.6776 25.1227 18.6573 25.1127L18.6573 25.1127C18.637 25.1027 18.6167 25.0926 18.5964 25.0792C18.5693 25.0659 18.5557 25.0525 18.5422 25.0391C18.2983 24.9053 18.1629 24.8116 18.1629 24.8116C18.1629 24.8116 18.8131 25.8822 20.5336 26.3908C20.1272 26.8993 19.6259 27.5016 19.6259 27.5016C16.6321 27.4079 15.4941 25.4673 15.4941 25.4673C15.4941 21.158 17.4449 17.6651 17.4449 17.6651C19.3956 16.2197 21.2515 16.2599 21.2515 16.2599L21.387 16.4205C18.9486 17.1164 17.8242 18.1736 17.8242 18.1736C17.8242 18.1736 18.1222 18.013 18.6235 17.7855C20.073 17.1565 21.2244 16.9826 21.6986 16.9424L21.729 16.9373C21.7973 16.9258 21.8579 16.9156 21.9289 16.9156C22.7552 16.8086 23.69 16.7818 24.6653 16.8889C25.9523 17.0361 27.3341 17.4108 28.7429 18.1736C28.7429 18.1736 27.6727 17.1699 25.3698 16.474L25.5594 16.2599C25.5594 16.2599 27.4153 16.2197 29.3661 17.6651C29.3661 17.6651 31.3168 21.158 31.3168 25.4673C31.3168 25.4673 30.1654 27.4079 27.1715 27.5016ZM21.2538 21.4945C20.4877 21.4945 19.8829 22.1835 19.8829 23.024C19.8829 23.8645 20.5011 24.5535 21.2538 24.5535C22.0198 24.5535 22.6246 23.8645 22.6246 23.024C22.6381 22.1835 22.0198 21.4945 21.2538 21.4945ZM24.7885 23.024C24.7885 22.1835 25.3933 21.4945 26.1594 21.4945C26.9255 21.4945 27.5303 22.1835 27.5303 23.024C27.5303 23.8645 26.9255 24.5535 26.1594 24.5535C25.4067 24.5535 24.7885 23.8645 24.7885 23.024Z" fill="white"/>
</svg>
