<svg width="45" height="46" viewBox="0 0 45 46" fill="none" xmlns="http://www.w3.org/2000/svg">
<path d="M22.6458 0.171875C10.302 0.171875 0.29248 10.5851 0.29248 23.4314C0.29248 33.7082 6.69738 42.427 15.579 45.5026C16.6962 45.718 17.1063 44.9981 17.1063 44.3837C17.1063 43.8291 17.0856 41.9968 17.076 40.0532C10.8572 41.4602 9.54503 37.3088 9.54503 37.3088C8.52819 34.6203 7.0631 33.9054 7.0631 33.9054C5.03498 32.4618 7.21597 32.4915 7.21597 32.4915C9.46063 32.6552 10.6426 34.8884 10.6426 34.8884C12.6362 38.4443 15.8718 37.4163 17.1474 36.822C17.348 35.319 17.9273 34.2921 18.5666 33.7117C13.6016 33.1235 8.38235 31.1291 8.38235 22.2165C8.38235 19.6771 9.25556 17.6022 10.6855 15.9733C10.4534 15.387 9.68828 13.0217 10.902 9.81779C10.902 9.81779 12.7791 9.19266 17.0508 12.202C18.8338 11.6867 20.7461 11.4282 22.6458 11.4193C24.5454 11.4282 26.4592 11.6867 28.2456 12.202C32.512 9.19266 34.3865 9.81779 34.3865 9.81779C35.6033 13.0217 34.8378 15.387 34.6057 15.9733C36.0389 17.6022 36.9062 19.6771 36.9062 22.2165C36.9062 31.1503 31.677 33.1174 26.6994 33.6932C27.5012 34.415 28.2156 35.8305 28.2156 38.0006C28.2156 41.1124 28.1897 43.6172 28.1897 44.3837C28.1897 45.0027 28.592 45.728 29.7251 45.4996C38.6019 42.4205 44.9987 33.7048 44.9987 23.4314C44.9987 10.5851 34.9906 0.171875 22.6458 0.171875Z" fill="white"/>
<path d="M8.75881 33.5682C8.70958 33.6841 8.53486 33.7184 8.37569 33.639C8.21356 33.5632 8.1225 33.4056 8.17506 33.2897C8.22318 33.1707 8.39827 33.1379 8.56003 33.2169C8.72253 33.2932 8.81507 33.4522 8.75881 33.5682Z" fill="white"/>
<path d="M9.66436 34.6176C9.55775 34.7205 9.34935 34.6727 9.20795 34.5101C9.06174 34.348 9.03435 34.1311 9.14243 34.0268C9.25237 33.9239 9.45448 33.9721 9.60106 34.1342C9.74728 34.2983 9.77578 34.5136 9.66436 34.6176Z" fill="white"/>
<path d="M10.5455 35.9577C10.4086 36.0567 10.1846 35.9639 10.0462 35.7571C9.90924 35.5502 9.90924 35.3022 10.0492 35.2028C10.188 35.1034 10.4086 35.1928 10.5489 35.3981C10.6855 35.608 10.6855 35.8564 10.5455 35.9577Z" fill="white"/>
<path d="M11.7533 37.2521C11.6307 37.3927 11.3698 37.3549 11.1788 37.1631C10.9833 36.9755 10.9289 36.7094 11.0518 36.5688C11.1758 36.4278 11.4383 36.4675 11.6307 36.6577C11.8247 36.8449 11.8839 37.113 11.7533 37.2521Z" fill="white"/>
<path d="M13.4189 38.0041C13.3649 38.1863 13.1135 38.2691 12.8603 38.1917C12.6075 38.112 12.4421 37.8986 12.4931 37.7145C12.5457 37.5311 12.7982 37.4448 13.0532 37.5277C13.3057 37.607 13.4715 37.8189 13.4189 38.0041Z" fill="white"/>
<path d="M15.2482 38.1422C15.2545 38.334 15.0398 38.4931 14.774 38.4962C14.5067 38.5027 14.2906 38.3475 14.2876 38.1588C14.2876 37.965 14.4975 37.8075 14.7647 37.8029C15.0305 37.7975 15.2482 37.9515 15.2482 38.1422Z" fill="white"/>
<path d="M16.9501 37.8421C16.982 38.0293 16.7972 38.2215 16.5333 38.2724C16.2738 38.3221 16.0336 38.2065 16.0007 38.0208C15.9685 37.829 16.1565 37.6368 16.4156 37.5871C16.6799 37.5394 16.9164 37.6518 16.9501 37.8421Z" fill="white"/>
</svg>
