<svg width="45" height="46" viewBox="0 0 45 46" fill="none" xmlns="http://www.w3.org/2000/svg">
<path fill-rule="evenodd" clip-rule="evenodd" d="M22.4475 45.823C10.0792 45.823 0.0527344 35.5652 0.0527344 22.9115C0.0527344 10.2578 10.0792 0 22.4475 0C34.8158 0 44.8422 10.2578 44.8422 22.9115C44.8422 35.5652 34.8158 45.823 22.4475 45.823ZM27.234 23.1669L13.756 9.19707C13.1993 9.32575 12.7431 9.82503 12.7431 10.8286V35.5539C12.7431 36.499 13.102 37.1637 13.7657 37.23L27.234 23.1669ZM31.4448 18.7699L27.8431 22.5022L13.7561 9.19686C14.1037 9.11665 14.4963 9.18773 14.8565 9.3914L31.4448 18.7699ZM28.4626 23.1438L32.5268 26.9254C32.5268 26.9254 37.1301 24.3144 37.3271 24.2025C37.9916 23.8255 38.6878 22.8637 37.3271 22.0949C36.9815 21.8992 32.548 19.3933 32.548 19.3933L28.4626 23.1438ZM14.8566 36.9479C14.4358 37.1866 14.07 37.27 13.7659 37.23L27.8433 23.7255L31.4489 27.5364L14.8566 36.9479Z" fill="white"/>
</svg>
