<svg width="38" height="38" viewBox="0 0 38 38" fill="none" xmlns="http://www.w3.org/2000/svg">
<path d="M19 0C15.2422 0 11.5687 1.11433 8.44417 3.20208C5.31964 5.28982 2.88436 8.25722 1.4463 11.729C0.00823236 15.2008 -0.368031 19.0211 0.365088 22.7067C1.09821 26.3923 2.90778 29.7778 5.56498 32.435C8.22218 35.0922 11.6077 36.9018 15.2933 37.6349C18.9789 38.368 22.7992 37.9918 26.271 36.5537C29.7428 35.1156 32.7102 32.6804 34.7979 29.5558C36.8857 26.4313 38 22.7578 38 19C38 13.9609 35.9982 9.12816 32.435 5.56497C28.8718 2.00178 24.0391 0 19 0ZM19 8.14286C19.4026 8.14286 19.7962 8.26225 20.131 8.48593C20.4658 8.70962 20.7267 9.02756 20.8808 9.39954C21.0348 9.77151 21.0752 10.1808 20.9966 10.5757C20.9181 10.9706 20.7242 11.3333 20.4395 11.618C20.1548 11.9027 19.792 12.0966 19.3972 12.1752C19.0023 12.2537 18.5929 12.2134 18.221 12.0593C17.849 11.9052 17.5311 11.6443 17.3074 11.3096C17.0837 10.9748 16.9643 10.5812 16.9643 10.1786C16.9643 9.63866 17.1788 9.12087 17.5605 8.7391C17.9423 8.35733 18.4601 8.14286 19 8.14286ZM24.4286 30.0268H13.5714V26.9732H17.4732V19.1696H14.9286V16.1161H20.5268V26.9732H24.4286V30.0268Z" fill="white"/>
</svg>
