<svg width="46" height="47" viewBox="0 0 46 47" fill="none" xmlns="http://www.w3.org/2000/svg">
<path fill-rule="evenodd" clip-rule="evenodd" d="M0 23.7664C0 36.4371 10.2716 46.7086 22.9422 46.7086C35.6128 46.7086 45.8844 36.4371 45.8844 23.7664C45.8844 11.0958 35.6128 0.824219 22.9422 0.824219C10.2716 0.824219 0 11.0958 0 23.7664ZM18.7361 34.2816L19.1265 28.4335L19.1262 28.4333L29.7646 18.8329C30.2315 18.4185 29.6626 18.2165 29.0428 18.5923L15.9136 26.8754L10.2424 25.1054C9.01772 24.7304 9.00893 23.8888 10.5174 23.2837L32.6165 14.7624C33.6258 14.3042 34.6 15.0049 34.2147 16.5497L30.4512 34.2846C30.1884 35.5448 29.4269 35.8462 28.3719 35.2641L22.6389 31.0285L19.8832 33.708C19.8746 33.7165 19.8659 33.7249 19.8573 33.7333C19.5491 34.0333 19.2941 34.2816 18.7361 34.2816Z" fill="white"/>
</svg>
