<svg width="38" height="38" viewBox="0 0 38 38" fill="none" xmlns="http://www.w3.org/2000/svg">
<path fill-rule="evenodd" clip-rule="evenodd" d="M19 0C8.50659 0 0 8.50659 0 19C0 29.4934 8.50659 38 19 38C29.4934 38 38 29.4934 38 19C38 8.50659 29.4934 0 19 0ZM18.4708 16.1009L18.431 15.4434C18.3113 13.7395 19.3613 12.1831 21.0225 11.5793C21.6339 11.3646 22.6705 11.3378 23.3483 11.5256C23.6141 11.6061 24.1191 11.8745 24.4779 12.116L25.1292 12.5587L25.8468 12.3306C26.2455 12.2099 26.7771 12.0086 27.0164 11.8745C27.2423 11.7537 27.4416 11.6866 27.4416 11.7269C27.4416 11.955 26.9499 12.7332 26.5379 13.1625C25.9797 13.7663 26.1392 13.82 27.2689 13.4174C27.9467 13.1893 27.96 13.1893 27.8271 13.4443C27.7473 13.5784 27.3353 14.048 26.8967 14.4774C26.1525 15.2153 26.1126 15.2958 26.1126 15.913C26.1126 16.8657 25.6608 18.8514 25.2089 19.9382C24.3716 21.9776 22.5775 24.0841 20.7833 25.1441C18.2582 26.6334 14.8958 27.0091 12.065 26.1369C11.1214 25.8418 9.5 25.0904 9.5 24.9562C9.5 24.916 9.99173 24.8623 10.5898 24.8489C11.8391 24.8221 13.0883 24.4732 14.1515 23.856L14.8692 23.4267L14.0452 23.1449C12.8757 22.7424 11.8258 21.8166 11.56 20.9445C11.4802 20.6627 11.5068 20.6493 12.2511 20.6493L13.0219 20.6359L12.3707 20.3273C11.5998 19.9382 10.8955 19.2808 10.5499 18.6099C10.2974 18.1269 9.97844 16.9059 10.0715 16.812C10.0981 16.7717 10.3771 16.8522 10.6961 16.9596C11.6131 17.295 11.7327 17.2145 11.2011 16.651C10.2044 15.6313 9.8987 14.1151 10.3771 12.6795L10.6031 12.0355L11.4802 12.9076C13.2744 14.6652 15.3875 15.7118 17.8063 16.0204L18.4708 16.1009Z" fill="white"/>
</svg>
