<svg width="45" height="45" viewBox="0 0 45 45" fill="none" xmlns="http://www.w3.org/2000/svg">
<path fill-rule="evenodd" clip-rule="evenodd" d="M22.5 45C34.9264 45 45 34.9264 45 22.5C45 10.0736 34.9264 0 22.5 0C10.0736 0 0 10.0736 0 22.5C0 34.9264 10.0736 45 22.5 45ZM9 22.4995C9 15.0556 15.0565 9 22.4995 9C29.9435 9 36 15.0556 36 22.4995C36 29.9444 29.9435 35.999 22.4995 35.999C15.0565 35.999 9 29.9435 9 22.4995Z" fill="white"/>
<path fill-rule="evenodd" clip-rule="evenodd" d="M18.0896 10.9941C16.6203 11.5602 15.2882 12.3968 14.1514 13.4459L14.1498 13.4499C14.1294 13.5028 14.1101 13.5529 14.097 13.6012C14.0504 13.788 14.4239 13.6479 14.4239 13.6479L14.8412 13.8337L15.3529 13.6479C15.3529 13.6479 15.493 13.3687 15.817 13.1372C16.0505 12.9699 16.0932 12.898 16.1499 12.8027C16.1723 12.765 16.1968 12.7236 16.2363 12.6712C16.3051 12.5797 16.3058 12.579 16.3621 12.5228C16.4195 12.4654 16.5348 12.3501 16.8394 12.0214C17.4445 11.3696 17.7695 11.3705 17.7695 11.3705C17.7695 11.3705 17.9448 11.18 18.0896 10.9941ZM19.7219 14.5303L19.5371 14.2521L19.7219 13.8337L20.1698 14.0129V13.1829L20.5976 12.9514L20.9531 13.4621L21.5 14.0672L21.137 14.3454L20.1688 14.5312V14.0386L19.7219 14.5303ZM26.2292 19.0384C26.2292 19.0384 25.8738 18.8135 25.7651 18.8993C25.3001 19.2719 24.23 19.0384 24.0004 18.9441C23.7669 18.8507 23.6278 18.7125 23.6278 18.5724C23.6278 18.4324 23.4182 17.7587 23.4182 17.7587C23.4182 17.7587 22.9646 17.8397 22.8255 17.8397C22.6863 17.8397 22.3204 17.6939 22.3204 17.6939C22.3204 17.6939 21.8573 17.7377 21.6715 17.8311C21.4876 17.9245 21.116 18.0626 20.9769 18.1093C20.8378 18.156 20.4671 18.2018 20.4671 18.2018C20.0488 18.0159 19.7238 18.48 19.6295 18.6658C19.5931 18.7402 19.5416 18.7996 19.4927 18.8559C19.4189 18.941 19.3513 19.019 19.3513 19.1308C19.3513 19.3176 19.0254 19.5958 18.8862 19.6883C18.8593 19.7065 18.8182 19.7317 18.7684 19.7622C18.5627 19.8884 18.2093 20.1052 18.0973 20.2924C17.9572 20.5249 17.8181 20.8041 17.7714 21.0366C17.7256 21.2691 17.7256 21.4549 17.7256 21.7798C17.7256 21.8959 17.7197 21.9944 17.7141 22.0858C17.7042 22.2502 17.6956 22.3916 17.7256 22.5717C17.7704 22.849 18.2364 23.5465 18.4212 23.7799C18.608 24.0125 18.8405 24.2907 19.074 24.4298C19.3046 24.5699 19.6314 24.8481 19.6314 24.8481C19.6314 24.8481 19.8163 25.1264 20.1869 24.9873C20.3425 24.9289 20.4975 24.8949 20.6491 24.8616L20.6491 24.8616C20.8616 24.815 21.0672 24.7698 21.258 24.6614C21.5839 24.4765 22.0946 24.2431 22.0946 24.5222C22.0946 24.8014 22.2795 24.9882 22.5587 24.8948C22.603 24.88 22.6521 24.8617 22.703 24.8426C22.9724 24.7419 23.2945 24.6215 23.2552 24.8948C23.2262 25.1019 23.2717 25.346 23.3088 25.5446L23.3089 25.5446C23.3301 25.6585 23.3486 25.7574 23.3486 25.8258C23.3486 25.863 23.3467 25.9003 23.3448 25.9374L23.3448 25.9374C23.3373 26.0834 23.3301 26.2246 23.441 26.3356C23.4845 26.379 23.5507 26.4316 23.6214 26.4877C23.777 26.6113 23.9537 26.7516 23.9537 26.8473C23.9537 26.9855 23.9985 27.4505 24.0919 27.6372C24.1852 27.824 24.2777 28.1022 24.1843 28.288C24.0919 28.4739 23.9041 28.9856 23.9041 28.9856C23.9041 28.9856 23.8069 29.4029 23.8536 29.542C23.9003 29.6831 23.9861 29.8679 24.2186 30.1004C24.3527 30.234 24.3892 30.3837 24.4229 30.5222C24.4476 30.6238 24.4709 30.7193 24.5302 30.7979C24.6703 30.9838 24.8113 31.5412 24.8113 31.5412L24.8322 32.0062V32.4236C24.8322 32.4236 25.8576 32.2845 26.0434 32.2378C26.2292 32.1911 26.9562 31.8652 27.1411 31.6803C27.2244 31.5966 27.263 31.5223 27.3011 31.4491C27.348 31.359 27.394 31.2706 27.5213 31.1686C27.7547 30.9838 28.1778 30.6569 28.1778 30.6569L28.1321 29.9604L28.6924 29.2181L29.1117 28.7988C29.1117 28.7988 29.4823 28.288 29.4366 28.1022C29.3909 27.9164 29.2975 26.9864 29.2975 26.9864C29.2975 26.9864 29.4842 26.5681 29.6234 26.3823C29.6732 26.3149 29.7053 26.2415 29.7391 26.1644C29.7989 26.0278 29.8638 25.8794 30.0417 25.7315C30.2775 25.5358 30.4461 25.3062 30.5772 25.1276L30.5772 25.1276L30.5777 25.1269L30.5779 25.1267C30.6017 25.0942 30.6243 25.0635 30.6458 25.0349L30.6753 24.9956L30.6754 24.9954L30.6756 24.9951L30.6759 24.9947C30.8219 24.7997 31.0704 24.468 31.1565 24.3383C31.249 24.1983 31.3433 23.7809 31.3433 23.7809L30.5048 23.92C30.3425 23.6489 30.006 23.1886 29.726 22.8056L29.726 22.8055C29.5258 22.5317 29.3545 22.2974 29.2965 22.2001C29.1574 21.9676 29.0183 21.5026 28.9716 21.3167C28.9422 21.2003 28.839 20.9538 28.7548 20.7525L28.7548 20.7524L28.7547 20.7524L28.7547 20.7523L28.7547 20.7523C28.7053 20.6341 28.6624 20.5316 28.6447 20.4801C28.6114 20.3786 28.4298 20.1284 28.2978 19.9465L28.2978 19.9465C28.2489 19.8791 28.2069 19.8211 28.1816 19.7835C28.1271 19.7018 27.9938 19.636 27.8551 19.5675L27.8551 19.5675C27.7561 19.5186 27.6543 19.4683 27.5766 19.41C27.3907 19.2709 26.2292 19.0384 26.2292 19.0384ZM10.4847 25.2407C10.5447 25.256 10.6304 25.2998 10.7515 25.4075C10.9268 25.5599 11.0307 25.6381 11.2632 25.7324C11.3835 25.7814 11.4666 25.8421 11.5578 25.9087C11.642 25.9702 11.7332 26.0368 11.8673 26.104C11.9142 26.1275 11.9505 26.1445 11.9804 26.1584L11.9804 26.1584L11.9805 26.1585C12.0214 26.1775 12.0501 26.1909 12.0767 26.2076C12.1389 26.2467 12.1898 26.304 12.3596 26.4956L12.4247 26.569C12.7332 26.9146 12.7543 26.9741 12.8049 27.1168C12.8154 27.1464 12.8271 27.1797 12.843 27.2199C12.9355 27.4533 13.0756 27.6839 13.1689 27.825C13.2309 27.9173 13.3743 27.989 13.5044 28.0541C13.5703 28.0872 13.6329 28.1185 13.6797 28.1499C13.8188 28.2433 14.0513 28.3357 14.1904 28.3357C14.2571 28.3357 14.3868 28.4304 14.5294 28.5347C14.6866 28.6495 14.8595 28.7758 14.9813 28.7998C15.2138 28.8474 15.2138 29.3124 15.2138 29.3124L14.9813 29.9623L14.7946 30.6588L14.9813 31.2163C14.9813 31.2163 14.7012 31.4497 14.5173 31.4497C14.4453 31.4497 14.3932 31.4689 14.3432 31.4873C14.2741 31.5127 14.2088 31.5368 14.0999 31.5069C12.3275 29.8517 11.0421 27.6868 10.4847 25.2407ZM31.1099 28.0098C31.1099 28.1489 31.0632 28.5215 31.0165 28.7073C30.997 28.7819 30.9705 28.8792 30.9429 28.9807L30.9428 28.981L30.9428 28.9812C30.9017 29.1323 30.858 29.293 30.8307 29.4029C30.784 29.5897 30.5515 29.9613 30.4133 30.0547C30.3573 30.0923 30.2861 30.1599 30.2119 30.2303C30.1018 30.3349 29.9851 30.4457 29.9025 30.473C29.7634 30.5197 29.6691 30.1471 29.7158 29.9613C29.7634 29.7755 29.995 29.2648 29.995 29.2648C29.995 29.2648 30.0417 28.9865 30.0874 28.7998C30.1351 28.6149 30.6925 28.3824 30.6925 28.3824L31.065 27.685C31.065 27.6859 31.0664 27.6925 31.0687 27.7037L31.0688 27.704C31.0796 27.7552 31.1099 27.8985 31.1099 28.0098ZM12.6582 15.2278C12.6582 15.2853 12.6339 15.3293 12.6079 15.3764C12.5499 15.4817 12.4831 15.6028 12.6582 15.9253C12.9822 16.5294 12.7039 16.8086 12.7039 16.8086C12.7039 16.8086 11.913 17.3661 11.7739 17.4595C11.6348 17.5528 11.2632 18.0636 11.4947 17.9235C11.7272 17.7844 12.0055 17.6453 11.7739 18.0169C11.7054 18.1267 11.6207 18.2566 11.533 18.3911C11.3231 18.713 11.0958 19.0615 11.0307 19.2261C10.9971 19.311 10.9142 19.4386 10.8223 19.58C10.6616 19.8276 10.4732 20.1176 10.4732 20.2953C10.4732 20.4173 10.4377 20.5926 10.4017 20.7708C10.3552 21.0003 10.3078 21.2345 10.3341 21.3653C10.3655 21.5273 10.2626 22.0047 10.1816 22.201C10.2445 19.5882 11.124 17.1803 12.5762 15.2107C12.6239 15.2154 12.6582 15.2278 12.6582 15.2278ZM34.8087 23.0306C34.8208 22.8546 34.8328 22.679 34.8328 22.5002C34.8328 18.0988 32.5077 14.2387 29.0307 12.0566C28.9956 12.0761 28.9558 12.1004 28.9134 12.1262C28.7218 12.2432 28.4763 12.393 28.3694 12.2853C28.2302 12.1462 27.9034 11.9451 27.9034 11.9451C28.1835 11.7584 27.346 11.4487 27.346 11.4487L26.3712 11.5268H25.6746C25.6134 11.5268 25.5256 11.5077 25.4268 11.4862C25.2994 11.4585 25.1537 11.4267 25.0228 11.4267C24.8613 11.4267 24.5385 11.531 24.2954 11.6095C24.1915 11.6431 24.1021 11.6719 24.0461 11.6859C23.9732 11.7041 23.863 11.7525 23.7452 11.8043C23.5659 11.8832 23.3687 11.9699 23.2571 11.9699C23.0723 11.9699 22.7921 12.3206 22.7921 12.3206C22.7921 12.3206 22.4672 12.9152 22.7473 12.8218C23.0246 12.7284 23.3972 12.7236 23.442 12.8637C23.4649 12.9302 23.498 13.0179 23.5315 13.1067C23.5676 13.2022 23.604 13.299 23.6288 13.3716C23.6745 13.5107 24.3253 13.5555 24.3253 13.5555C24.3253 13.5555 24.4187 13.323 24.5578 13.1372C24.6969 12.9514 24.8361 12.7189 24.8361 12.7189C24.8361 12.7189 25.0686 13.1839 25.1153 13.323C25.161 13.4631 25.0219 13.8804 25.0219 13.8804C25.0219 13.8804 24.5111 14.2054 24.3711 14.2054C24.231 14.2054 23.4401 13.5078 23.4401 13.5078C23.1618 13.6012 22.9293 13.7413 22.9293 13.7413C22.6044 14.0672 22.2785 14.3454 22.2785 14.3454C22.2785 14.3454 21.9974 14.4388 21.8126 14.5779C21.7292 14.6404 21.6025 14.6807 21.4781 14.7203C21.3251 14.7691 21.1756 14.8167 21.1141 14.9029C20.8825 15.2278 21.2037 15.4603 21.2037 15.4603L20.9178 15.8319L20.7186 15.972L20.0392 16.1121L19.6324 16.1807C19.6781 16.3198 19.5876 16.762 19.5876 16.762V17.55C19.5876 17.55 20.2584 17.7358 20.3985 17.7358C20.4189 17.7358 20.4437 17.7368 20.4718 17.738C20.6353 17.7447 20.9099 17.7561 21.0693 17.5967C21.2532 17.4109 21.5562 16.9925 21.6487 16.8534C21.7411 16.7143 21.8669 16.5752 22.147 16.4818C22.3091 16.4278 22.3898 16.3578 22.4568 16.2996C22.5045 16.2583 22.5453 16.223 22.6035 16.2036C22.7435 16.1569 23.2905 16.0635 23.2905 16.0635C23.2905 16.0635 23.6135 16.2969 23.7517 16.3894C23.7677 16.4003 23.7708 16.4171 23.7746 16.4383C23.7868 16.5044 23.8068 16.6133 24.2481 16.72V17.0878L24.8666 17.0411L24.5864 16.6695L24.5388 16.6571L24.0004 16.1121L23.9604 15.6938C23.9604 15.6938 24.533 16.0187 24.7189 16.1121C24.9047 16.2045 25.3011 16.4828 25.3011 16.4828L25.5765 17.1326L25.9481 17.5862C25.8232 17.4309 25.5155 16.9925 25.9957 16.9925C25.9957 16.9925 26.4379 17.0392 26.577 16.9925C26.7171 16.9468 26.8428 16.9011 27.0277 16.8077C27.1184 16.7621 27.1031 16.6614 27.0851 16.5432C27.0663 16.4192 27.0445 16.2759 27.1392 16.1569C27.3259 15.9244 27.568 15.831 27.7071 15.7852C27.8472 15.7386 28.315 15.506 28.315 15.506L28.8296 15.5994C28.5981 15.7852 28.3208 16.0635 28.5056 16.0177C28.6914 15.9711 29.1117 16.2036 29.2965 16.3427C29.4823 16.4818 29.3432 16.8077 29.3432 16.8077C29.3432 16.8077 28.8325 16.761 28.5075 16.7143C28.1816 16.6686 27.6699 16.761 27.6699 16.761L27.2526 16.9925C27.2526 16.9925 26.9734 17.0859 27.0201 17.3175C27.0658 17.55 27.2526 17.8301 27.4384 18.0617C27.48 18.1142 27.5193 18.1691 27.5569 18.2214C27.6862 18.4016 27.7944 18.5524 27.9015 18.48C28.0425 18.3866 28.5075 18.1084 28.5075 18.1084C28.5075 18.1084 28.4132 18.4333 28.4608 18.6658C28.5075 18.8974 28.5075 19.2233 28.5075 19.2233C28.5075 19.2233 28.0425 19.2233 28.1816 19.3176C28.2862 19.3861 28.4252 19.6048 28.5217 19.7566C28.5527 19.8054 28.5793 19.8472 28.599 19.875C29.064 20.5249 30.0398 21.9657 30.1331 22.1515C30.172 22.2307 30.1868 22.3273 30.2013 22.4225C30.2211 22.5517 30.2405 22.6783 30.319 22.7556C30.5972 23.0348 31.1546 22.7556 31.2938 22.6632C31.3374 22.6347 31.4126 22.5922 31.4995 22.5432C31.6916 22.4348 31.9413 22.2939 32.037 22.1982C32.0929 22.143 32.1193 22.1169 32.1483 22.094C32.1923 22.0591 32.2421 22.0315 32.4105 21.9199C32.6888 21.7341 32.8746 21.594 32.7355 21.4549C32.5964 21.3158 32.3181 20.8041 32.3181 20.8041C31.8979 20.8975 31.4805 20.665 31.4805 20.5258C31.4805 20.3867 31.1089 19.8293 31.1089 19.8293C31.1089 19.8293 31.1546 19.7369 31.4805 19.9217C31.6041 19.992 31.7206 20.089 31.8329 20.1824C32.0175 20.336 32.1906 20.4801 32.3648 20.4801C32.6225 20.4801 32.76 20.5594 33.0377 20.7194C33.0599 20.7322 33.083 20.7455 33.1071 20.7593C33.2869 20.8613 33.4101 20.9778 33.5155 21.0774C33.6012 21.1584 33.675 21.2282 33.7579 21.2701C33.9437 21.3634 34.2229 21.7351 34.2229 21.7351C34.2229 21.7351 34.5021 22.3859 34.5479 22.5726C34.5684 22.6529 34.6316 22.8026 34.6971 22.9578C34.7319 23.0404 34.7674 23.1245 34.7975 23.2006C34.801 23.1438 34.8049 23.0872 34.8087 23.0306Z" fill="white"/>
</svg>
