<svg width="46" height="46" viewBox="0 0 46 46" fill="none" xmlns="http://www.w3.org/2000/svg">
<path fill-rule="evenodd" clip-rule="evenodd" d="M23.1316 0C10.7633 0 0.736816 10.2578 0.736816 22.9115C0.736816 35.5652 10.7633 45.823 23.1316 45.823C35.4998 45.823 45.5263 35.5652 45.5263 22.9115C45.5263 10.2578 35.4998 0 23.1316 0ZM32.4642 15.035C33.4921 15.3236 34.3015 16.1738 34.5762 17.2535C35.0754 19.2104 35.0754 23.2934 35.0754 23.2934C35.0754 23.2934 35.0754 27.3762 34.5762 29.3332C34.3015 30.4129 33.4921 31.2631 32.4642 31.5518C30.6015 32.0761 23.1316 32.0761 23.1316 32.0761C23.1316 32.0761 15.6616 32.0761 13.7988 31.5518C12.7709 31.2631 11.9615 30.4129 11.6868 29.3332C11.1877 27.3762 11.1877 23.2934 11.1877 23.2934C11.1877 23.2934 11.1877 19.2104 11.6868 17.2535C11.9615 16.1738 12.7709 15.3236 13.7988 15.035C15.6616 14.5106 23.1316 14.5106 23.1316 14.5106C23.1316 14.5106 30.6015 14.5106 32.4642 15.035Z" fill="white"/>
<path d="M20.8921 27.4946V19.8574L26.864 23.6762L20.8921 27.4946Z" fill="white"/>
</svg>
