<?xml version="1.0" encoding="utf-8"?>
<!-- Generator: Adobe Illustrator 25.2.0, SVG Export Plug-In . SVG Version: 6.00 Build 0)  -->
<svg version="1.1" id="Layer_1" xmlns="http://www.w3.org/2000/svg" xmlns:xlink="http://www.w3.org/1999/xlink" x="0px" y="0px"
	 viewBox="0 0 301 60" style="enable-background:new 0 0 301 60;" xml:space="preserve">
<style type="text/css">
	.st0{fill:#545454;}
	.st1{fill:url(#SVGID_1_);}
	.st2{fill:url(#SVGID_2_);}
</style>
<path class="st0" d="M300.1,39.2H286c0-6.6,0-13.2,0-19.8h13.9v1.9H288v7.1h11.4v1.8H288v7.1h12.1V39.2z"/>
<path class="st0" d="M277.4,19.6l-9.6,9.3l10.4,10.1v0.1h-2.5l-9.8-9.6v9.6h-2V19.5h2v8.9l9.2-8.9h2.3L277.4,19.6L277.4,19.6z"/>
<path class="st0" d="M253,34.6h-11.4l-2,4.5h-2.1l8.8-19.8h2l8.8,19.8H255L253,34.6z M242.3,32.8h9.9l-4.9-11.2L242.3,32.8z"/>
<path class="st0" d="M224.7,21.3h-7v-1.8c5.6,0,10.3,0,15.9,0v1.9h-7v17.9h-2L224.7,21.3L224.7,21.3z"/>
<path class="st0" d="M210.5,23.5c-1.2-1.9-3.6-2.5-5.7-2.5c-2.4,0-5.5,0.7-5.5,3.6c0,2.3,2.5,2.9,5.6,3.5c3.9,0.7,7.8,1.6,7.8,5.8
	c0,4.5-4.3,5.7-7.9,5.7c-3.3,0-6.7-1.2-8.2-4.4l1.7-0.9c1.3,2.5,4.1,3.4,6.5,3.4c2.4,0,5.9-0.7,5.9-3.8c0-2.7-2.9-3.4-6-3.9
	c-3.7-0.7-7.4-1.5-7.4-5.3c0-4.2,4.2-5.4,7.5-5.4c2.7,0,5.6,0.7,7.4,3.4L210.5,23.5z"/>
<path class="st0" d="M184.5,35.5l-0.1-6.5v-9.5h2v19.8h-1.2l-12.8-15.9l0,5.8v10.1h-2V19.5h1.3L184.5,35.5z"/>
<path class="st0" d="M161.3,29.4c0,5.2-3.3,10.2-9.9,10.2c-6.7,0-10-5-10-10.2c0-5.6,3.6-10.2,10-10.2
	C158,19.1,161.3,24.1,161.3,29.4z M151.3,37.7c5.4,0,8-4.1,8-8.3c0-4.4-2.7-8.3-8-8.4c-5.3,0-8.1,3.8-8.1,8.4
	C143.4,33.7,145.9,37.7,151.3,37.7z"/>
<path class="st0" d="M133.4,29.4c0,5.2-3.3,10.2-9.9,10.2c-6.7,0-10-5-10-10.2c0-5.6,3.6-10.2,10-10.2
	C130.1,19.1,133.4,24.1,133.4,29.4z M123.4,37.7c5.4,0,8-4.1,8-8.3c0-4.4-2.7-8.3-8-8.4c-5.3,0-8.1,3.8-8.1,8.4
	C115.4,33.7,118,37.7,123.4,37.7z"/>
<path class="st0" d="M102.2,22.4l-7.4,10.8h-0.6l-7.4-11v17h-2V19.5c0.9,0,1.5,0,2.4,0l7.2,10.9l7.1-10.9h2.5v19.8h-2L102.2,22.4
	L102.2,22.4z"/>
<linearGradient id="SVGID_1_" gradientUnits="userSpaceOnUse" x1="3.3327" y1="8.2835" x2="62.9748" y2="64.0359" gradientTransform="matrix(1 0 0 -1 0 62)">
	<stop  offset="0" style="stop-color:#0085FF"/>
	<stop  offset="1" style="stop-color:#00E89E"/>
</linearGradient>
<path class="st1" d="M57,30.1C57,30.1,57,30.1,57,30.1C57,30.1,57,30.1,57,30.1V30c0,0,0,0,0,0v0v0c0,0,0,0,0,0c0,0,0,0,0,0
	c0,0,0,0,0,0L37.2,0.5c0,0,0,0,0-0.1c0,0,0,0,0,0c0,0,0,0-0.1,0c0,0-0.1,0-0.1,0s0,0,0,0c0,0,0,0-0.1,0H20.4c-0.2,0-0.3,0.1-0.4,0.2
	L0.4,29.8c0,0,0,0,0,0c0,0,0,0,0,0c0,0,0,0,0,0c0,0,0,0,0,0c0,0,0,0,0,0c0,0,0,0,0,0c0,0,0,0,0,0v0c0,0,0,0,0,0c0,0,0,0,0,0v0
	c0,0,0,0,0,0c0,0,0,0,0,0c0,0,0,0,0,0c0,0,0,0,0,0v0L20,59.7c0,0,0,0,0,0.1c0,0,0,0,0.1,0c0,0,0.1,0,0.1,0c0,0,0.1,0,0.1,0h16.5
	c0.2,0,0.3-0.1,0.4-0.2l19.7-29.3c0,0,0,0,0-0.1C57,30.2,57,30.2,57,30.1C57,30.1,57,30.1,57,30.1z M41.8,51.1l-4.6-14.4l18.1-5.8
	L41.8,51.1z M37,1.8l18.2,27.1L32,19.7L37,1.8z M2,31l23.3,9.1l-5.1,18.1L2,31z M2.2,30l28.5-9.3l-5.2,18.4L2.2,30z M31.4,21.7
	L36,36l-9.4,3L31.4,21.7z M32.2,20.8l22.9,9.1l-18.2,5.8L32.2,20.8z M20.6,1.2h15.6L31,19.5L1.9,29L20.6,1.2z M36.6,58.8H21
	l5.2-18.6l10-3.2l4.8,15.2L36.6,58.8z"/>
<linearGradient id="SVGID_2_" gradientUnits="userSpaceOnUse" x1="3.2977" y1="8.3207" x2="62.94" y2="64.0732" gradientTransform="matrix(1 0 0 -1 0 62)">
	<stop  offset="0" style="stop-color:#0085FF"/>
	<stop  offset="1" style="stop-color:#00E89E"/>
</linearGradient>
<path class="st2" d="M36.8,60H20.4v-0.2l0,0.2c0,0-0.1,0-0.1,0h0c0,0-0.1,0-0.1,0l0,0c0,0-0.1,0-0.1-0.1l0,0c0,0,0,0-0.1-0.1
	L0.1,30.4c0,0,0,0,0-0.1L0,30c0,0,0-0.1,0-0.1l0-0.2l0.1-0.2L19.8,0.3C19.9,0.1,20.1,0,20.4,0h16.5c0,0,0,0,0.1,0h0c0,0,0.1,0,0.2,0
	c0,0,0.1,0.1,0.1,0.1c0.1,0,0.1,0.1,0.1,0.1l19.7,29.4c0,0,0,0,0,0c0,0,0,0,0,0.1v0.1v0v0V30v0c0,0,0,0,0,0.1l-0.1,0.2
	c0,0,0,0,0,0.1L37.4,59.7C37.3,59.9,37.1,60,36.8,60z M20.3,59.5C20.3,59.5,20.3,59.5,20.3,59.5h16.6c0.1,0,0.2,0,0.2-0.1L56.8,30v0
	l0,0l0.2,0h-0.2l0.2-0.1l-0.2,0l0-0.1l0,0L37,0.6l-0.1-0.1c0,0,0,0,0,0h-0.1H20.3c-0.1,0-0.2,0-0.2,0.1L0.5,29.9l0,0.1l-0.1,0h0.1v0
	l-0.2,0.1l0.2-0.1l19.7,29.3L20.3,59.5C20.3,59.5,20.3,59.5,20.3,59.5z M0.3,30L0.3,30l0.2,0L0.3,30z M0.4,30H0.2h0H0.4z M36.7,59
	h-16L26.1,40l10.4-3.3l4.9,15.5L36.7,59z M21.3,58.5h15.1l4.3-6.4l-4.7-14.8l-9.7,3.1L21.3,58.5z M20.3,58.7L1.3,30.5l24.2,9.4
	L20.3,58.7z M2.6,31.5l17.5,26L25,40.2L2.6,31.5z M41.7,51.7l-4.8-15.1L56,30.4L41.7,51.7z M37.5,36.8l4.3,13.7l12.9-19.2L37.5,36.8
	z M25.7,39.4l-0.2-0.1L1.4,30l29.6-9.7L25.7,39.4z M2.9,30l22.5,8.7l5-17.7L2.9,30z M26.2,39.4l5.2-18.5l4.8,15.3L26.2,39.4z
	 M31.4,22.6l-4.5,16.1l8.7-2.8L31.4,22.6z M36.7,36l-4.9-15.7l24,9.6L36.7,36z M32.6,21.2l4.5,14.2l17.3-5.5L32.6,21.2z M1.3,29.5
	L20.5,0.9h16l-5.3,18.8l-0.1,0L1.3,29.5z M20.7,1.4L2.5,28.6l28.3-9.3l5-17.9H20.7z M55.9,29.4l-24.2-9.7l5.2-18.5L55.9,29.4z
	 M32.3,19.5l22.3,8.9l-17.5-26L32.3,19.5z"/>
</svg>
