<svg xmlns="http://www.w3.org/2000/svg" width="221.31" height="50.625" viewBox="0 0 221.31 50.625">
  <defs>
    <style>
      .cls-1 {
        fill: #fff;
        fill-rule: evenodd;
      }
    </style>
  </defs>
  <path class="cls-1" d="M1710.64,457.017a0.579,0.579,0,0,1-1.04.3l-8.26-7.695a0.619,0.619,0,0,1,.21-1.11l11.59-4.624c0.54-.215.86,0.069,0.72,0.63Zm-6.83,7.312a0.554,0.554,0,0,1-.99-0.349l-2.26-12.5c-0.1-.571.16-0.714,0.59-0.318l7.86,7.322a0.93,0.93,0,0,1-.03,1.408Zm9.49-22.928a0.709,0.709,0,0,1-.3,1.191l-11.52,4.6c-0.54.216-.81-0.053-0.61-0.6l4.73-12.694a0.574,0.574,0,0,1,1.06-.189Zm-12.07,20.8c0.1,0.571-.08.64-0.39,0.153l-4.47-6.889a1.616,1.616,0,0,1,.06-1.73l1.99-2.669c0.35-.465.72-0.379,0.82,0.192Zm-1.41-16.39c-0.2.543-.52,0.538-0.7-0.012l-1.53-4.572a1.767,1.767,0,0,1,.45-1.708l5.44-4.924c0.43-.389.62-0.263,0.41,0.281Zm-1.44,1.763a2.235,2.235,0,0,1-.3,1.846l-1.56,2.091c-0.35.464-.58,0.372-0.52-0.2l0.75-7.257c0.06-.577.26-0.6,0.44-0.048Zm6.14-16.343a0.961,0.961,0,0,1-.43,1.116l-2.45,2.215c-0.43.39-.5,0.327-0.15-0.138l2.05-2.754C1703.89,431.206,1704.33,431.009,1704.52,431.233Zm15.45,38.625a0.619,0.619,0,0,1-1.13.041l-6.4-9.3a0.573,0.573,0,0,1,.45-0.977l12.86-1.325c0.58-.06.81,0.3,0.52,0.8Zm-2.68.009c0.33,0.478.15,0.716-.4,0.53l-12.06-4.088a0.552,0.552,0,0,1-.2-1.028l5.17-4.441a0.931,0.931,0,0,1,1.4.181Zm8.73-13.725a0.5,0.5,0,0,1-.37.907l-13.04,1.345a0.687,0.687,0,0,1-.79-0.914l3.26-12.681a0.508,0.508,0,0,1,.96-0.223Zm9.37,10.868a0.57,0.57,0,0,1-.34,1.016l-13.28,2.79c-0.57.119-.79-0.193-0.5-0.693l6.26-10.695a0.708,0.708,0,0,1,1.22-.111Zm-21.36,7.132a1.635,1.635,0,0,1-1.72-.2l-6.16-5.432c-0.44-.384-0.34-0.545.21-0.358l10.54,3.577c0.56,0.187.59,0.564,0.07,0.838Zm14.33,0.516a1.764,1.764,0,0,1-1.76.19l-4.31-2.183c-0.51-.263-0.47-0.576.1-0.695l11.43-2.4c0.57-.119.67,0.083,0.22,0.451Zm-11.98.268c-0.58-.027-0.64-0.273-0.13-0.547l2.3-1.233a2.3,2.3,0,0,1,1.88-.021l3.36,1.707c0.52,0.263.47,0.456-.11,0.43Zm21.15-5.441c0.19,0.224-.07.631-0.58,0.9l-3.03,1.615c-0.52.273-.57,0.2-0.12-0.171l2.56-2.088A0.974,0.974,0,0,1,1737.53,469.485Zm-7.66-13.477c-0.54.216-.87-0.068-0.72-0.63l3.22-12.5a0.572,0.572,0,0,1,1.03-.3l8.26,7.695a0.617,0.617,0,0,1-.21,1.111Zm12.57-7.586c0.11,0.571-.16.714-0.58,0.319l-7.86-7.323a0.923,0.923,0,0,1,.03-1.408l5.16-4.441a0.553,0.553,0,0,1,.99.349ZM1737.4,466a0.567,0.567,0,0,1-1.05.189l-6.64-7.692a0.706,0.706,0,0,1,.29-1.191l11.52-4.6c0.54-.215.82,0.054,0.61,0.6Zm9.23-21.57a1.636,1.636,0,0,1-.05,1.73l-2,2.67c-0.35.465-.72,0.378-0.82-0.193l-1.98-10.943c-0.1-.571.07-0.64,0.39-0.153Zm-1.22,14.238a1.741,1.741,0,0,1-.44,1.709l-5.45,4.923c-0.43.39-.61,0.264-0.41-0.28l4.08-10.936c0.2-.543.52-0.538,0.7,0.013Zm0.85-2.822c-0.06.577-.26,0.6-0.44,0.048l-1.2-3.573a2.27,2.27,0,0,1,.3-1.845l1.56-2.091c0.35-.465.59-0.373,0.53,0.2Zm-6.8,12.38c-0.34.465-.79,0.663-0.98,0.439a0.975,0.975,0,0,1,.43-1.116l2.45-2.215c0.43-.39.5-0.328,0.15,0.138Zm-8.89-28.933a0.576,0.576,0,0,1-.46.978l-12.85,1.325c-0.58.059-.81-0.3-0.52-0.8l6.3-10.754a0.619,0.619,0,0,1,1.13-.042Zm2.63-.236a0.919,0.919,0,0,1-1.39-.181l-6.09-8.846c-0.33-.478-0.15-0.716.4-0.53l12.05,4.089a0.551,0.551,0,0,1,.2,1.027Zm-5.28,16.042c-0.14.562-.57,0.662-0.95,0.222l-9.98-11.565c-0.38-.44-0.22-0.848.36-0.908l13.05-1.344a0.689,0.689,0,0,1,.79.913Zm-12.45-14.63a0.706,0.706,0,0,1-1.22.111l-6.64-7.692a0.572,0.572,0,0,1,.35-1.016l13.27-2.79c0.57-.12.8,0.193,0.5,0.693Zm10.63-12.3c-0.55-.187-0.58-0.564-0.07-0.838l2.94-1.574a1.63,1.63,0,0,1,1.72.2l6.17,5.432c0.43,0.384.34,0.545-.21,0.359Zm-16.92,2.164c-0.57.119-.67-0.084-0.22-0.451l5.69-4.642a1.767,1.767,0,0,1,1.76-.19l4.3,2.184c0.52,0.263.48,0.576-.09,0.695Zm15.27-3.58a2.271,2.271,0,0,1-1.87.02l-3.37-1.707c-0.51-.263-0.46-0.456.12-0.43l7.3,0.336c0.58,0.027.64,0.273,0.12,0.547Zm-17.8,3.4a0.975,0.975,0,0,1-1.17.261c-0.2-.225.06-0.632,0.58-0.9l3.03-1.616c0.51-.273.56-0.2,0.11,0.172Zm-3.9,36.746a0.974,0.974,0,0,1,1.12.43l2.22,2.444c0.39,0.43.33,0.5-.14,0.153l-2.76-2.047C1702.73,467.533,1702.53,467.092,1702.75,466.9Zm38.32-32.948c0.23-.193.64,0.068,0.91,0.579l1.62,3.027c0.27,0.512.19,0.563-.17,0.114l-2.1-2.552A0.989,0.989,0,0,1,1741.07,433.951Zm-1.26-1.931c0.47,0.345.67,0.787,0.44,0.98a0.979,0.979,0,0,1-1.12-.43l-2.22-2.444c-0.39-.43-0.32-0.5.14-0.153Zm-38.14,32.76a0.958,0.958,0,0,1,.26,1.167c-0.22.193-.63-0.067-0.9-0.579l-1.62-3.027c-0.28-.512-0.2-0.563.17-0.115Zm91.96-26.45a17.029,17.029,0,0,1,6.25,6.054,15.89,15.89,0,0,1,2.31,8.386,16.136,16.136,0,0,1-2.31,8.434,17.4,17.4,0,0,1-29.83,0,16.136,16.136,0,0,1-2.31-8.434,15.89,15.89,0,0,1,2.31-8.386,17.029,17.029,0,0,1,6.25-6.054A17.893,17.893,0,0,1,1793.63,438.33Zm-15.6,2.52a13.888,13.888,0,0,0-5.1,4.994,13.236,13.236,0,0,0-1.89,6.926,13.48,13.48,0,0,0,1.89,6.973,13.956,13.956,0,0,0,5.1,5.065,13.654,13.654,0,0,0,6.98,1.861,13.491,13.491,0,0,0,6.92-1.861,14.028,14.028,0,0,0,5.07-5.065,13.48,13.48,0,0,0,1.89-6.973,13.321,13.321,0,0,0-2.82-8.295A14.016,14.016,0,0,0,1778.03,440.85Zm59.06,27.769-6.68-10.054q-1.5.094-2.31,0.094h-9.06v9.112a1.539,1.539,0,0,1-1.54,1.536h-0.18a1.539,1.539,0,0,1-1.54-1.536v-31.4h12.32q6.18,0,9.56,2.851t3.37,8.08a11.335,11.335,0,0,1-1.98,6.831,10.346,10.346,0,0,1-5.66,3.817l6.24,8.939a1.537,1.537,0,0,1-1.26,2.415h0A1.522,1.522,0,0,1,1837.09,468.619Zm-8.99-12.881q4.725,0,7.27-2.143a7.639,7.639,0,0,0,2.55-6.2,7.322,7.322,0,0,0-2.55-6.031q-2.55-2.071-7.27-2.073h-9.06v16.443h9.06Zm49.82-17.22a7.26,7.26,0,0,1,2.81,6.054,7.486,7.486,0,0,1-1.63,4.9,7.745,7.745,0,0,1-4.56,2.591,8.962,8.962,0,0,1,5.67,2.686,7.992,7.992,0,0,1,2.03,5.606,7.753,7.753,0,0,1-3.17,6.6c-2.1,1.571-5.03,2.356-8.77,2.356h-13.97v-32.98h13.82Q1875.115,436.327,1877.92,438.518Zm-2.48,10.836a5.236,5.236,0,0,0,1.94-4.358,5.072,5.072,0,0,0-1.94-4.24,8.458,8.458,0,0,0-5.43-1.461h-10.43v11.591h10.43A8.551,8.551,0,0,0,1875.44,449.354Zm1.16,15.36a5.448,5.448,0,0,0,2.33-4.688,5.3,5.3,0,0,0-2.36-4.618,11.311,11.311,0,0,0-6.56-1.649h-10.43v12.627h10.43A11.2,11.2,0,0,0,1876.6,464.714Zm33.95-24.924a16.588,16.588,0,0,0-4.53-.683,9.839,9.839,0,0,0-5.45,1.343,4.152,4.152,0,0,0-2.05,3.651,4.8,4.8,0,0,0,1.13,3.3,7.982,7.982,0,0,0,2.79,2,43.364,43.364,0,0,0,4.53,1.626,39.326,39.326,0,0,1,5.4,1.955,9.543,9.543,0,0,1,3.49,2.8,8.481,8.481,0,0,1-.04,9.517,9.535,9.535,0,0,1-4.18,3.133,16.09,16.09,0,0,1-6.18,1.108,17.339,17.339,0,0,1-6.73-1.367,18.53,18.53,0,0,1-4.69-2.784,1.516,1.516,0,0,1-.35-1.908h0a1.508,1.508,0,0,1,2.24-.455,16.268,16.268,0,0,0,3.82,2.226,14.82,14.82,0,0,0,5.75,1.225,10.406,10.406,0,0,0,6-1.531,4.766,4.766,0,0,0,2.22-4.122,5.006,5.006,0,0,0-1.14-3.393,7.472,7.472,0,0,0-2.78-2.026q-1.65-.707-4.63-1.649a48.043,48.043,0,0,1-5.38-1.955,9.038,9.038,0,0,1-3.44-2.732,7.439,7.439,0,0,1-1.42-4.735,7.062,7.062,0,0,1,1.42-4.382,8.9,8.9,0,0,1,3.96-2.9,15.9,15.9,0,0,1,5.9-1.013,19.022,19.022,0,0,1,5.41.8,20.155,20.155,0,0,1,3.45,1.36,1.507,1.507,0,0,1,.68,2.043l-0.04.091a1.531,1.531,0,0,1-2.06.649A17.78,17.78,0,0,0,1910.55,439.79Z" transform="translate(-1696 -424.625)"/>
</svg>
