<svg width="745" height="71" viewBox="0 0 745 71" fill="none" xmlns="http://www.w3.org/2000/svg">
<g opacity="0.3" clip-path="url(#clip0_671_9154)">
<path d="M106.715 0.271783L638.285 0.271736L744.09 70.7266L0.90975 70.7266L106.715 0.271783Z" stroke="white" stroke-width="0.88" stroke-miterlimit="10"/>
<path d="M15.134 61.254L729.867 61.2539" stroke="white" stroke-width="0.88" stroke-miterlimit="10"/>
<path d="M28.3115 52.4766L716.688 52.4766" stroke="white" stroke-width="0.88" stroke-miterlimit="10"/>
<path d="M40.5534 44.3301L704.446 44.3301" stroke="white" stroke-width="0.88" stroke-miterlimit="10"/>
<path d="M51.9512 36.7422L693.049 36.7422" stroke="white" stroke-width="0.88" stroke-miterlimit="10"/>
<path d="M62.5949 29.6544L682.406 29.6543" stroke="white" stroke-width="0.88" stroke-miterlimit="10"/>
<path d="M72.5495 23.0196L672.444 23.0195" stroke="white" stroke-width="0.88" stroke-miterlimit="10"/>
<path d="M81.8937 16.8067L663.107 16.8066" stroke="white" stroke-width="0.88" stroke-miterlimit="10"/>
<path d="M90.6655 10.9649L654.334 10.9648" stroke="white" stroke-width="0.88" stroke-miterlimit="10"/>
<path d="M98.9244 5.46294L646.076 5.46289" stroke="white" stroke-width="0.88" stroke-miterlimit="10"/>
<path d="M585.125 0.277926L669.773 70.7266" stroke="white" stroke-width="0.88" stroke-miterlimit="10"/>
<path d="M531.972 0.277924L595.45 70.7266" stroke="white" stroke-width="0.88" stroke-miterlimit="10"/>
<path d="M478.813 0.277922L521.134 70.7266" stroke="white" stroke-width="0.88" stroke-miterlimit="10"/>
<path d="M425.653 0.27792L446.817 70.7266" stroke="white" stroke-width="0.88" stroke-miterlimit="10"/>
<path d="M372.5 0.277919L372.5 70.7266" stroke="white" stroke-width="0.88" stroke-miterlimit="10"/>
<path d="M319.34 0.277919L298.183 70.7266" stroke="white" stroke-width="0.88" stroke-miterlimit="10"/>
<path d="M266.187 0.277919L223.86 70.7266" stroke="white" stroke-width="0.88" stroke-miterlimit="10"/>
<path d="M213.028 0.277919L149.543 70.7266" stroke="white" stroke-width="0.88" stroke-miterlimit="10"/>
<path d="M159.869 0.277919L75.2267 70.7266" stroke="white" stroke-width="0.88" stroke-miterlimit="10"/>
</g>
<defs>
<clipPath id="clip0_671_9154">
<rect width="745" height="71" fill="white" transform="translate(745 71) rotate(180)"/>
</clipPath>
</defs>
</svg>
