<svg width="745" height="71" viewBox="0 0 745 71" fill="none" xmlns="http://www.w3.org/2000/svg">
<g opacity="0.3" clip-path="url(#clip0_671_9088)">
<path d="M638.285 70.7283H106.715L0.909668 0.273438H744.09L638.285 70.7283Z" stroke="white" stroke-width="0.88" stroke-miterlimit="10"/>
<path d="M729.866 9.74609H15.1338" stroke="white" stroke-width="0.88" stroke-miterlimit="10"/>
<path d="M716.689 18.5234H28.3115" stroke="white" stroke-width="0.88" stroke-miterlimit="10"/>
<path d="M704.447 26.6699H40.5537" stroke="white" stroke-width="0.88" stroke-miterlimit="10"/>
<path d="M693.049 34.2578H51.9507" stroke="white" stroke-width="0.88" stroke-miterlimit="10"/>
<path d="M682.405 41.3457H62.5942" stroke="white" stroke-width="0.88" stroke-miterlimit="10"/>
<path d="M672.45 47.9805H72.5557" stroke="white" stroke-width="0.88" stroke-miterlimit="10"/>
<path d="M663.106 54.1934H81.8931" stroke="white" stroke-width="0.88" stroke-miterlimit="10"/>
<path d="M654.334 60.0352H90.6655" stroke="white" stroke-width="0.88" stroke-miterlimit="10"/>
<path d="M646.076 65.5371H98.9243" stroke="white" stroke-width="0.88" stroke-miterlimit="10"/>
<path d="M159.875 70.7221L75.2266 0.273438" stroke="white" stroke-width="0.88" stroke-miterlimit="10"/>
<path d="M213.028 70.7221L149.55 0.273438" stroke="white" stroke-width="0.88" stroke-miterlimit="10"/>
<path d="M266.187 70.7221L223.866 0.273438" stroke="white" stroke-width="0.88" stroke-miterlimit="10"/>
<path d="M319.347 70.7221L298.183 0.273438" stroke="white" stroke-width="0.88" stroke-miterlimit="10"/>
<path d="M372.5 70.7221V0.273438" stroke="white" stroke-width="0.88" stroke-miterlimit="10"/>
<path d="M425.66 70.7221L446.817 0.273438" stroke="white" stroke-width="0.88" stroke-miterlimit="10"/>
<path d="M478.812 70.7221L521.14 0.273438" stroke="white" stroke-width="0.88" stroke-miterlimit="10"/>
<path d="M531.972 70.7221L595.457 0.273438" stroke="white" stroke-width="0.88" stroke-miterlimit="10"/>
<path d="M585.131 70.7221L669.773 0.273438" stroke="white" stroke-width="0.88" stroke-miterlimit="10"/>
</g>
<defs>
<clipPath id="clip0_671_9088">
<rect width="745" height="71" fill="white"/>
</clipPath>
</defs>
</svg>
