<svg width="437" height="18" viewBox="0 0 437 18" fill="none" xmlns="http://www.w3.org/2000/svg">
<g clip-path="url(#clip0_671_9216)">
<g opacity="0.8">
<path opacity="0.8" d="M0 0.359375C16.79 0.359375 16.79 17.1094 33.58 17.1094C50.37 17.1094 50.38 0.359375 67.17 0.359375C83.96 0.359375 84 17.1094 100.75 17.1094C117.5 17.1094 117.55 0.359375 134.34 0.359375C151.13 0.359375 151.13 17.1094 167.93 17.1094C184.73 17.1094 184.72 0.359375 201.51 0.359375C218.3 0.359375 218.3 17.1094 235.09 17.1094C251.88 17.1094 251.89 0.359375 268.68 0.359375C285.47 0.359375 285.48 17.1094 302.27 17.1094C319.06 17.1094 319.06 0.359375 335.86 0.359375C352.66 0.359375 352.65 17.1094 369.45 17.1094C386.25 17.1094 386.24 0.359375 403 0.359375C419.76 0.359375 419.8 17.1094 436.59 17.1094" stroke="#FF901B" stroke-width="0.72" stroke-miterlimit="10"/>
</g>
</g>
<defs>
<clipPath id="clip0_671_9216">
<rect width="436.63" height="17.47" fill="white"/>
</clipPath>
</defs>
</svg>
