<svg width="728" height="17" viewBox="0 0 728 17" fill="none" xmlns="http://www.w3.org/2000/svg">
<g clip-path="url(#clip0_1329_18731)">
<g opacity="0.8">
<path opacity="0.8" d="M0 0.349609C14.5537 0.349609 14.5537 16.649 29.1074 16.649C43.6611 16.649 43.6698 0.349609 58.2235 0.349609C72.7772 0.349609 72.8118 16.649 87.3309 16.649C101.85 16.649 101.893 0.349609 116.447 0.349609C131.001 0.349609 131.001 16.649 145.563 16.649C160.125 16.649 160.117 0.349609 174.67 0.349609C189.224 0.349609 189.224 16.649 203.778 16.649C218.332 16.649 218.34 0.349609 232.894 0.349609C247.448 0.349609 247.456 16.649 262.01 16.649C276.564 16.649 276.564 0.349609 291.126 0.349609C305.688 0.349609 305.68 16.649 320.242 16.649C334.804 16.649 334.796 0.349609 349.323 0.349609C363.851 0.349609 363.886 16.649 378.44 16.649" stroke="#EC455E" stroke-width="0.72" stroke-miterlimit="10"/>
</g>
</g>
<g clip-path="url(#clip1_1329_18731)">
<g opacity="0.8">
<path opacity="0.8" d="M349.525 0.349609C364.079 0.349609 364.079 16.649 378.633 16.649C393.186 16.649 393.195 0.349609 407.749 0.349609C422.303 0.349609 422.337 16.649 436.856 16.649C451.375 16.649 451.419 0.349609 465.972 0.349609C480.526 0.349609 480.526 16.649 495.088 16.649C509.651 16.649 509.642 0.349609 524.196 0.349609C538.749 0.349609 538.749 16.649 553.303 16.649C567.857 16.649 567.866 0.349609 582.419 0.349609C596.973 0.349609 596.982 16.649 611.535 16.649C626.089 16.649 626.089 0.349609 640.651 0.349609C655.214 0.349609 655.205 16.649 669.767 16.649C684.33 16.649 684.321 0.349609 698.849 0.349609C713.377 0.349609 713.411 16.649 727.965 16.649" stroke="#EC455E" stroke-width="0.72" stroke-miterlimit="10"/>
</g>
</g>
<defs>
<clipPath id="clip0_1329_18731">
<rect width="378.474" height="17" fill="white"/>
</clipPath>
<clipPath id="clip1_1329_18731">
<rect width="378.474" height="17" fill="white" transform="translate(349.525)"/>
</clipPath>
</defs>
</svg>
