<svg width="116" height="36" viewBox="0 0 116 36" fill="none" xmlns="http://www.w3.org/2000/svg">
<path d="M116 0H0V36H116V0Z" fill="#100E0F"/>
<path d="M53.9519 15.6059H48.6062C48.4651 15.6059 48.3592 15.7123 48.3592 15.8542V18.4788C48.3592 18.6207 48.4651 18.7271 48.6062 18.7271H50.688V21.9901C50.688 21.9901 50.2117 22.1497 48.9238 22.1497C47.4065 22.1497 45.2717 21.5822 45.2717 16.8827C45.2717 12.1655 47.4947 11.5448 49.5765 11.5448C51.3761 11.5448 52.1524 11.864 52.6463 12.0236C52.8051 12.0768 52.9463 11.9172 52.9463 11.7753L53.5461 9.23939C53.5461 9.16845 53.5285 9.09751 53.4579 9.04431C53.2638 8.90244 52.0289 8.21082 48.9414 8.21082C45.3776 8.21082 41.7256 9.73594 41.7256 17.0601C41.7256 24.3842 45.9069 25.4837 49.4354 25.4837C52.3641 25.4837 54.1283 24.2246 54.1283 24.2246C54.1989 24.1891 54.2165 24.0827 54.2165 24.0295V15.8542C54.1989 15.7123 54.093 15.6059 53.9519 15.6059Z" fill="white"/>
<path d="M81.4743 9.07976C81.4743 8.93789 81.3685 8.83148 81.2273 8.83148H78.2281C78.0869 8.83148 77.9811 8.93789 77.9811 9.07976V14.9142H73.2882V9.07976C73.2882 8.93789 73.1823 8.83148 73.0412 8.83148H70.0419C69.9008 8.83148 69.7949 8.93789 69.7949 9.07976V24.8985C69.7949 25.0403 69.9008 25.1467 70.0419 25.1467H73.0412C73.1823 25.1467 73.2882 25.0403 73.2882 24.8985V18.1418H77.9811V24.8985C77.9811 25.0403 78.0869 25.1467 78.2281 25.1467H81.245C81.3861 25.1467 81.492 25.0403 81.492 24.8985V9.07976H81.4743Z" fill="white"/>
<path d="M59.6328 11.1724C59.6328 10.0906 58.7683 9.20392 57.6921 9.20392C56.616 9.20392 55.7515 10.0906 55.7515 11.1724C55.7515 12.2542 56.616 13.1409 57.6921 13.1409C58.7507 13.1409 59.6328 12.2542 59.6328 11.1724Z" fill="white"/>
<path d="M59.4035 21.5645C59.4035 21.1566 59.4035 14.2581 59.4035 14.2581C59.4035 14.1162 59.2976 14.0098 59.1565 14.0098H56.1572C56.0161 14.0098 55.8926 14.1517 55.8926 14.2936C55.8926 14.2936 55.8926 23.0719 55.8926 24.7566C55.8926 25.0581 56.0866 25.1468 56.3336 25.1468C56.3336 25.1468 57.6216 25.1468 59.033 25.1468C59.3329 25.1468 59.4035 25.0049 59.4035 24.7389C59.4035 24.1891 59.4035 21.9901 59.4035 21.5645Z" fill="white"/>
<path d="M92.9067 14.0453H89.9251C89.784 14.0453 89.6781 14.1517 89.6781 14.2936V22.0433C89.6781 22.0433 88.9195 22.5931 87.8433 22.5931C86.7671 22.5931 86.4848 22.0965 86.4848 21.0502C86.4848 19.9862 86.4848 14.2936 86.4848 14.2936C86.4848 14.1517 86.379 14.0453 86.2378 14.0453H83.2033C83.0622 14.0453 82.9563 14.1517 82.9563 14.2936C82.9563 14.2936 82.9563 18.4256 82.9563 21.5645C82.9563 24.7034 84.7029 25.4837 87.1023 25.4837C89.0783 25.4837 90.6485 24.3842 90.6485 24.3842C90.6485 24.3842 90.719 24.9517 90.7543 25.0226C90.7896 25.0936 90.8778 25.1645 90.966 25.1645H92.8891C93.0302 25.1645 93.1361 25.0581 93.1361 24.9162V14.2936C93.1537 14.1517 93.0302 14.0453 92.9067 14.0453Z" fill="white"/>
<path d="M101.057 13.6906C99.3637 13.6906 98.2169 14.4532 98.2169 14.4532V9.07976C98.2169 8.93789 98.1111 8.83148 97.9699 8.83148H94.9531C94.8119 8.83148 94.7061 8.93789 94.7061 9.07976V24.8985C94.7061 25.0403 94.8119 25.1467 94.9531 25.1467H97.0525C97.1407 25.1467 97.2113 25.0935 97.2642 25.0049C97.3172 24.9162 97.3877 24.2778 97.3877 24.2778C97.3877 24.2778 98.6227 25.4482 100.952 25.4482C103.686 25.4482 105.256 24.0472 105.256 19.1704C105.256 14.329 102.751 13.6906 101.057 13.6906ZM99.8753 22.5931C98.8344 22.5576 98.1464 22.0965 98.1464 22.0965V17.0778C98.1464 17.0778 98.8344 16.6522 99.6813 16.5812C100.757 16.4926 101.798 16.8118 101.798 19.3832C101.798 22.0965 101.322 22.6463 99.8753 22.5931Z" fill="white"/>
<path d="M68.0482 14.0098H65.79V11.0128C65.79 10.9064 65.737 10.8354 65.5959 10.8354H62.5261C62.4026 10.8354 62.3497 10.8887 62.3497 10.9951V14.0985C62.3497 14.0985 60.8148 14.4709 60.7089 14.5064C60.603 14.5419 60.5325 14.6305 60.5325 14.7547V16.7054C60.5325 16.8473 60.6383 16.9537 60.7795 16.9537H62.3497C62.3497 16.9537 62.3497 18.9931 62.3497 21.6355C62.3497 25.1113 64.7667 25.4483 66.4075 25.4483C67.1484 25.4483 68.0482 25.2 68.1894 25.1468C68.2776 25.1113 68.3305 25.0226 68.3305 24.9162V22.7704C68.3305 22.6286 68.207 22.5222 68.0835 22.5222C67.96 22.5222 67.6071 22.5754 67.2719 22.5754C66.1605 22.5754 65.79 22.0611 65.79 21.3872C65.79 20.7133 65.79 16.9359 65.79 16.9359H68.0482C68.1894 16.9359 68.2952 16.8295 68.2952 16.6877V14.2581C68.2952 14.134 68.1894 14.0098 68.0482 14.0098Z" fill="white"/>
<path fill-rule="evenodd" clip-rule="evenodd" d="M20.9947 7.466C15.7195 7.466 11.4324 11.7754 11.4324 17.0778C11.4324 21.334 14.167 24.934 17.9778 26.2108C18.4541 26.2995 18.6305 25.998 18.6305 25.7497C18.6305 25.5192 18.6305 24.9163 18.6129 24.1182C15.9489 24.7034 15.3843 22.8236 15.3843 22.8236C14.9432 21.7064 14.3258 21.4227 14.3258 21.4227C13.4613 20.8197 14.3963 20.8374 14.3963 20.8374C15.349 20.9084 15.8607 21.8305 15.8607 21.8305C16.7075 23.3025 18.1013 22.8768 18.6482 22.6286C18.7364 22.0079 18.9834 21.5823 19.248 21.3517C17.1309 21.1034 14.8903 20.2877 14.8903 16.599C14.8903 15.5527 15.2608 14.6837 15.8783 14.0098C15.7724 13.7616 15.4549 12.7862 15.9665 11.4562C15.9665 11.4562 16.7781 11.1901 18.5953 12.4493C19.3539 12.2364 20.1831 12.13 20.9947 12.13C21.8062 12.13 22.6178 12.2364 23.394 12.4493C25.2289 11.2079 26.0228 11.4562 26.0228 11.4562C26.5521 12.7862 26.2169 13.7616 26.111 14.0098C26.7285 14.6837 27.099 15.535 27.099 16.599C27.099 20.2877 24.8584 21.1034 22.7236 21.3517C23.0588 21.6532 23.3764 22.2384 23.3764 23.1251C23.3764 24.402 23.3588 25.4483 23.3588 25.7675C23.3588 26.0335 23.5352 26.3172 24.0115 26.2286C27.8047 24.9517 30.5569 21.3517 30.5569 17.1133C30.5746 11.7754 26.2874 7.466 20.9947 7.466Z" fill="white"/>
</svg>
