<svg width="52" height="52" viewBox="0 0 52 52" fill="none" xmlns="http://www.w3.org/2000/svg">
<path d="M14.9545 33.1925C14.7975 33.7844 14.3267 33.9028 13.895 33.5082L5.49791 25.6158C5.06628 25.2212 5.14476 24.7082 5.69411 24.4714L17.4658 19.736C18.0151 19.4993 18.329 19.815 18.2113 20.3674L14.9545 33.1925Z" fill="#E94ED0"/>
<path d="M8.00913 40.6904C7.5775 41.085 7.10663 40.9271 6.98892 40.3352L4.67382 27.5101C4.55611 26.9182 4.83078 26.7603 5.26241 27.1944L13.2671 34.6922C13.6988 35.0868 13.6988 35.7576 13.2279 36.1523L8.00913 40.6904Z" fill="#E94ED0"/>
<path d="M17.6619 17.2104C18.0543 17.6444 17.8974 18.1969 17.348 18.4337L5.61559 23.1296C5.06625 23.3664 4.79158 23.0902 4.98777 22.4982L9.81415 9.47585C10.0103 8.92338 10.5205 8.84446 10.8736 9.27854L17.6619 17.2104Z" fill="#E94ED0"/>
<path d="M5.38029 38.5197C5.498 39.1116 5.30181 39.1905 4.9879 38.6775L0.436189 31.6139C0.122278 31.1009 0.122278 30.3116 0.475428 29.8381L2.51585 27.1152C2.869 26.6417 3.26139 26.7206 3.33986 27.3125L5.38029 38.5197Z" fill="#E94ED0"/>
<path d="M3.92828 21.7087C3.73209 22.2611 3.41818 22.2611 3.22198 21.7087L1.65243 17.0127C1.45623 16.4603 1.65243 15.671 2.12329 15.2764L7.65597 10.2253C8.0876 9.83067 8.2838 9.94905 8.0876 10.5015L3.92828 21.7087Z" fill="#E94ED0"/>
<path d="M2.47631 23.5243C2.67251 24.0768 2.51555 24.945 2.1624 25.4185L0.553607 27.5495C0.200457 28.023 -0.0349757 27.9441 0.00426319 27.3521L0.828279 19.8939C0.906757 19.3019 1.10295 19.2625 1.25991 19.8544L2.47631 23.5243Z" fill="#E94ED0"/>
<path d="M8.71577 6.75293C8.91197 6.9897 8.71577 7.50271 8.28415 7.89733L5.8121 10.1861C5.38047 10.5807 5.30199 10.5018 5.65514 10.0283L7.7348 7.18701C8.08795 6.75293 8.51958 6.55562 8.71577 6.75293Z" fill="#E94ED0"/>
<path d="M24.4499 46.3726C24.136 46.8856 23.6259 46.8856 23.312 46.412L16.7591 36.8623C16.4059 36.3887 16.6413 35.9152 17.2299 35.8757L30.2965 34.534C30.885 34.4551 31.1205 34.8497 30.8066 35.3627L24.4499 46.3726Z" fill="#E94ED0"/>
<path d="M21.7036 46.3725C22.0568 46.846 21.8606 47.1222 21.3112 46.9249L9.02946 42.742C8.48011 42.5447 8.3624 42.0711 8.83326 41.6765L14.0913 37.0989C14.5229 36.7043 15.19 36.7832 15.5039 37.2962L21.7036 46.3725Z" fill="#E94ED0"/>
<path d="M30.6107 32.2847C31.0031 32.7187 30.8461 33.1528 30.2575 33.2317L16.9948 34.6129C16.4062 34.6918 16.0531 34.2578 16.21 33.6658L19.5453 20.6829C19.7023 20.091 20.1339 20.012 20.5263 20.4461L30.6107 32.2847Z" fill="#E94ED0"/>
<path d="M40.1456 43.4525C40.538 43.8866 40.3811 44.3601 39.7925 44.4785L26.2551 47.3592C25.6665 47.4776 25.4311 47.1619 25.745 46.6489L32.1017 35.6785C32.4156 35.1655 32.9649 35.1261 33.3573 35.5601L40.1456 43.4525Z" fill="#E94ED0"/>
<path d="M18.4072 50.7531C17.8971 51.0293 17.1124 50.9504 16.6415 50.5557L10.3633 44.9916C9.93164 44.597 10.0101 44.4391 10.5595 44.6365L21.2717 48.3064C21.821 48.5037 21.8603 48.8983 21.3501 49.1746L18.4072 50.7531Z" fill="#E94ED0"/>
<path d="M32.9649 51.2658C32.494 51.6604 31.7093 51.7393 31.1599 51.4631L26.7652 49.2138C26.2551 48.9375 26.2943 48.6218 26.8436 48.5035L38.4976 46.0568C39.0862 45.9384 39.1646 46.1358 38.733 46.5304L32.9649 51.2658Z" fill="#E94ED0"/>
<path d="M20.8007 51.542C20.2121 51.5026 20.1729 51.2658 20.683 50.9896L23.0373 49.7268C23.5474 49.4506 24.4107 49.4506 24.96 49.6873L28.3738 51.4237C28.8839 51.6999 28.8447 51.8972 28.2561 51.8577L20.8007 51.542Z" fill="#E94ED0"/>
<path d="M42.3035 45.9779C42.4997 46.2147 42.2251 46.6093 41.715 46.8856L38.6151 48.543C38.105 48.8192 38.0265 48.7403 38.4974 48.3851L41.0871 46.2542C41.558 45.8595 42.1073 45.7412 42.3035 45.9779Z" fill="#E94ED0"/>
<path d="M34.4952 32.1664C33.9459 32.4032 33.632 32.0875 33.7497 31.5351L37.0065 18.71C37.1635 18.118 37.6343 17.9996 38.066 18.3943L46.4631 26.2866C46.8947 26.6812 46.8162 27.1943 46.2669 27.431L34.4952 32.1664Z" fill="#E94ED0"/>
<path d="M47.3262 24.3922C47.444 24.9842 47.1693 25.142 46.7376 24.7079L38.7329 17.2102C38.3013 16.8156 38.3013 16.1447 38.7722 15.7501L43.9909 11.212C44.4226 10.8174 44.8934 10.9752 45.0111 11.5672L47.3262 24.3922Z" fill="#E94ED0"/>
<path d="M42.186 42.3872C41.9898 42.9397 41.4797 43.0186 41.1265 42.5845L34.3382 34.7316C33.9458 34.2975 34.1028 33.7451 34.6521 33.5083L46.3845 28.8123C46.9339 28.5756 47.2085 28.8518 47.0124 29.4437L42.186 42.3872Z" fill="#E94ED0"/>
<path d="M51.5641 20.2884C51.878 20.8014 51.878 21.5906 51.4856 22.0641L49.4452 24.787C49.092 25.2605 48.6996 25.1816 48.6212 24.5897L46.62 13.3825C46.5023 12.7906 46.6985 12.7117 47.0124 13.2247L51.5641 20.2884Z" fill="#E94ED0"/>
<path d="M50.3477 34.8894C50.5439 35.4418 50.3477 36.2311 49.8768 36.6257L44.3442 41.6768C43.9125 42.0714 43.7163 41.953 43.9125 41.4006L48.0718 30.1934C48.268 29.6409 48.582 29.6409 48.7781 30.1934L50.3477 34.8894Z" fill="#E94ED0"/>
<path d="M51.1717 32.0086C51.0933 32.6005 50.8971 32.64 50.7401 32.0481L49.5237 28.3781C49.3275 27.8256 49.4845 26.9575 49.8376 26.4839L51.4464 24.353C51.7995 23.8795 52.035 23.9584 51.9957 24.5503L51.1717 32.0086Z" fill="#E94ED0"/>
<path d="M44.2657 44.6757C43.9125 45.1492 43.4809 45.3465 43.2847 45.1098C43.0885 44.873 43.2847 44.36 43.7164 43.9654L46.1884 41.6766C46.62 41.282 46.6985 41.3214 46.3454 41.8344L44.2657 44.6757Z" fill="#E94ED0"/>
<path d="M35.2408 15.0395C35.594 15.5131 35.3586 15.9866 34.77 16.0261L21.7034 17.3678C21.1149 17.4467 20.8794 17.0521 21.1933 16.5391L27.55 5.52924C27.8639 5.01623 28.374 5.01623 28.688 5.48978L35.2408 15.0395Z" fill="#E94ED0"/>
<path d="M37.9088 14.8035C37.4772 15.1981 36.8101 15.1192 36.4962 14.6062L30.2964 5.52997C29.9433 5.05643 30.1395 4.78019 30.6888 4.9775L42.9314 9.16045C43.4807 9.35776 43.5984 9.8313 43.1275 10.2259L37.9088 14.8035Z" fill="#E94ED0"/>
<path d="M32.5331 31.2196C32.3761 31.8115 31.9445 31.8904 31.5521 31.4563L21.3892 19.6178C20.9969 19.1837 21.1538 18.7496 21.7424 18.6707L35.0051 17.2895C35.5937 17.2106 35.9469 17.6447 35.7899 18.2366L32.5331 31.2196Z" fill="#E94ED0"/>
<path d="M19.8594 16.2239C19.5455 16.7369 18.9962 16.7764 18.6038 16.3423L11.8547 8.44997C11.4623 8.01589 11.6193 7.54235 12.2078 7.42396L25.706 4.58271C26.2946 4.46433 26.53 4.78002 26.2161 5.29303L19.8594 16.2239Z" fill="#E94ED0"/>
<path d="M30.6887 3.63571C30.1394 3.4384 30.1002 3.04379 30.6103 2.76755L33.5924 1.14962C34.1025 0.873387 34.8873 0.95231 35.3582 1.34693L41.6364 6.91104C42.068 7.30566 41.9895 7.46351 41.4402 7.2662L30.6887 3.63571Z" fill="#E94ED0"/>
<path d="M13.463 5.84519C12.8744 5.96358 12.7959 5.76627 13.2275 5.37165L19.0349 0.636235C19.5057 0.241617 20.2905 0.162693 20.8399 0.438926L25.2346 2.68825C25.7447 2.96448 25.7055 3.28018 25.1561 3.39856L13.463 5.84519Z" fill="#E94ED0"/>
<path d="M29.0017 2.1754C28.4916 2.45164 27.6283 2.45164 27.079 2.21487L23.6652 0.478545C23.1551 0.162851 23.1943 -0.0344583 23.7829 0.00500347L31.199 0.36016C31.7876 0.399622 31.8661 0.636393 31.3168 0.912625L29.0017 2.1754Z" fill="#E94ED0"/>
<path d="M10.8736 5.64801C10.4027 6.04263 9.89263 6.16101 9.69644 5.92424C9.50024 5.68747 9.77492 5.29285 10.285 5.01662L13.3849 3.35922C13.895 3.08299 13.9735 3.16191 13.5026 3.51707L10.8736 5.64801Z" fill="#E94ED0"/>
<path d="M6.90997 43.3345C7.1454 43.1372 7.65551 43.3345 8.0479 43.7686L10.3238 46.2547C10.7161 46.6887 10.6377 46.7677 10.1668 46.4125L7.3416 44.321C6.90997 43.9659 6.71378 43.5318 6.90997 43.3345Z" fill="#E94ED0"/>
<path d="M45.9136 9.55471C46.1491 9.3574 46.5415 9.63363 46.8161 10.1466L48.4642 13.2641C48.7388 13.7771 48.6604 13.8561 48.3072 13.3825L46.1883 10.778C45.7959 10.3045 45.6782 9.75202 45.9136 9.55471Z" fill="#E94ED0"/>
<path d="M44.6189 7.58174C45.0898 7.9369 45.286 8.37098 45.0505 8.56829C44.8151 8.7656 44.305 8.56829 43.9126 8.13421L41.6368 5.64811C41.2444 5.21404 41.2836 5.13511 41.7937 5.49027L44.6189 7.58174Z" fill="#E94ED0"/>
<path d="M5.81175 41.1637C6.20414 41.6372 6.32185 42.1503 6.08642 42.3476C5.85099 42.5449 5.4586 42.2686 5.18393 41.7556L3.5359 38.6382C3.26122 38.1252 3.3397 38.0462 3.69285 38.5198L5.81175 41.1637Z" fill="#E94ED0"/>
</svg>
