<svg width="153" height="51" viewBox="0 0 153 51" fill="none" xmlns="http://www.w3.org/2000/svg">
<g clip-path="url(#clip0_259_1241)">
<path d="M140.128 -0.000323349H12.1376C11.671 -0.000323349 11.2101 -0.000323349 10.7448 0.00221407C10.3553 0.0047515 9.96885 0.0121227 9.5756 0.0183267C8.72129 0.0283518 7.86898 0.1033 7.02609 0.242521C6.18439 0.384772 5.36905 0.652956 4.60766 1.038C3.84719 1.42631 3.15233 1.93087 2.54829 2.53338C1.94108 3.1342 1.43492 3.82867 1.04927 4.59008C0.662566 5.34997 0.394422 6.16427 0.254102 7.00484C0.112449 7.84436 0.0362234 8.69355 0.0261109 9.5448C0.0143042 9.93379 0.0130574 10.3241 0.00683594 10.7131V40.0384C0.0130574 40.4324 0.0143042 40.814 0.0261109 41.2081C0.0362265 42.0593 0.112452 42.9084 0.254102 43.7479C0.394034 44.589 0.662194 45.4037 1.04927 46.1639C1.43474 46.9229 1.94097 47.6145 2.54829 48.212C3.15004 48.8172 3.84535 49.3221 4.60766 49.7074C5.36904 50.0935 6.1843 50.3633 7.02609 50.5077C7.86913 50.6458 8.72134 50.7208 9.5756 50.732C9.96885 50.7407 10.3553 50.7456 10.7448 50.7456C11.2101 50.7481 11.671 50.7481 12.1376 50.7481H140.128C140.586 50.7481 141.05 50.7481 141.507 50.7456C141.895 50.7456 142.293 50.7407 142.68 50.732C143.533 50.7214 144.384 50.6464 145.225 50.5077C146.069 50.3623 146.888 50.0925 147.653 49.7074C148.414 49.3219 149.109 48.817 149.71 48.212C150.316 47.6122 150.823 46.921 151.214 46.1639C151.598 45.4032 151.863 44.5885 152.001 43.7479C152.143 42.9083 152.222 42.0593 152.237 41.2081C152.242 40.814 152.242 40.4324 152.242 40.0384C152.252 39.5775 152.252 39.1191 152.252 38.6507V12.0983C152.252 11.6337 152.252 11.1728 152.242 10.7131C152.242 10.3241 152.242 9.93379 152.237 9.54475C152.222 8.69343 152.143 7.84442 152.001 7.00479C151.863 6.1647 151.597 5.35047 151.214 4.59003C150.428 3.06386 149.183 1.82158 147.653 1.03789C146.888 0.653783 146.069 0.38567 145.225 0.242407C144.384 0.102573 143.533 0.0275982 142.68 0.0181491C142.293 0.0119578 141.895 0.00452313 141.507 0.00204914C141.05 -0.000488281 140.586 -0.000488281 140.128 -0.000488281V-0.000323349Z" fill="black"/>
<path d="M10.7509 49.6383C10.3632 49.6383 9.98495 49.6334 9.60035 49.6248C8.80363 49.6144 8.00877 49.5452 7.22229 49.4178C6.48894 49.2919 5.77852 49.0576 5.11447 48.7227C4.4565 48.3906 3.85638 47.9551 3.3371 47.4329C2.81031 46.9169 2.37172 46.3184 2.03874 45.6612C1.70208 44.9997 1.46909 44.2906 1.34789 43.5587C1.21701 42.7722 1.14619 41.977 1.13606 41.1798C1.12799 40.9123 1.11743 40.0214 1.11743 40.0214V10.7134C1.11743 10.7134 1.12868 9.83622 1.13612 9.5785C1.14582 8.78262 1.21623 7.98862 1.34672 7.20339C1.46814 6.46946 1.70131 5.75835 2.03815 5.09466C2.36991 4.43787 2.80606 3.83893 3.32969 3.32107C3.85272 2.79828 4.45476 2.36055 5.11385 2.02385C5.77638 1.69003 6.48545 1.4574 7.21732 1.33374C8.00638 1.20505 8.804 1.13548 9.60348 1.1256L10.7515 1.11011H141.501L142.663 1.12622C143.455 1.13561 144.245 1.20456 145.027 1.3325C145.767 1.4577 146.483 1.69196 147.153 2.02756C148.473 2.70613 149.548 3.77968 150.226 5.09776C150.557 5.75686 150.787 6.46218 150.907 7.18976C151.039 7.98144 151.113 8.78168 151.128 9.58409C151.131 9.94339 151.131 10.3293 151.131 10.7134C151.141 11.1892 151.141 11.642 151.141 12.0986V38.651C151.141 39.112 151.141 39.5617 151.131 40.0152C151.131 40.4277 151.131 40.8057 151.126 41.1947C151.112 41.9828 151.039 42.7687 150.909 43.5462C150.79 44.2834 150.559 44.998 150.222 45.665C149.887 46.3151 149.451 46.9084 148.93 47.423C148.41 47.948 147.809 48.386 147.149 48.7203C146.481 49.0578 145.766 49.2929 145.027 49.4178C144.241 49.5459 143.446 49.6151 142.649 49.6248C142.276 49.6334 141.886 49.6383 141.507 49.6383L140.128 49.6409L10.7509 49.6383Z" fill="white"/>
<path d="M31.8096 25.2338C31.8238 24.1326 32.1172 23.0529 32.6623 22.0951C33.2074 21.1373 33.9866 20.3326 34.9274 19.7558C34.3297 18.9047 33.5413 18.2042 32.6247 17.71C31.708 17.2159 30.6885 16.9417 29.647 16.9092C27.4253 16.6766 25.2715 18.2349 24.1393 18.2349C22.9853 18.2349 21.2422 16.9322 19.3651 16.9708C18.151 17.0099 16.9678 17.3619 15.9307 17.9927C14.8936 18.6234 14.038 19.5112 13.4473 20.5697C10.8886 24.9874 12.7972 31.4799 15.2482 35.0508C16.4746 36.7994 17.9078 38.7526 19.7831 38.6833C21.6182 38.6074 22.3036 37.5164 24.5188 37.5164C26.7134 37.5164 27.3564 38.6833 29.2698 38.6393C31.239 38.6074 32.4796 36.8829 33.6629 35.1178C34.544 33.8719 35.2221 32.4949 35.6719 31.0378C34.5278 30.5552 33.5515 29.7476 32.8647 28.7155C32.1779 27.6833 31.8109 26.4725 31.8096 25.2338Z" fill="black"/>
<path d="M28.1957 14.5606C29.2694 13.2753 29.7983 11.6233 29.6702 9.95532C28.0299 10.1271 26.5147 10.9089 25.4265 12.1449C24.8945 12.7487 24.487 13.4512 24.2273 14.2121C23.9677 14.9731 23.861 15.7776 23.9133 16.5797C24.7338 16.5881 25.5455 16.4108 26.2873 16.061C27.029 15.7113 27.6815 15.1983 28.1957 14.5606Z" fill="black"/>
<path d="M53.8263 34.432H47.8041L46.3579 38.6904H43.8071L49.5112 22.9355H52.1614L57.8655 38.6904H55.2713L53.8263 34.432ZM48.4278 32.467H53.2014L50.8482 25.556H50.7823L48.4278 32.467Z" fill="black"/>
<path d="M70.1842 32.948C70.1842 36.5175 68.2684 38.8108 65.3772 38.8108C64.6448 38.849 63.9164 38.6808 63.2755 38.3254C62.6345 37.97 62.1069 37.4417 61.753 36.8012H61.6983V42.4906H59.3339V27.2041H61.6225V29.1146H61.6659C62.0361 28.4771 62.5727 27.9516 63.2185 27.594C63.8644 27.2365 64.5953 27.0602 65.3337 27.0839C68.2572 27.0839 70.1842 29.3884 70.1842 32.948ZM67.754 32.948C67.754 30.6224 66.5488 29.0935 64.71 29.0935C62.9035 29.0935 61.6883 30.6546 61.6883 32.948C61.6883 35.2624 62.9035 36.8124 64.71 36.8124C66.5488 36.8124 67.754 35.2946 67.754 32.948H67.754Z" fill="black"/>
<path d="M82.863 32.948C82.863 36.5175 80.9465 38.8108 78.0553 38.8108C77.3229 38.849 76.5945 38.6808 75.9536 38.3254C75.3126 37.97 74.785 37.4417 74.4311 36.8012H74.3764V42.4906H72.012V27.2041H74.3006V29.1146H74.344C74.7142 28.4771 75.2508 27.9516 75.8966 27.594C76.5425 27.2365 77.2734 27.0602 78.0118 27.0839C80.9353 27.0839 82.863 29.3884 82.863 32.948ZM80.4321 32.948C80.4321 30.6224 79.2269 29.0935 77.3881 29.0935C75.5816 29.0935 74.3665 30.6546 74.3665 32.948C74.3665 35.2624 75.5816 36.8124 77.3881 36.8124C79.2269 36.8124 80.4321 35.2946 80.4321 32.948Z" fill="black"/>
<path d="M91.2409 34.3007C91.4161 35.8631 92.9381 36.8889 95.018 36.8889C97.0109 36.8889 98.4447 35.863 98.4447 34.4543C98.4447 33.2314 97.5799 32.4992 95.5324 31.9974L93.4848 31.5055C90.5837 30.8067 89.2368 29.4538 89.2368 27.2583C89.2368 24.54 91.6124 22.6729 94.9844 22.6729C98.3242 22.6729 100.613 24.54 100.69 27.2583H98.303C98.1601 25.686 96.8568 24.737 94.9521 24.737C93.0474 24.737 91.7441 25.6972 91.7441 27.0948C91.7441 28.2086 92.5766 28.864 94.6129 29.3658L96.3536 29.792C99.5952 30.5564 100.941 31.8549 100.941 34.1594C100.941 37.1069 98.5875 38.953 94.8427 38.953C91.339 38.953 88.9734 37.1502 88.8206 34.3006L91.2409 34.3007Z" fill="black"/>
<path d="M106.046 24.4854V27.2037H108.236V29.0708H106.046V35.4032C106.046 36.387 106.484 36.8454 107.447 36.8454C107.707 36.8409 107.967 36.8226 108.225 36.7908V38.6468C107.792 38.7275 107.352 38.764 106.912 38.7558C104.58 38.7558 103.67 37.8824 103.67 35.6547V29.0708H101.995V27.2037H103.67V24.4854H106.046Z" fill="black"/>
<path d="M109.504 32.9479C109.504 29.3338 111.638 27.0627 114.967 27.0627C118.307 27.0627 120.431 29.3337 120.431 32.9479C120.431 36.5719 118.318 38.833 114.967 38.833C111.617 38.833 109.504 36.5719 109.504 32.9479ZM118.022 32.9479C118.022 30.4687 116.883 29.0055 114.967 29.0055C113.051 29.0055 111.912 30.4798 111.912 32.9479C111.912 35.437 113.051 36.8891 114.967 36.8891C116.883 36.8891 118.022 35.437 118.022 32.9479H118.022Z" fill="black"/>
<path d="M122.38 27.204H124.635V29.1591H124.69C124.843 28.5485 125.201 28.0088 125.706 27.6309C126.211 27.253 126.83 27.0598 127.461 27.0838C127.733 27.0828 128.005 27.1123 128.271 27.1718V29.3771C127.927 29.2723 127.568 29.2242 127.209 29.2347C126.865 29.2208 126.523 29.2812 126.205 29.4117C125.887 29.5422 125.601 29.7398 125.367 29.9909C125.133 30.2419 124.956 30.5405 124.849 30.8662C124.741 31.1918 124.706 31.5368 124.745 31.8774V38.6905H122.38L122.38 27.204Z" fill="black"/>
<path d="M139.172 35.3168C138.854 37.402 136.818 38.833 134.212 38.833C130.862 38.833 128.782 36.5942 128.782 33.0024C128.782 29.3995 130.873 27.0627 134.113 27.0627C137.3 27.0627 139.304 29.2458 139.304 32.7286V33.5364H131.168V33.6789C131.131 34.1016 131.184 34.5275 131.324 34.9282C131.464 35.3289 131.688 35.6953 131.982 36.003C132.275 36.3107 132.63 36.5527 133.024 36.713C133.418 36.8732 133.842 36.948 134.267 36.9324C134.826 36.9846 135.387 36.8556 135.866 36.5645C136.345 36.2734 136.717 35.8358 136.927 35.3168L139.172 35.3168ZM131.18 31.8886H136.938C136.96 31.5085 136.902 31.1281 136.769 30.7713C136.636 30.4145 136.43 30.0891 136.165 29.8153C135.899 29.5416 135.58 29.3255 135.227 29.1806C134.874 29.0356 134.495 28.9651 134.113 28.9732C133.728 28.971 133.346 29.0447 132.99 29.1903C132.634 29.3359 132.31 29.5504 132.037 29.8214C131.765 30.0924 131.548 30.4147 131.401 30.7695C131.254 31.1243 131.179 31.5046 131.18 31.8886V31.8886Z" fill="black"/>
<path d="M48.132 11.0769C48.6277 11.0415 49.1251 11.1162 49.5883 11.2956C50.0516 11.475 50.4691 11.7548 50.8109 12.1146C51.1526 12.4744 51.4099 12.9054 51.5644 13.3764C51.7188 13.8475 51.7665 14.3468 51.704 14.8385C51.704 17.257 50.3933 18.6472 48.132 18.6472H45.3899V11.0769H48.132ZM46.569 17.5766H48.0003C48.3545 17.5977 48.709 17.5398 49.0379 17.407C49.3668 17.2743 49.6619 17.0701 49.9018 16.8093C50.1416 16.5485 50.32 16.2377 50.4242 15.8994C50.5283 15.5611 50.5556 15.204 50.5038 14.8539C50.5518 14.5052 50.5218 14.1503 50.4161 13.8145C50.3103 13.4787 50.1314 13.1704 49.8922 12.9117C49.6529 12.6529 49.3592 12.4502 49.0321 12.318C48.705 12.1857 48.3527 12.1272 48.0003 12.1467H46.569V17.5766Z" fill="black"/>
<path d="M53.0361 15.7879C53.0001 15.4125 53.0431 15.0337 53.1625 14.6758C53.2819 14.318 53.475 13.9889 53.7294 13.7098C53.9838 13.4307 54.2938 13.2077 54.6397 13.0552C54.9856 12.9026 55.3596 12.8237 55.7378 12.8237C56.116 12.8237 56.4901 12.9026 56.8359 13.0552C57.1818 13.2077 57.4919 13.4307 57.7462 13.7098C58.0006 13.9889 58.1937 14.318 58.3131 14.6758C58.4325 15.0337 58.4756 15.4125 58.4395 15.7879C58.4762 16.1637 58.4337 16.5431 58.3146 16.9015C58.1955 17.2599 58.0026 17.5896 57.7481 17.8692C57.4937 18.1489 57.1834 18.3723 56.8372 18.5253C56.4909 18.6782 56.1165 18.7572 55.7378 18.7572C55.3592 18.7572 54.9847 18.6782 54.6385 18.5253C54.2923 18.3723 53.982 18.1489 53.7275 17.8692C53.4731 17.5896 53.2801 17.2599 53.161 16.9015C53.042 16.5431 52.9994 16.1637 53.0361 15.7879ZM57.2766 15.7879C57.2766 14.5496 56.7187 13.8254 55.7397 13.8254C54.7569 13.8254 54.204 14.5496 54.204 15.7879C54.204 17.0362 54.7569 17.7548 55.7397 17.7548C56.7187 17.7548 57.2766 17.0312 57.2766 15.7879H57.2766Z" fill="black"/>
<path d="M65.6219 18.647H64.4491L63.265 14.4394H63.1756L61.9965 18.647H60.8348L59.2556 12.9341H60.4024L61.4287 17.2934H61.5132L62.691 12.9341H63.7757L64.9535 17.2934H65.043L66.0643 12.9341H67.1949L65.6219 18.647Z" fill="black"/>
<path d="M68.5232 12.934H69.6116V13.8416H69.6961C69.8394 13.5156 70.0811 13.2424 70.3876 13.0599C70.694 12.8775 71.0499 12.7949 71.4057 12.8237C71.6844 12.8028 71.9643 12.8448 72.2246 12.9464C72.485 13.048 72.719 13.2067 72.9094 13.4108C73.0999 13.6148 73.2418 13.859 73.3248 14.1252C73.4077 14.3914 73.4296 14.6728 73.3886 14.9486V18.6469H72.258V15.2317C72.258 14.3136 71.8579 13.8571 71.0218 13.8571C70.8325 13.8483 70.6436 13.8804 70.4679 13.9512C70.2923 14.0221 70.1341 14.1299 70.0042 14.2674C69.8742 14.4049 69.7756 14.5688 69.7152 14.7479C69.6547 14.9269 69.6338 15.1169 69.6538 15.3048V18.6469H68.5232L68.5232 12.934Z" fill="black"/>
<path d="M75.1902 10.7039H76.3208V18.6469H75.1902V10.7039Z" fill="black"/>
<path d="M77.8925 15.788C77.8565 15.4126 77.8996 15.0338 78.019 14.6759C78.1385 14.318 78.3316 13.989 78.586 13.7099C78.8404 13.4308 79.1505 13.2078 79.4964 13.0552C79.8423 12.9026 80.2163 12.8237 80.5945 12.8237C80.9728 12.8237 81.3468 12.9026 81.6927 13.0552C82.0386 13.2078 82.3487 13.4308 82.6031 13.7099C82.8575 13.989 83.0506 14.318 83.17 14.6759C83.2895 15.0338 83.3326 15.4126 83.2966 15.788C83.3332 16.1639 83.2906 16.5432 83.1715 16.9016C83.0524 17.2601 82.8594 17.5897 82.6049 17.8693C82.3505 18.149 82.0401 18.3724 81.6939 18.5253C81.3477 18.6783 80.9732 18.7573 80.5945 18.7573C80.2159 18.7573 79.8414 18.6783 79.4952 18.5253C79.1489 18.3724 78.8386 18.149 78.5841 17.8693C78.3297 17.5897 78.1367 17.2601 78.0176 16.9016C77.8985 16.5432 77.8559 16.1639 77.8925 15.788ZM82.133 15.788C82.133 14.5497 81.5751 13.8255 80.5961 13.8255C79.6133 13.8255 79.0605 14.5497 79.0605 15.788C79.0605 17.0363 79.6133 17.7549 80.5961 17.7549C81.5751 17.7549 82.133 17.0313 82.133 15.788H82.133Z" fill="black"/>
<path d="M84.4869 17.0313C84.4869 16.0029 85.2548 15.4101 86.6177 15.3258L88.1696 15.2366V14.7435C88.1696 14.1401 87.7695 13.7994 86.9967 13.7994C86.3655 13.7994 85.9282 14.0305 85.8027 14.4344H84.7081C84.8236 13.4531 85.7493 12.8237 87.0489 12.8237C88.4852 12.8237 89.2952 13.5367 89.2952 14.7435V18.6469H88.2068V17.8441H88.1174C87.9358 18.132 87.6809 18.3668 87.3785 18.5244C87.0762 18.682 86.7374 18.7568 86.3966 18.741C86.1561 18.766 85.913 18.7404 85.683 18.6659C85.4531 18.5915 85.2413 18.4698 85.0614 18.3087C84.8814 18.1476 84.7374 17.9507 84.6384 17.7307C84.5395 17.5107 84.4879 17.2724 84.4869 17.0313ZM88.1696 16.5431V16.0655L86.7706 16.1547C85.9816 16.2074 85.6238 16.475 85.6238 16.9786C85.6238 17.4928 86.0711 17.792 86.6861 17.792C86.8663 17.8102 87.0484 17.7921 87.2214 17.7387C87.3944 17.6852 87.5549 17.5977 87.6933 17.4812C87.8317 17.3646 87.9452 17.2216 88.0271 17.0604C88.1089 16.8993 88.1573 16.7233 88.1696 16.5431Z" fill="black"/>
<path d="M90.781 15.788C90.781 13.9828 91.7116 12.8393 93.1591 12.8393C93.5171 12.8228 93.8724 12.9083 94.1835 13.0858C94.4947 13.2633 94.7487 13.5254 94.9159 13.8415H95.0004V10.7039H96.131V18.6469H95.0476V17.7443H94.9582C94.778 18.0583 94.5151 18.3172 94.198 18.4929C93.8809 18.6686 93.5216 18.7544 93.1591 18.7411C91.7017 18.7411 90.781 17.5975 90.781 15.788ZM91.949 15.788C91.949 16.9997 92.5217 17.7289 93.4797 17.7289C94.4326 17.7289 95.0215 16.9892 95.0215 15.793C95.0215 14.6023 94.4264 13.8521 93.4797 13.8521C92.5279 13.8521 91.9489 14.5862 91.9489 15.788H91.949Z" fill="black"/>
<path d="M100.809 15.7879C100.773 15.4125 100.816 15.0337 100.935 14.6758C101.055 14.318 101.248 13.9889 101.502 13.7098C101.757 13.4307 102.067 13.2077 102.413 13.0552C102.759 12.9026 103.133 12.8237 103.511 12.8237C103.889 12.8237 104.263 12.9026 104.609 13.0552C104.955 13.2077 105.265 13.4307 105.519 13.7098C105.774 13.9889 105.967 14.318 106.086 14.6758C106.205 15.0337 106.248 15.4125 106.212 15.7879C106.249 16.1637 106.207 16.5431 106.088 16.9015C105.968 17.2599 105.776 17.5896 105.521 17.8692C105.267 18.1489 104.956 18.3723 104.61 18.5253C104.264 18.6782 103.889 18.7572 103.511 18.7572C103.132 18.7572 102.758 18.6782 102.411 18.5253C102.065 18.3723 101.755 18.1489 101.5 17.8692C101.246 17.5896 101.053 17.2599 100.934 16.9015C100.815 16.5431 100.772 16.1637 100.809 15.7879ZM105.05 15.7879C105.05 14.5496 104.492 13.8254 103.513 13.8254C102.53 13.8254 101.977 14.5496 101.977 15.7879C101.977 17.0362 102.53 17.7548 103.513 17.7548C104.492 17.7548 105.05 17.0312 105.05 15.7879Z" fill="black"/>
<path d="M107.729 12.934H108.818V13.8416H108.902C109.046 13.5156 109.287 13.2424 109.594 13.0599C109.9 12.8775 110.256 12.7949 110.612 12.8237C110.891 12.8028 111.171 12.8448 111.431 12.9464C111.691 13.048 111.925 13.2067 112.116 13.4108C112.306 13.6148 112.448 13.859 112.531 14.1252C112.614 14.3914 112.636 14.6728 112.595 14.9486V18.6469H111.464V15.2317C111.464 14.3136 111.064 13.8571 110.228 13.8571C110.039 13.8483 109.85 13.8804 109.674 13.9512C109.499 14.0221 109.34 14.1299 109.21 14.2674C109.081 14.4049 108.982 14.5688 108.921 14.7479C108.861 14.9269 108.84 15.1169 108.86 15.3048V18.6469H107.729V12.934Z" fill="black"/>
<path d="M118.983 11.5117V12.9601H120.225V13.9098H118.983V16.8474C118.983 17.4458 119.231 17.7078 119.794 17.7078C119.938 17.7074 120.082 17.6987 120.225 17.6818V18.621C120.022 18.6572 119.816 18.6764 119.61 18.6786C118.352 18.6786 117.852 18.2375 117.852 17.136V13.9097H116.942V12.96H117.852V11.5117H118.983Z" fill="black"/>
<path d="M121.769 10.7039H122.89V13.8521H122.979C123.13 13.5231 123.378 13.2483 123.691 13.0652C124.003 12.882 124.365 12.7995 124.726 12.8287C125.003 12.8137 125.281 12.8598 125.538 12.9639C125.795 13.068 126.027 13.2274 126.215 13.4309C126.403 13.6343 126.545 13.8767 126.628 14.1407C126.712 14.4048 126.736 14.684 126.699 14.9585V18.6469H125.567V15.2366C125.567 14.3241 125.141 13.862 124.342 13.862C124.148 13.8461 123.953 13.8727 123.77 13.9401C123.587 14.0074 123.421 14.1137 123.283 14.2517C123.146 14.3896 123.04 14.5559 122.974 14.7387C122.908 14.9216 122.883 15.1167 122.9 15.3104V18.6469H121.769L121.769 10.7039Z" fill="black"/>
<path d="M133.292 17.1045C133.138 17.6266 132.805 18.0782 132.351 18.3804C131.898 18.6825 131.352 18.8159 130.809 18.7573C130.432 18.7672 130.057 18.6951 129.71 18.546C129.363 18.3969 129.053 18.1743 128.801 17.8938C128.55 17.6132 128.362 17.2814 128.252 16.9213C128.142 16.5612 128.111 16.1815 128.163 15.8085C128.112 15.4344 128.143 15.0539 128.253 14.6927C128.363 14.3315 128.55 13.9982 128.801 13.7151C129.051 13.4321 129.36 13.2061 129.705 13.0523C130.051 12.8985 130.426 12.8206 130.804 12.8238C132.398 12.8238 133.36 13.9098 133.36 15.7038V16.0972H129.314V16.1604C129.297 16.37 129.323 16.5811 129.392 16.7799C129.461 16.9788 129.571 17.1611 129.714 17.3152C129.858 17.4693 130.032 17.5918 130.226 17.6747C130.42 17.7577 130.629 17.7994 130.84 17.797C131.111 17.8294 131.385 17.7808 131.627 17.6575C131.87 17.5342 132.071 17.3417 132.203 17.1044L133.292 17.1045ZM129.314 15.2634H132.208C132.222 15.0716 132.196 14.879 132.131 14.698C132.067 14.5169 131.964 14.3514 131.832 14.212C131.699 14.0726 131.538 13.9625 131.36 13.8887C131.182 13.8149 130.991 13.779 130.798 13.7834C130.602 13.781 130.408 13.8176 130.227 13.8911C130.046 13.9646 129.882 14.0735 129.743 14.2115C129.605 14.3494 129.496 14.5135 129.422 14.6942C129.349 14.8748 129.312 15.0684 129.314 15.2634H129.314Z" fill="black"/>
</g>
<defs>
<clipPath id="clip0_259_1241">
<rect width="152.245" height="50.7485" fill="white" transform="translate(0.00683594)"/>
</clipPath>
</defs>
</svg>
