<svg width="172" height="51" viewBox="0 0 172 51" fill="none" xmlns="http://www.w3.org/2000/svg">
<g clip-path="url(#clip0_259_1240)">
<path d="M164.933 0H6.34356C2.84011 0 0 2.84011 0 6.34356V44.4049C0 47.9084 2.84011 50.7485 6.34356 50.7485H164.933C168.436 50.7485 171.276 47.9084 171.276 44.4049V6.34356C171.276 2.84011 168.436 0 164.933 0Z" fill="white"/>
<path d="M164.933 1.01497C166.346 1.01497 167.701 1.57637 168.7 2.57568C169.7 3.57498 170.261 4.93033 170.261 6.34356V44.4049C170.261 45.8181 169.7 47.1735 168.7 48.1728C167.701 49.1721 166.346 49.7335 164.933 49.7335H6.34356C4.93033 49.7335 3.57498 49.1721 2.57568 48.1728C1.57637 47.1735 1.01497 45.8181 1.01497 44.4049V6.34356C1.01497 4.93033 1.57637 3.57498 2.57568 2.57568C3.57498 1.57637 4.93033 1.01497 6.34356 1.01497H164.933ZM164.933 0H6.34356C4.66114 0 3.04763 0.668337 1.85799 1.85799C0.668337 3.04763 0 4.66114 0 6.34356V44.4049C0 46.0873 0.668337 47.7008 1.85799 48.8905C3.04763 50.0801 4.66114 50.7485 6.34356 50.7485H164.933C166.615 50.7485 168.228 50.0801 169.418 48.8905C170.608 47.7008 171.276 46.0873 171.276 44.4049V6.34356C171.276 4.66114 170.608 3.04763 169.418 1.85799C168.228 0.668337 166.615 0 164.933 0Z" fill="black"/>
<path d="M60.1623 12.9917C60.1831 13.4569 60.1095 13.9216 59.946 14.3577C59.7825 14.7938 59.5324 15.1923 59.2107 15.5291C58.8503 15.9012 58.4154 16.193 57.9344 16.3854C57.4534 16.5778 56.9372 16.6665 56.4196 16.6456C55.899 16.6572 55.3815 16.5618 54.8992 16.3654C54.417 16.169 53.9801 15.8757 53.6157 15.5037C52.8764 14.7475 52.4625 13.732 52.4625 12.6745C52.4625 11.617 52.8764 10.6015 53.6157 9.84527C54.1809 9.29298 54.8968 8.92005 55.6733 8.77332C56.4498 8.6266 57.2523 8.71263 57.9801 9.02061C58.4376 9.20867 58.8457 9.49953 59.1727 9.87065L58.5003 10.5431C58.2483 10.2396 57.9291 9.99896 57.5679 9.84039C57.2067 9.68182 56.8135 9.60965 56.4196 9.62959C55.9223 9.63303 55.4334 9.75823 54.9956 9.99424C54.5579 10.2302 54.1846 10.5699 53.9084 10.9835C53.6322 11.397 53.4616 11.872 53.4113 12.3668C53.3611 12.8615 53.4328 13.3611 53.6201 13.8217C53.8075 14.2824 54.1049 14.6902 54.4863 15.0094C54.8676 15.3286 55.3214 15.5495 55.8078 15.6529C56.2943 15.7562 56.7987 15.7388 57.2769 15.6023C57.7551 15.4657 58.1925 15.2141 58.551 14.8694C58.9385 14.4445 59.1633 13.8962 59.1854 13.3215H56.4196V12.4081H60.1115C60.1404 12.6014 60.1574 12.7963 60.1623 12.9917Z" fill="black" stroke="black" stroke-width="0.411304" stroke-miterlimit="10"/>
<path d="M65.9729 9.81971H62.5474V12.2303H65.6684V13.1437H62.5474V15.5543H65.9729V16.4931H61.5578V8.88086H65.9729V9.81971Z" fill="black" stroke="black" stroke-width="0.411304" stroke-miterlimit="10"/>
<path d="M70.1345 16.4931H69.1576V9.81971H67.0261V8.88086H72.3167V9.81971H70.1345V16.4931Z" fill="black" stroke="black" stroke-width="0.411304" stroke-miterlimit="10"/>
<path d="M76.0466 16.4931V8.88086H77.0235V16.4931H76.0466Z" fill="black" stroke="black" stroke-width="0.411304" stroke-miterlimit="10"/>
<path d="M81.3625 16.4931H80.3856V9.81971H78.2542V8.88086H83.4812V9.81971H81.3625V16.4931Z" fill="black" stroke="black" stroke-width="0.411304" stroke-miterlimit="10"/>
<path d="M93.3899 15.5035C93.0234 15.8702 92.5883 16.1611 92.1094 16.3596C91.6305 16.5581 91.1171 16.6603 90.5987 16.6603C90.0803 16.6603 89.5669 16.5581 89.088 16.3596C88.6091 16.1611 88.174 15.8702 87.8075 15.5035C87.0903 14.741 86.691 13.7337 86.691 12.6869C86.691 11.6402 87.0903 10.6328 87.8075 9.8704C88.1661 9.49334 88.5998 9.19574 89.0806 8.99686C89.5614 8.79799 90.0786 8.70226 90.5987 8.71587C91.1181 8.70766 91.6337 8.80585 92.1137 9.0044C92.5937 9.20296 93.028 9.49767 93.3899 9.8704C93.7547 10.2415 94.0414 10.6819 94.2332 11.1657C94.4249 11.6494 94.5178 12.1667 94.5063 12.6869C94.523 13.2078 94.4325 13.7266 94.2404 14.2111C94.0484 14.6956 93.7589 15.1355 93.3899 15.5035ZM88.5307 14.8691C88.801 15.143 89.123 15.3605 89.478 15.5089C89.833 15.6573 90.2139 15.7338 90.5987 15.7338C90.9835 15.7338 91.3645 15.6573 91.7195 15.5089C92.0745 15.3605 92.3964 15.143 92.6667 14.8691C93.2141 14.2743 93.518 13.4954 93.518 12.6869C93.518 11.8785 93.2141 11.0996 92.6667 10.5048C92.3964 10.2309 92.0745 10.0134 91.7195 9.86496C91.3645 9.71653 90.9835 9.6401 90.5987 9.6401C90.2139 9.6401 89.833 9.71653 89.478 9.86496C89.123 10.0134 88.801 10.2309 88.5307 10.5048C87.9833 11.0996 87.6794 11.8785 87.6794 12.6869C87.6794 13.4954 87.9833 14.2743 88.5307 14.8691Z" fill="black" stroke="black" stroke-width="0.411304" stroke-miterlimit="10"/>
<path d="M95.8892 16.4931V8.88086H97.0691L100.774 14.8057V13.334V8.88086H101.751V16.4931H100.736L96.8661 10.2891V11.7481V16.4931H95.8892Z" fill="black" stroke="black" stroke-width="0.411304" stroke-miterlimit="10"/>
<path d="M86.45 27.5943C85.3811 27.5968 84.3369 27.9162 83.4495 28.5122C82.5621 29.1082 81.8713 29.9539 81.4646 30.9424C81.0578 31.931 80.9534 33.0179 81.1644 34.0658C81.3754 35.1138 81.8924 36.0756 82.65 36.8297C83.4076 37.5837 84.3719 38.0962 85.4208 38.3023C86.4697 38.5084 87.5561 38.3988 88.5428 37.9874C89.5294 37.576 90.3718 36.8813 90.9636 35.9911C91.5554 35.1009 91.87 34.0553 91.8674 32.9863C91.8778 32.2732 91.7445 31.5653 91.4756 30.9048C91.2067 30.2443 90.8076 29.6446 90.3022 29.1415C89.7967 28.6384 89.1952 28.2421 88.5334 27.9763C87.8716 27.7105 87.1631 27.5806 86.45 27.5943ZM86.45 36.2596C85.7949 36.3054 85.141 36.1531 84.5736 35.8224C84.0061 35.4917 83.5513 34.9979 83.2681 34.4053C82.985 33.8127 82.8867 33.1486 82.986 32.4993C83.0854 31.8501 83.3777 31.2457 83.825 30.7648C84.2724 30.284 84.854 29.9488 85.4944 29.8028C86.1348 29.6569 86.8042 29.707 87.4158 29.9466C88.0273 30.1862 88.5526 30.6042 88.9234 31.1463C89.2942 31.6884 89.4934 32.3295 89.495 32.9863C89.5154 33.4025 89.4523 33.8185 89.3094 34.2099C89.1665 34.6013 88.9466 34.9601 88.6629 35.2651C88.3791 35.5702 88.0371 35.8154 87.657 35.9862C87.277 36.157 86.8666 36.2499 86.45 36.2596ZM74.6257 27.5943C73.5567 27.5968 72.5125 27.9162 71.6251 28.5122C70.7377 29.1082 70.047 29.9539 69.6402 30.9424C69.2335 31.931 69.129 33.0179 69.34 34.0658C69.551 35.1138 70.068 36.0756 70.8256 36.8297C71.5833 37.5837 72.5475 38.0962 73.5964 38.3023C74.6453 38.5084 75.7317 38.3988 76.7184 37.9874C77.705 37.576 78.5475 36.8813 79.1392 35.9911C79.731 35.1009 80.0456 34.0553 80.043 32.9863C80.0534 32.2732 79.9201 31.5653 79.6512 30.9048C79.3823 30.2443 78.9833 29.6446 78.4778 29.1415C77.9723 28.6384 77.3708 28.2421 76.709 27.9763C76.0472 27.7105 75.3387 27.5806 74.6257 27.5943ZM74.6257 36.2596C73.9705 36.3054 73.3166 36.1531 72.7492 35.8224C72.1817 35.4917 71.7269 34.9979 71.4437 34.4053C71.1606 33.8127 71.0623 33.1486 71.1617 32.4993C71.261 31.8501 71.5533 31.2457 72.0006 30.7648C72.448 30.284 73.0297 29.9488 73.67 29.8028C74.3104 29.6569 74.9798 29.707 75.5914 29.9466C76.2029 30.1862 76.7282 30.6042 77.099 31.1463C77.4698 31.6884 77.669 32.3295 77.6706 32.9863C77.691 33.4025 77.6279 33.8185 77.485 34.2099C77.3421 34.6013 77.1222 34.9601 76.8385 35.2651C76.5547 35.5702 76.2127 35.8154 75.8326 35.9862C75.4526 36.157 75.0422 36.2499 74.6257 36.2596ZM60.5683 29.2563V31.54H66.0492C65.9632 32.6156 65.5161 33.6306 64.7805 34.42C64.2307 34.9801 63.5694 35.4186 62.8395 35.7071C62.1095 35.9956 61.3271 36.1276 60.543 36.0947C58.9278 36.0947 57.3789 35.4531 56.2368 34.311C55.0947 33.1689 54.4531 31.62 54.4531 30.0048C54.4531 28.3897 55.0947 26.8408 56.2368 25.6987C57.3789 24.5566 58.9278 23.915 60.543 23.915C62.0913 23.892 63.5865 24.48 64.7043 25.5517L66.3156 23.9404C65.5594 23.1925 64.6616 22.603 63.6747 22.2065C62.6878 21.81 61.6317 21.6145 60.5683 21.6313C59.4404 21.5874 58.3153 21.7717 57.2603 22.173C56.2053 22.5744 55.2422 23.1846 54.4287 23.9671C53.6152 24.7495 52.968 25.6882 52.526 26.7267C52.0839 27.7653 51.856 28.8824 51.856 30.0112C51.856 31.1399 52.0839 32.2571 52.526 33.2956C52.968 34.3342 53.6152 35.2728 54.4287 36.0553C55.2422 36.8378 56.2053 37.448 57.2603 37.8493C58.3153 38.2507 59.4404 38.4349 60.5683 38.391C61.6536 38.4344 62.7358 38.2477 63.7438 37.8431C64.7518 37.4386 65.6628 36.8255 66.4171 36.0439C67.7494 34.5803 68.4593 32.6554 68.3963 30.6773C68.4008 30.2011 68.3626 29.7256 68.2821 29.2563H60.5683ZM118.054 31.0325C117.723 30.0591 117.104 29.2091 116.279 28.5951C115.455 27.9811 114.463 27.6321 113.436 27.5943C112.742 27.5929 112.055 27.7339 111.417 28.0086C110.78 28.2832 110.206 28.6856 109.73 29.191C109.254 29.6964 108.888 30.2939 108.652 30.9467C108.416 31.5995 108.317 32.2937 108.361 32.9863C108.35 34.1445 108.714 35.275 109.399 36.2092C110.083 37.1433 111.052 37.8309 112.16 38.1692C113.267 38.5075 114.455 38.4784 115.544 38.0862C116.634 37.694 117.568 36.9597 118.206 35.9932L116.366 34.7244C116.092 35.1815 115.703 35.559 115.238 35.8194C114.773 36.0798 114.248 36.214 113.715 36.2088C113.165 36.2315 112.621 36.0874 112.154 35.7953C111.688 35.5032 111.321 35.0768 111.101 34.5722L118.32 31.5907L118.054 31.0325ZM110.695 32.8341C110.669 32.44 110.723 32.0447 110.852 31.6714C110.98 31.2982 111.183 30.9544 111.446 30.6602C111.71 30.366 112.029 30.1273 112.386 29.9581C112.743 29.789 113.13 29.6927 113.524 29.675C113.933 29.65 114.34 29.7463 114.695 29.9516C115.049 30.157 115.335 30.4624 115.516 30.8295L110.695 32.8341ZM104.834 38.0612H107.206V22.2023H104.834V38.0612ZM100.951 28.7996H100.863C100.508 28.3959 100.071 28.0736 99.5803 27.8546C99.0898 27.6357 98.5578 27.5252 98.0207 27.5309C96.6342 27.5981 95.3268 28.1962 94.3693 29.2012C93.4118 30.2062 92.8778 31.5411 92.8778 32.9292C92.8778 34.3173 93.4118 35.6522 94.3693 36.6572C95.3268 37.6622 96.6342 38.2604 98.0207 38.3276C98.5586 38.3384 99.0922 38.2303 99.5835 38.0109C100.075 37.7916 100.512 37.4665 100.863 37.0589H100.951V37.8328C100.951 39.9008 99.8476 41.0046 98.0714 41.0046C97.4781 40.9915 96.902 40.8025 96.4163 40.4614C95.9307 40.1203 95.5573 39.6425 95.3437 39.0888L93.2884 39.9389C93.6684 40.8932 94.3291 41.7098 95.1831 42.2807C96.0371 42.8516 97.0443 43.1498 98.0714 43.136C100.85 43.136 103.146 41.4994 103.146 37.5156V27.9115H100.951V28.7996ZM98.2237 36.2596C97.3924 36.2078 96.6122 35.841 96.0419 35.234C95.4716 34.6271 95.1541 33.8255 95.1541 32.9927C95.1541 32.1598 95.4716 31.3582 96.0419 30.7513C96.6122 30.1443 97.3924 29.7776 98.2237 29.7257C98.63 29.7433 99.0286 29.8423 99.3958 30.0171C99.763 30.1918 100.091 30.4386 100.361 30.7428C100.631 31.047 100.837 31.4024 100.967 31.7878C101.096 32.1733 101.147 32.5808 101.116 32.9863C101.151 33.3932 101.103 33.8028 100.974 34.1905C100.846 34.5782 100.641 34.9358 100.37 35.2418C100.1 35.5478 99.7703 35.7957 99.4013 35.9707C99.0323 36.1456 98.6317 36.2439 98.2237 36.2596ZM129.168 22.2023H123.484V38.0612H125.856V32.0475H129.168C129.844 32.096 130.523 32.0048 131.162 31.7794C131.801 31.554 132.387 31.1994 132.884 30.7375C133.38 30.2757 133.776 29.7165 134.046 29.095C134.317 28.4734 134.456 27.8028 134.456 27.1249C134.456 26.447 134.317 25.7763 134.046 25.1548C133.776 24.5332 133.38 23.9741 132.884 23.5122C132.387 23.0504 131.801 22.6957 131.162 22.4703C130.523 22.2449 129.844 22.1537 129.168 22.2023ZM129.168 29.8145H125.856V24.4098H129.218C129.575 24.4098 129.928 24.48 130.257 24.6165C130.587 24.7529 130.886 24.9529 131.138 25.205C131.39 25.4572 131.59 25.7565 131.727 26.0859C131.863 26.4153 131.933 26.7683 131.933 27.1249C131.933 27.4814 131.863 27.8345 131.727 28.1639C131.59 28.4933 131.39 28.7926 131.138 29.0447C130.886 29.2968 130.587 29.4968 130.257 29.6332C129.928 29.7697 129.575 29.8399 129.218 29.8399L129.168 29.8145ZM143.808 27.5435C142.945 27.4903 142.084 27.6914 141.333 28.1221C140.582 28.5528 139.974 29.1941 139.584 29.9668L141.677 30.8422C141.889 30.4608 142.206 30.1489 142.591 29.944C142.976 29.7391 143.412 29.6501 143.847 29.6877C144.148 29.6525 144.453 29.6776 144.744 29.7617C145.036 29.8457 145.307 29.9869 145.543 30.177C145.78 30.3672 145.976 30.6024 146.12 30.8691C146.264 31.1358 146.354 31.4285 146.384 31.7303V31.8825C145.621 31.4815 144.772 31.2725 143.91 31.2736C141.652 31.2736 139.343 32.5423 139.343 34.8513C139.365 35.3421 139.486 35.8234 139.698 36.2666C139.91 36.7098 140.209 37.1059 140.577 37.4314C140.945 37.7568 141.374 38.005 141.84 38.1611C142.306 38.3173 142.798 38.3782 143.288 38.3403C143.884 38.3732 144.477 38.2472 145.008 37.9752C145.538 37.7032 145.987 37.295 146.308 36.7924H146.384V38.0612H148.668V31.9587C148.668 29.1802 146.562 27.5689 143.859 27.5689L143.808 27.5435ZM143.517 36.2342C142.743 36.2342 141.664 35.8409 141.664 34.8894C141.664 33.6207 143.009 33.1893 144.202 33.1893C144.955 33.1707 145.7 33.3547 146.359 33.7222C146.279 34.4112 145.952 35.0479 145.439 35.5145C144.926 35.981 144.261 36.2458 143.567 36.2596L143.517 36.2342ZM156.99 27.9115L154.275 34.7879H154.199L151.383 27.9115H148.845L153.07 37.5283L150.66 42.8696H153.134L159.629 27.9115H156.99ZM135.676 38.0612H138.036V22.2023H135.676V38.0612Z" fill="black"/>
<path d="M13.2454 9.56611C12.8273 10.0604 12.614 10.6958 12.6491 11.3423V39.4062C12.6059 40.0537 12.8202 40.6921 13.2454 41.1824L13.3342 41.2839L29.0535 25.5646V25.1839L13.3342 9.47729L13.2454 9.56611Z" fill="url(#paint0_linear_259_1240)"/>
<path d="M34.2552 30.8043L29.0535 25.5645V25.1839L34.2552 19.9441L34.3694 20.0202L40.5988 23.5472C42.375 24.5495 42.375 26.1988 40.5988 27.2138L34.3948 30.7408L34.2552 30.8043Z" fill="url(#paint1_linear_259_1240)"/>
<path d="M34.4075 30.728L29.0535 25.374L13.2454 41.1822C13.6039 41.5013 14.0627 41.6849 14.5424 41.7011C15.0221 41.7173 15.4923 41.5651 15.8716 41.271L34.4075 30.728Z" fill="url(#paint2_linear_259_1240)"/>
<path d="M34.4075 20.0204L15.8716 9.49013C15.4948 9.19188 15.025 9.03601 14.5446 9.04993C14.0643 9.06385 13.6042 9.24668 13.2454 9.56626L29.0535 25.3744L34.4075 20.0204Z" fill="url(#paint3_linear_259_1240)"/>
<path opacity="0.2" d="M34.2552 30.6138L15.8716 41.0806C15.5061 41.3565 15.0607 41.5057 14.6029 41.5057C14.145 41.5057 13.6996 41.3565 13.3342 41.0806L13.2454 41.1695L13.3342 41.2709C13.6996 41.5468 14.145 41.696 14.6029 41.696C15.0607 41.696 15.5061 41.5468 15.8716 41.2709L34.4075 30.728L34.2552 30.6138Z" fill="black"/>
<path opacity="0.12" d="M13.2453 41.0049C12.8378 40.5017 12.6381 39.8617 12.6871 39.2161V39.4064C12.6439 40.0539 12.8582 40.6923 13.2834 41.1826L13.3722 41.0938L13.2453 41.0049Z" fill="black"/>
<path opacity="0.12" d="M40.5987 27.0233L34.2552 30.6138L34.3694 30.728L40.5987 27.201C40.9665 27.0455 41.2854 26.7937 41.5221 26.4722C41.7588 26.1507 41.9044 25.7713 41.9436 25.374C41.8643 25.7351 41.7012 26.0724 41.4676 26.3589C41.234 26.6454 40.9364 26.873 40.5987 27.0233Z" fill="black"/>
<path opacity="0.25" d="M15.8716 9.66751L40.5988 23.7248C40.9364 23.8752 41.2341 24.1028 41.4677 24.3893C41.7013 24.6758 41.8643 25.0131 41.9436 25.3742C41.9044 24.9769 41.7588 24.5975 41.5221 24.276C41.2855 23.9544 40.9665 23.7027 40.5988 23.5472L15.8716 9.48989C14.1081 8.47492 12.649 9.31227 12.649 11.3422V11.5325C12.6871 9.50257 14.1081 8.66522 15.8716 9.66751Z" fill="white"/>
</g>
<defs>
<linearGradient id="paint0_linear_259_1240" x1="27.6579" y1="11.0505" x2="6.36895" y2="32.3395" gradientUnits="userSpaceOnUse">
<stop stop-color="#00A0FF"/>
<stop offset="0.01" stop-color="#00A1FF"/>
<stop offset="0.26" stop-color="#00BEFF"/>
<stop offset="0.51" stop-color="#00D2FF"/>
<stop offset="0.76" stop-color="#00DFFF"/>
<stop offset="1" stop-color="#00E3FF"/>
</linearGradient>
<linearGradient id="paint1_linear_259_1240" x1="42.9205" y1="25.3742" x2="12.2304" y2="25.3742" gradientUnits="userSpaceOnUse">
<stop stop-color="#FFE000"/>
<stop offset="0.41" stop-color="#FFBD00"/>
<stop offset="0.78" stop-color="#FFA500"/>
<stop offset="1" stop-color="#FF9C00"/>
</linearGradient>
<linearGradient id="paint2_linear_259_1240" x1="31.5021" y1="28.2921" x2="2.62625" y2="57.1552" gradientUnits="userSpaceOnUse">
<stop stop-color="#FF3A44"/>
<stop offset="1" stop-color="#C31162"/>
</linearGradient>
<linearGradient id="paint3_linear_259_1240" x1="9.26161" y1="0.228538" x2="22.1517" y2="13.1186" gradientUnits="userSpaceOnUse">
<stop stop-color="#32A071"/>
<stop offset="0.07" stop-color="#2DA771"/>
<stop offset="0.48" stop-color="#15CF74"/>
<stop offset="0.8" stop-color="#06E775"/>
<stop offset="1" stop-color="#00F076"/>
</linearGradient>
<clipPath id="clip0_259_1240">
<rect width="171.276" height="50.7485" fill="white"/>
</clipPath>
</defs>
</svg>
