<svg width="81" height="19" viewBox="0 0 81 19" fill="none" xmlns="http://www.w3.org/2000/svg">
<path d="M5.40729 12.1524C5.35329 12.3631 5.18169 12.4142 5.02569 12.2657L1.97644 9.37808C1.81924 9.2295 1.85404 9.04195 2.05325 8.96157L6.33011 7.22611C6.52931 7.14573 6.64811 7.25168 6.59531 7.46237L5.40729 12.1524Z" fill="white"/>
<path d="M2.88858 14.8966C2.72658 15.039 2.56217 14.9794 2.52377 14.765L1.68856 10.0726C1.65016 9.85822 1.74736 9.80464 1.90456 9.95322L4.80621 12.7007C4.96341 12.8493 4.95861 13.0868 4.79541 13.2293L2.88858 14.8953V14.8966Z" fill="white"/>
<path d="M6.38781 6.29208C6.52821 6.45649 6.47901 6.65866 6.27981 6.73904L2.02694 8.46476C1.82774 8.54514 1.72574 8.44406 1.80134 8.24067L3.54857 3.47758C3.62297 3.27298 3.79937 3.24131 3.93857 3.40694L6.38781 6.2933V6.29208Z" fill="white"/>
<path d="M1.93328 14.0982C1.97168 14.3126 1.90688 14.3381 1.79048 14.1555L0.140456 11.5711C0.0240541 11.3885 0.0336542 11.0962 0.162056 10.922L0.898867 9.92093C1.02727 9.74678 1.16287 9.77844 1.20127 9.99279L1.93208 14.0994L1.93328 14.0982Z" fill="white"/>
<path d="M1.41368 7.94739C1.33927 8.15078 1.22167 8.14956 1.15447 7.94252L0.591663 6.22654C0.523262 6.01951 0.598863 5.73087 0.757266 5.58473L2.7661 3.73722C2.9245 3.59107 2.9941 3.63857 2.9185 3.84195L1.41368 7.94496V7.94739Z" fill="white"/>
<path d="M0.883146 8.60997C0.951547 8.81701 0.901146 9.12757 0.772744 9.30294L0.195536 10.0872C0.0671337 10.2614 -0.0192676 10.2273 0.00233271 10.0105L0.278337 7.28737C0.299937 7.07058 0.374338 7.06206 0.441539 7.2691L0.881946 8.60997H0.883146Z" fill="white"/>
<path d="M3.14982 2.47625C3.22062 2.56028 3.14982 2.74905 2.99022 2.89519L2.0866 3.727C1.927 3.87314 1.9018 3.85 2.0302 3.67463L2.78742 2.64066C2.91582 2.46529 3.07902 2.39221 3.14982 2.47625Z" fill="white"/>
<path d="M8.85104 16.9708C8.74304 17.1583 8.55463 17.1656 8.43343 16.9866L6.0718 13.4986C5.9506 13.3196 6.025 13.154 6.2386 13.132L10.9847 12.6351C11.1983 12.6132 11.2847 12.7484 11.1755 12.936L8.85104 16.9708Z" fill="white"/>
<path d="M7.86144 16.974C7.98264 17.153 7.91664 17.2431 7.71263 17.1725L3.26417 15.6379C3.06136 15.5673 3.02776 15.3944 3.19096 15.2519L5.09779 13.5858C5.2598 13.4433 5.4926 13.4738 5.6138 13.654L7.86144 16.974Z" fill="white"/>
<path d="M11.0835 11.8237C11.2239 11.9881 11.1639 12.1416 10.9503 12.1647L6.13461 12.6689C5.92101 12.6908 5.7902 12.5374 5.8442 12.3267L7.04902 7.56723C7.10182 7.35654 7.26023 7.31879 7.40063 7.4832L11.0835 11.8237Z" fill="white"/>
<path d="M14.5445 15.9014C14.6849 16.0658 14.6273 16.2375 14.4173 16.2826L9.51639 17.33C9.30638 17.375 9.22358 17.2581 9.33158 17.0694L11.6428 13.0565C11.7508 12.8689 11.9536 12.8494 12.094 13.0151L14.5445 15.9014Z" fill="white"/>
<path d="M6.66012 18.5792C6.47172 18.6815 6.18491 18.6486 6.02411 18.5049L3.75008 16.4662C3.58927 16.3225 3.62407 16.2616 3.82688 16.3322L7.71974 17.6743C7.92254 17.7449 7.93454 17.8862 7.74494 17.9885L6.66012 18.5792Z" fill="white"/>
<path d="M11.9475 18.7726C11.7819 18.9102 11.4891 18.9431 11.2983 18.8433L9.7107 18.0236C9.5199 17.925 9.5343 17.8081 9.7443 17.763L13.966 16.8606C14.176 16.8155 14.212 16.8922 14.0464 17.0299L11.9487 18.7714L11.9475 18.7726Z" fill="white"/>
<path d="M7.52507 18.8731C7.31027 18.8634 7.28987 18.7708 7.47947 18.6673L8.32908 18.2045C8.51869 18.101 8.82949 18.0986 9.02029 18.1972L10.2611 18.8378C10.4519 18.9364 10.4339 19.0095 10.2191 18.9986L7.52387 18.8731H7.52507Z" fill="white"/>
<path d="M15.3328 16.8306C15.4036 16.9146 15.3076 17.0668 15.118 17.1703L13.9984 17.7768C13.8088 17.8791 13.7896 17.8499 13.9564 17.7123L14.9008 16.9292C15.0664 16.7916 15.2608 16.7477 15.3328 16.8318V16.8306Z" fill="white"/>
<path d="M12.5043 11.7731C12.3051 11.8535 12.1863 11.7475 12.2391 11.5368L13.4271 6.84679C13.4799 6.6361 13.6527 6.58495 13.8099 6.73353L16.8592 9.6211C17.0164 9.76968 16.9816 9.95723 16.7824 10.0376L12.5055 11.7731H12.5043Z" fill="white"/>
<path d="M17.147 8.92765C17.1854 9.142 17.0882 9.19558 16.931 9.047L14.0294 6.29949C13.8722 6.15091 13.877 5.91342 14.0402 5.77093L15.947 4.10489C16.109 3.9624 16.2734 4.02207 16.3118 4.23642L17.147 8.92887V8.92765Z" fill="white"/>
<path d="M15.2858 15.524C15.2114 15.7286 15.035 15.7603 14.8958 15.5946L12.4453 12.7083C12.3049 12.5439 12.3541 12.3417 12.5533 12.2613L16.8062 10.5356C17.0054 10.4552 17.1074 10.5551 17.0318 10.7597L15.2858 15.5228V15.524Z" fill="white"/>
<path d="M18.6936 7.43008C18.81 7.61276 18.8004 7.90505 18.672 8.0792L17.9351 9.08029C17.8067 9.25445 17.6711 9.22278 17.6327 9.00844L16.9007 4.90178C16.8623 4.68743 16.9271 4.66186 17.0435 4.84454L18.6924 7.43008H18.6936Z" fill="white"/>
<path d="M18.2437 12.7722C18.3109 12.9793 18.2365 13.2679 18.0781 13.4141L16.0692 15.2616C15.9108 15.4077 15.8412 15.3602 15.9168 15.1568L17.4217 11.0538C17.4961 10.8504 17.6137 10.8517 17.6809 11.0587L18.2437 12.7735V12.7722Z" fill="white"/>
<path d="M18.5546 11.7138C18.533 11.9306 18.4586 11.9391 18.3914 11.7321L17.951 10.3912C17.8838 10.1842 17.933 9.87237 18.0614 9.69822L18.6386 8.91391C18.767 8.73975 18.8534 8.77385 18.8318 8.99063L18.5558 11.7138H18.5546Z" fill="white"/>
<path d="M16.0466 16.3582C15.9182 16.5323 15.755 16.6066 15.6842 16.5226C15.6122 16.4385 15.6842 16.2498 15.8438 16.1036L16.7474 15.2718C16.9058 15.1257 16.9322 15.1488 16.8038 15.3242L16.0478 16.3569L16.0466 16.3582Z" fill="white"/>
<path d="M12.7633 5.5017C12.8845 5.68073 12.8089 5.84636 12.5965 5.86828L7.8504 6.36517C7.6368 6.38709 7.5516 6.25191 7.6596 6.06435L9.98403 2.02833C10.092 1.84078 10.2804 1.83347 10.4016 2.0125L12.7633 5.50048V5.5017Z" fill="white"/>
<path d="M13.7364 5.41346C13.5744 5.55595 13.3416 5.52551 13.2204 5.34526L10.9727 2.02535C10.8515 1.84632 10.9175 1.7562 11.1215 1.82684L15.57 3.36135C15.7728 3.43199 15.8064 3.60493 15.6432 3.74742L13.7364 5.41346Z" fill="white"/>
<path d="M11.7867 11.4319C11.7327 11.6426 11.5755 11.6803 11.435 11.5159L7.75219 7.17541C7.61179 7.011 7.67179 6.85755 7.88539 6.83441L12.7011 6.33021C12.9147 6.30829 13.0455 6.46174 12.9915 6.67243L11.7867 11.4319Z" fill="white"/>
<path d="M7.19163 5.94332C7.08363 6.13087 6.87963 6.15036 6.74043 5.98473L4.29119 3.09838C4.15079 2.93397 4.20839 2.76225 4.41839 2.71718L9.31927 1.66982C9.52927 1.62475 9.61207 1.74167 9.50407 1.93044L7.19283 5.94332H7.19163Z" fill="white"/>
<path d="M11.1147 1.32619C10.9119 1.25555 10.8999 1.11428 11.0895 1.01198L12.1743 0.421312C12.3639 0.317793 12.6495 0.351894 12.8103 0.495602L15.0843 2.53432C15.2451 2.67803 15.2103 2.73892 15.0075 2.6695L11.1147 1.32741V1.32619Z" fill="white"/>
<path d="M4.8685 2.13849C4.6585 2.18355 4.6225 2.10682 4.7881 1.96921L6.88693 0.22765C7.05254 0.0900306 7.34534 0.058366 7.53614 0.157014L9.12377 0.976641C9.31457 1.07529 9.30017 1.1922 9.09017 1.23726L4.8685 2.13971V2.13849Z" fill="white"/>
<path d="M10.5049 0.795141C10.3165 0.897442 10.0045 0.901095 9.81367 0.802448L8.57285 0.161848C8.38205 0.0632004 8.40005 -0.00987178 8.61485 0.00108905L11.3101 0.127748C11.5249 0.137491 11.5453 0.230049 11.3557 0.333568L10.5061 0.796358L10.5049 0.795141Z" fill="white"/>
<path d="M3.93334 2.07208C3.76773 2.2097 3.57333 2.25354 3.50133 2.16951C3.42933 2.08547 3.52653 1.93202 3.71493 1.82972L4.83455 1.22322C5.02415 1.12092 5.04335 1.15015 4.87655 1.28777L3.93214 2.07208H3.93334Z" fill="white"/>
<path d="M2.49702 15.8599C2.57982 15.788 2.76582 15.8599 2.90982 16.0219L3.72944 16.9389C3.87344 17.0997 3.85064 17.1265 3.67783 16.9962L2.65902 16.2277C2.48742 16.0974 2.41422 15.933 2.49702 15.8599Z" fill="white"/>
<path d="M16.6407 3.49631C16.7235 3.42445 16.8735 3.52188 16.9755 3.71309L17.5731 4.84936C17.6739 5.04179 17.6451 5.06006 17.5095 4.89199L16.7367 3.93353C16.6011 3.76546 16.5579 3.56816 16.6407 3.49509V3.49631Z" fill="white"/>
<path d="M16.1748 2.7712C16.3464 2.90151 16.4196 3.06592 16.3368 3.13899C16.254 3.21085 16.068 3.13899 15.924 2.97702L15.1044 2.05996C14.9604 1.8992 14.9832 1.87241 15.156 2.00272L16.1748 2.7712Z" fill="white"/>
<path d="M2.0978 15.0648C2.2334 15.2328 2.2766 15.4301 2.1938 15.5032C2.111 15.5751 1.961 15.4776 1.859 15.2864L1.26139 14.1501C1.16059 13.9577 1.18939 13.9382 1.32499 14.1075L2.0978 15.066V15.0648Z" fill="white"/>
<path d="M35.038 4.02684C36.0136 4.59072 36.7889 5.3531 37.3625 6.314C37.9349 7.2749 38.2217 8.33202 38.2217 9.4829C38.2217 10.6338 37.9349 11.6958 37.3625 12.6689C36.7889 13.6419 36.0148 14.4128 35.038 14.9828C34.0612 15.5528 32.9884 15.8378 31.8196 15.8378C30.6508 15.8378 29.5767 15.5528 28.6011 14.9828C27.6243 14.4128 26.8503 13.6419 26.2767 12.6689C25.7031 11.6958 25.4175 10.6338 25.4175 9.4829C25.4175 8.33202 25.7043 7.27612 26.2767 6.314C26.8491 5.3531 27.6243 4.59072 28.6011 4.02684C29.5767 3.46297 30.6508 3.18164 31.8196 3.18164C32.9884 3.18164 34.0612 3.46419 35.038 4.02684ZM29.2407 4.97922C28.4451 5.44201 27.8139 6.07165 27.3459 6.8657C26.8779 7.66097 26.6439 8.53296 26.6439 9.4829C26.6439 10.4328 26.8779 11.3109 27.3459 12.1172C27.8139 12.9246 28.4451 13.5616 29.2407 14.0304C30.0352 14.4993 30.9016 14.7331 31.8364 14.7331C32.7712 14.7331 33.6172 14.4993 34.4056 14.0304C35.1952 13.5616 35.8228 12.9234 36.2909 12.1172C36.7589 11.3097 36.9929 10.4316 36.9929 9.4829C36.9929 8.32349 36.6437 7.27856 35.9464 6.34932C35.6068 5.89627 35.1928 5.50168 34.7284 5.18382C33.8512 4.58463 32.8876 4.28503 31.8376 4.28503C30.9016 4.28503 30.0364 4.51643 29.2419 4.97922H29.2407Z" fill="white"/>
<path d="M51.189 15.4707L48.7097 11.6721C48.3353 11.6965 48.0485 11.7075 47.8505 11.7075H44.4833V15.1504C44.4833 15.4707 44.2277 15.7313 43.9109 15.7313H43.8449C43.5293 15.7313 43.2725 15.4719 43.2725 15.1504V3.28711H47.8505C49.3817 3.28711 50.5662 3.64638 51.4026 4.36371C52.239 5.08225 52.6566 6.09917 52.6566 7.41691C52.6566 8.44966 52.4106 9.30948 51.9198 9.99758C51.429 10.6857 50.727 11.1667 49.8149 11.4395L52.1346 14.8167C52.3986 15.2015 52.1274 15.7289 51.6654 15.7289C51.4734 15.7289 51.2946 15.6314 51.189 15.4695V15.4707ZM47.8505 10.6041C49.0193 10.6041 49.9205 10.3337 50.5518 9.79419C51.183 9.25468 51.4986 8.47402 51.4986 7.45345C51.4986 6.43287 51.183 5.69728 50.5518 5.17481C49.9205 4.65234 49.0193 4.39172 47.8505 4.39172H44.4833V10.6041H47.8505Z" fill="white"/>
<path d="M66.3632 4.09647C67.0592 4.64816 67.4072 5.41055 67.4072 6.38363C67.4072 7.11922 67.2056 7.73668 66.8024 8.23479C66.3992 8.7329 65.8352 9.05929 65.1103 9.21396C66.0104 9.33331 66.7124 9.67066 67.2152 10.2284C67.718 10.7862 67.9688 11.4926 67.9688 12.3463C67.9688 13.4144 67.5764 14.245 66.794 14.8381C66.0104 15.4312 64.9231 15.7284 63.5311 15.7284H58.3398V3.26953H63.4795C64.7071 3.26953 65.6684 3.54599 66.3644 4.09768L66.3632 4.09647ZM65.4427 8.19095C65.9228 7.80488 66.1616 7.25684 66.1616 6.54439C66.1616 5.83193 65.9216 5.32164 65.4427 4.94167C64.9627 4.56169 64.2907 4.37779 63.4255 4.38997H59.5495V8.76944H63.4255C64.2907 8.76944 64.9627 8.57701 65.4427 8.19095ZM65.8724 13.9941C66.4508 13.5727 66.74 12.9821 66.74 12.2233C66.74 11.4646 66.4472 10.8946 65.8628 10.4793C65.2783 10.064 64.4647 9.85578 63.4243 9.85578H59.5483V14.6262H63.4243C64.4767 14.6262 65.2927 14.4155 65.8712 13.9941H65.8724Z" fill="white"/>
<path d="M78.4921 4.57801C77.8957 4.40629 77.3341 4.31982 76.8085 4.31982C75.9661 4.31982 75.2917 4.48911 74.7829 4.82767C74.274 5.16624 74.0196 5.62538 74.0196 6.20752C74.0196 6.71781 74.16 7.1331 74.4409 7.4534C74.7217 7.7737 75.0661 8.0258 75.4753 8.2097C75.8845 8.3936 76.4461 8.5982 77.1589 8.82351C77.9893 9.07317 78.6589 9.31918 79.1677 9.56276C79.6765 9.80633 80.1085 10.1595 80.4662 10.6223C80.8226 11.0851 81.0014 11.6965 81.0014 12.4552C81.0014 13.1202 80.8166 13.7072 80.4494 14.2175C80.081 14.7277 79.5637 15.1223 78.8965 15.4012C78.2305 15.6801 77.4637 15.8202 76.5985 15.8202C75.7333 15.8202 74.9113 15.6485 74.0988 15.3038C73.4436 15.0261 72.8628 14.6754 72.3552 14.2516C72.1452 14.0762 72.0912 13.7717 72.2244 13.5306C72.3924 13.2273 72.7872 13.1433 73.0572 13.3589C73.4844 13.6999 73.9572 13.98 74.4744 14.2004C75.1993 14.5085 75.9133 14.6632 76.6141 14.6632C77.5489 14.6632 78.2917 14.4708 78.8413 14.0847C79.3909 13.6999 79.6657 13.1798 79.6657 12.5271C79.6657 12.0046 79.5253 11.5783 79.2445 11.2459C78.9637 10.9134 78.6193 10.6588 78.2101 10.481C77.8009 10.3032 77.2273 10.0962 76.4917 9.85748C75.6613 9.59686 74.9953 9.34963 74.4925 9.11823C73.9896 8.88684 73.5624 8.54218 73.212 8.08548C72.8616 7.62878 72.6864 7.03202 72.6864 6.29643C72.6864 5.66801 72.8616 5.11509 73.212 4.64134C73.5624 4.16637 74.0544 3.80223 74.6857 3.54647C75.3169 3.29194 76.0477 3.16406 76.8781 3.16406C77.5441 3.16406 78.2137 3.26515 78.8869 3.46609C79.3537 3.60615 79.7821 3.77787 80.1722 3.98004C80.4518 4.12496 80.567 4.4684 80.4242 4.75217L80.4074 4.78627C80.2646 5.07125 79.9225 5.17477 79.6417 5.03106C79.2805 4.84594 78.8965 4.69493 78.4921 4.57801Z" fill="white"/>
</svg>
