<svg width="176" height="156" viewBox="0 0 176 156" fill="none" xmlns="http://www.w3.org/2000/svg">
<g opacity="0.4">
<ellipse cx="0.813209" cy="39.3405" rx="0.813209" ry="0.727248" fill="#C4C4C4"/>
<ellipse cx="25.6159" cy="39.3405" rx="0.813209" ry="0.727248" fill="#C4C4C4"/>
<ellipse cx="50.4192" cy="39.3405" rx="0.813209" ry="0.727248" fill="#C4C4C4"/>
<ellipse cx="75.2219" cy="39.3405" rx="0.813209" ry="0.727248" fill="#C4C4C4"/>
<ellipse cx="100.025" cy="39.3405" rx="0.813209" ry="0.727248" fill="#C4C4C4"/>
<ellipse cx="124.827" cy="39.3405" rx="0.813209" ry="0.727248" fill="#C4C4C4"/>
<ellipse cx="149.631" cy="39.3405" rx="0.813209" ry="0.727248" fill="#C4C4C4"/>
<ellipse cx="174.433" cy="39.3405" rx="0.813209" ry="0.727248" fill="#C4C4C4"/>
<ellipse cx="0.813209" cy="57.1589" rx="0.813209" ry="0.727248" fill="#C4C4C4"/>
<ellipse cx="25.6159" cy="57.1589" rx="0.813209" ry="0.727248" fill="#C4C4C4"/>
<ellipse cx="50.4192" cy="57.1589" rx="0.813209" ry="0.727248" fill="#C4C4C4"/>
<ellipse cx="75.2219" cy="57.1589" rx="0.813209" ry="0.727248" fill="#C4C4C4"/>
<ellipse cx="100.025" cy="57.1589" rx="0.813209" ry="0.727248" fill="#C4C4C4"/>
<ellipse cx="124.827" cy="57.1589" rx="0.813209" ry="0.727248" fill="#C4C4C4"/>
<ellipse cx="149.631" cy="57.1589" rx="0.813209" ry="0.727248" fill="#C4C4C4"/>
<ellipse cx="174.433" cy="57.1589" rx="0.813209" ry="0.727248" fill="#C4C4C4"/>
<ellipse cx="0.813209" cy="74.9753" rx="0.813209" ry="0.727248" fill="#C4C4C4"/>
<ellipse cx="25.6159" cy="74.9753" rx="0.813209" ry="0.727248" fill="#C4C4C4"/>
<ellipse cx="50.4192" cy="74.9753" rx="0.813209" ry="0.727248" fill="#C4C4C4"/>
<ellipse cx="75.2219" cy="74.9753" rx="0.813209" ry="0.727248" fill="#C4C4C4"/>
<ellipse cx="100.025" cy="74.9753" rx="0.813209" ry="0.727248" fill="#C4C4C4"/>
<ellipse cx="124.827" cy="74.9753" rx="0.813209" ry="0.727248" fill="#C4C4C4"/>
<ellipse cx="149.631" cy="74.9753" rx="0.813209" ry="0.727248" fill="#C4C4C4"/>
<ellipse cx="174.433" cy="74.9753" rx="0.813209" ry="0.727248" fill="#C4C4C4"/>
<ellipse cx="0.813209" cy="92.7937" rx="0.813209" ry="0.727248" fill="#C4C4C4"/>
<ellipse cx="25.6159" cy="92.7937" rx="0.813209" ry="0.727248" fill="#C4C4C4"/>
<ellipse cx="50.4192" cy="92.7937" rx="0.813209" ry="0.727248" fill="#C4C4C4"/>
<ellipse cx="75.2219" cy="92.7937" rx="0.813209" ry="0.727248" fill="#C4C4C4"/>
<ellipse cx="100.025" cy="92.7937" rx="0.813209" ry="0.727248" fill="#C4C4C4"/>
<ellipse cx="124.827" cy="92.7937" rx="0.813209" ry="0.727248" fill="#C4C4C4"/>
<ellipse cx="149.631" cy="92.7937" rx="0.813209" ry="0.727248" fill="#C4C4C4"/>
<ellipse cx="174.433" cy="92.7937" rx="0.813209" ry="0.727248" fill="#C4C4C4"/>
<ellipse cx="0.813209" cy="110.61" rx="0.813209" ry="0.727248" fill="#C4C4C4"/>
<ellipse cx="25.6159" cy="110.61" rx="0.813209" ry="0.727248" fill="#C4C4C4"/>
<ellipse cx="50.4192" cy="110.61" rx="0.813209" ry="0.727248" fill="#C4C4C4"/>
<ellipse cx="75.2219" cy="110.61" rx="0.813209" ry="0.727248" fill="#C4C4C4"/>
<ellipse cx="100.025" cy="110.61" rx="0.813209" ry="0.727248" fill="#C4C4C4"/>
<ellipse cx="124.827" cy="110.61" rx="0.813209" ry="0.727248" fill="#C4C4C4"/>
<ellipse cx="149.631" cy="110.61" rx="0.813209" ry="0.727248" fill="#C4C4C4"/>
<ellipse cx="174.433" cy="110.61" rx="0.813209" ry="0.727248" fill="#C4C4C4"/>
<ellipse cx="0.813209" cy="128.428" rx="0.813209" ry="0.727248" fill="#C4C4C4"/>
<ellipse cx="25.6159" cy="128.428" rx="0.813209" ry="0.727248" fill="#C4C4C4"/>
<ellipse cx="50.4192" cy="128.428" rx="0.813209" ry="0.727248" fill="#C4C4C4"/>
<ellipse cx="75.2219" cy="128.428" rx="0.813209" ry="0.727248" fill="#C4C4C4"/>
<ellipse cx="100.025" cy="128.428" rx="0.813209" ry="0.727248" fill="#C4C4C4"/>
<ellipse cx="124.827" cy="128.428" rx="0.813209" ry="0.727248" fill="#C4C4C4"/>
<ellipse cx="149.631" cy="128.428" rx="0.813209" ry="0.727248" fill="#C4C4C4"/>
<ellipse cx="174.433" cy="128.428" rx="0.813209" ry="0.727248" fill="#C4C4C4"/>
<ellipse cx="0.813209" cy="146.247" rx="0.813209" ry="0.727248" fill="#C4C4C4"/>
<ellipse cx="25.6159" cy="146.247" rx="0.813209" ry="0.727248" fill="#C4C4C4"/>
<ellipse cx="50.4192" cy="146.247" rx="0.813209" ry="0.727248" fill="#C4C4C4"/>
<ellipse cx="75.2219" cy="146.247" rx="0.813209" ry="0.727248" fill="#C4C4C4"/>
<ellipse cx="100.025" cy="146.247" rx="0.813209" ry="0.727248" fill="#C4C4C4"/>
<ellipse cx="124.827" cy="146.247" rx="0.813209" ry="0.727248" fill="#C4C4C4"/>
<ellipse cx="149.631" cy="146.247" rx="0.813209" ry="0.727248" fill="#C4C4C4"/>
<ellipse cx="174.433" cy="146.247" rx="0.813209" ry="0.727248" fill="#C4C4C4"/>
<ellipse cx="0.813209" cy="0.727248" rx="0.813209" ry="0.727248" fill="#C4C4C4"/>
<ellipse cx="25.6159" cy="0.727248" rx="0.813209" ry="0.727248" fill="#C4C4C4"/>
<ellipse cx="50.4192" cy="0.727248" rx="0.813209" ry="0.727248" fill="#C4C4C4"/>
<ellipse cx="75.2219" cy="0.727248" rx="0.813209" ry="0.727248" fill="#C4C4C4"/>
<ellipse cx="100.025" cy="0.727248" rx="0.813209" ry="0.727248" fill="#C4C4C4"/>
<ellipse cx="124.827" cy="0.727248" rx="0.813209" ry="0.727248" fill="#C4C4C4"/>
<ellipse cx="149.631" cy="0.727248" rx="0.813209" ry="0.727248" fill="#C4C4C4"/>
<ellipse cx="0.813209" cy="18.5456" rx="0.813209" ry="0.727248" fill="#C4C4C4"/>
<ellipse cx="25.6159" cy="18.5456" rx="0.813209" ry="0.727248" fill="#C4C4C4"/>
<ellipse cx="50.4192" cy="18.5456" rx="0.813209" ry="0.727248" fill="#C4C4C4"/>
<ellipse cx="75.2219" cy="18.5456" rx="0.813209" ry="0.727248" fill="#C4C4C4"/>
<ellipse cx="100.025" cy="18.5456" rx="0.813209" ry="0.727248" fill="#C4C4C4"/>
<ellipse cx="124.827" cy="18.5456" rx="0.813209" ry="0.727248" fill="#C4C4C4"/>
<ellipse cx="149.631" cy="18.5456" rx="0.813209" ry="0.727248" fill="#C4C4C4"/>
<ellipse cx="174.433" cy="18.5456" rx="0.813209" ry="0.727248" fill="#C4C4C4"/>
</g>
<g filter="url(#filter0_f_1050_8229)">
<path d="M142.926 60.3303V103.225L103.735 124.701V81.7999L142.926 60.3303Z" stroke="#85CAE5"/>
<path d="M134.168 99.3199L93.9697 121.344V77.3025L134.168 55.2852V99.3199Z" stroke="#85CAE5" stroke-width="1.33" stroke-miterlimit="10"/>
<path d="M93.97 121.344L53.772 99.3199V55.2852L93.97 77.3025V121.344Z" stroke="#85CAE5" stroke-width="1.33" stroke-miterlimit="10"/>
<path d="M93.97 77.148L53.772 55.1307L93.97 33.1133L134.168 55.1307L93.97 77.148Z" stroke="#85CAE5" stroke-width="1.33" stroke-miterlimit="10"/>
<path d="M148.947 36.9997V23.9043H135.844" stroke="#85CAE5" stroke-width="3.33" stroke-miterlimit="10"/>
<path d="M148.946 23.9043L134.203 38.641" stroke="#85CAE5" stroke-width="3.33" stroke-miterlimit="10"/>
<path d="M39 120.748V133.85H52.0954" stroke="#85CAE5" stroke-width="3.33" stroke-miterlimit="10"/>
<path d="M39 133.851L53.7367 119.107" stroke="#85CAE5" stroke-width="3.33" stroke-miterlimit="10"/>
<path d="M52.0954 23.9043H39V36.9997" stroke="#85CAE5" stroke-width="3.33" stroke-miterlimit="10"/>
<path d="M39 23.9043L53.7367 38.641" stroke="#85CAE5" stroke-width="3.33" stroke-miterlimit="10"/>
<path d="M135.844 133.85H148.947V120.748" stroke="#85CAE5" stroke-width="3.33" stroke-miterlimit="10"/>
<path d="M148.946 133.851L134.203 119.107" stroke="#85CAE5" stroke-width="3.33" stroke-miterlimit="10"/>
</g>
<path d="M134.191 99.5211L94 121.545V77.5037L134.191 55.4863V99.5211Z" fill="url(#paint0_linear_1050_8229)"/>
<path d="M128.168 95.3199L87.9697 117.344V73.3025L128.168 51.2852V95.3199Z" stroke="white" stroke-width="1.33" stroke-miterlimit="10"/>
<path d="M87.97 117.344L47.772 95.3199V51.2852L87.97 73.3025V117.344Z" stroke="white" stroke-width="1.33" stroke-miterlimit="10"/>
<path d="M87.97 73.148L47.772 51.1307L87.97 29.1133L128.168 51.1307L87.97 73.148Z" stroke="white" stroke-width="1.33" stroke-miterlimit="10"/>
<path d="M142.947 32.9997V19.9043H129.844" stroke="#85CAE5" stroke-width="3.33" stroke-miterlimit="10"/>
<path d="M142.946 19.9043L128.203 34.641" stroke="#85CAE5" stroke-width="3.33" stroke-miterlimit="10"/>
<path d="M33 116.748V129.85H46.0954" stroke="#85CAE5" stroke-width="3.33" stroke-miterlimit="10"/>
<path d="M33 129.851L47.7367 115.107" stroke="#85CAE5" stroke-width="3.33" stroke-miterlimit="10"/>
<path d="M46.0954 19.9043H33V32.9997" stroke="#85CAE5" stroke-width="3.33" stroke-miterlimit="10"/>
<path d="M33 19.9043L47.7367 34.641" stroke="#85CAE5" stroke-width="3.33" stroke-miterlimit="10"/>
<path d="M129.844 129.85H142.947V116.748" stroke="#85CAE5" stroke-width="3.33" stroke-miterlimit="10"/>
<path d="M142.946 129.851L128.203 115.107" stroke="#85CAE5" stroke-width="3.33" stroke-miterlimit="10"/>
<defs>
<filter id="filter0_f_1050_8229" x="17.335" y="2.24023" width="153.277" height="153.275" filterUnits="userSpaceOnUse" color-interpolation-filters="sRGB">
<feFlood flood-opacity="0" result="BackgroundImageFix"/>
<feBlend mode="normal" in="SourceGraphic" in2="BackgroundImageFix" result="shape"/>
<feGaussianBlur stdDeviation="10" result="effect1_foregroundBlur_1050_8229"/>
</filter>
<linearGradient id="paint0_linear_1050_8229" x1="93.7646" y1="71" x2="121.765" y2="95" gradientUnits="userSpaceOnUse">
<stop stop-color="#3737B1"/>
<stop offset="1" stop-color="#A0DEE5"/>
</linearGradient>
</defs>
</svg>
