<svg width="105" height="112" viewBox="0 0 105 112" fill="none" xmlns="http://www.w3.org/2000/svg">
<g clip-path="url(#clip0_671_10857)">
<path d="M18.2009 18.3383C23.2309 18.3383 27.3085 14.2331 27.3085 9.16914C27.3085 4.10516 23.2309 0 18.2009 0C13.1709 0 9.09326 4.10516 9.09326 9.16914C9.09326 14.2331 13.1709 18.3383 18.2009 18.3383Z" fill="#85CAE5"/>
<path d="M65.8242 75.6402C90.6451 50.6517 103.068 22.6442 93.5714 13.0835C84.0749 3.52291 56.2552 16.0296 31.4343 41.0181C6.61347 66.0065 -5.80937 94.0141 3.68714 103.575C13.1837 113.135 41.0034 100.629 65.8242 75.6402Z" stroke="white" stroke-width="1.43" stroke-miterlimit="10"/>
<path d="M93.5714 103.577C103.068 94.016 90.6451 66.0084 65.8242 41.02C41.0034 16.0315 13.1836 3.5248 3.68714 13.0854C-5.80937 22.6461 6.61347 50.6536 31.4343 75.6421C56.2552 100.631 84.0749 113.137 93.5714 103.577Z" stroke="white" stroke-width="1.43" stroke-miterlimit="10"/>
<path d="M95.8923 38.1684C100.922 38.1684 105 34.0632 105 28.9992C105 23.9352 100.922 19.8301 95.8923 19.8301C90.8623 19.8301 86.7847 23.9352 86.7847 28.9992C86.7847 34.0632 90.8623 38.1684 95.8923 38.1684Z" fill="#85CAE5"/>
<path d="M71.323 112.006C76.353 112.006 80.4306 107.901 80.4306 102.837C80.4306 97.7731 76.353 93.668 71.323 93.668C66.293 93.668 62.2153 97.7731 62.2153 102.837C62.2153 107.901 66.293 112.006 71.323 112.006Z" fill="#85CAE5"/>
</g>
<defs>
<clipPath id="clip0_671_10857">
<rect width="105" height="112" fill="white"/>
</clipPath>
</defs>
</svg>
