<svg width="129" height="32" viewBox="0 0 129 32" fill="none" xmlns="http://www.w3.org/2000/svg">
<g clip-path="url(#clip0_227_1092)">
<path d="M9.16335 20.3938C9.0669 20.7575 8.77755 20.8303 8.51232 20.5878L3.35232 15.7379C3.08709 15.4954 3.13531 15.1802 3.47288 15.0347L10.7065 12.1248C11.0441 11.9793 11.237 12.1733 11.1647 12.5128L9.16335 20.3938Z" fill="#19184C"/>
<path d="M4.89543 25.0012C4.6302 25.2437 4.34086 25.1467 4.26852 24.783L2.8459 16.902C2.77357 16.5383 2.94235 16.4413 3.20758 16.708L8.12646 21.3154C8.3917 21.5579 8.3917 21.9701 8.10235 22.2126L4.89543 25.0012Z" fill="#19184C"/>
<path d="M10.8266 10.5728C11.0677 10.8396 10.9713 11.1791 10.6337 11.3246L3.42415 14.2102C3.08658 14.3557 2.91779 14.186 3.03835 13.8222L6.00415 5.81999C6.12471 5.48051 6.43817 5.43201 6.65518 5.69875L10.8266 10.5728Z" fill="#19184C"/>
<path d="M3.27953 23.6672C3.35187 24.031 3.23131 24.0795 3.03841 23.7642L0.241401 19.4236C0.0485041 19.1084 0.0485041 18.6234 0.265513 18.3324L1.51935 16.6592C1.73635 16.3682 1.97748 16.4167 2.0257 16.7805L3.27953 23.6672Z" fill="#19184C"/>
<path d="M2.3873 13.337C2.26674 13.6765 2.07384 13.6765 1.95328 13.337L0.988792 10.4513C0.868231 10.1119 0.988792 9.62687 1.27814 9.38438L4.67795 6.28048C4.94319 6.03799 5.06375 6.11074 4.94318 6.45023L2.3873 13.337Z" fill="#19184C"/>
<path d="M1.49532 14.4527C1.61588 14.7922 1.51943 15.3256 1.30242 15.6166L0.313823 16.9261C0.0968133 17.2171 -0.0478596 17.1686 -0.0237475 16.8048L0.482608 12.2218C0.530832 11.858 0.651393 11.8338 0.747841 12.1975L1.49532 14.4527Z" fill="#19184C"/>
<path d="M5.32943 4.14672C5.44999 4.29221 5.32943 4.60745 5.06419 4.84994L3.54513 6.2564C3.27989 6.49889 3.23167 6.45039 3.44868 6.1594L4.72662 4.41346C4.94363 4.14672 5.20887 4.02547 5.32943 4.14672Z" fill="#19184C"/>
<path d="M14.9979 28.4929C14.805 28.8081 14.4915 28.8081 14.2986 28.5171L10.2719 22.6488C10.0549 22.3578 10.1995 22.0668 10.5612 22.0426L18.5906 21.2181C18.9523 21.1696 19.0969 21.4121 18.904 21.7273L14.9979 28.4929Z" fill="#19184C"/>
<path d="M13.3103 28.4928C13.5273 28.7838 13.4068 28.9535 13.0692 28.8323L5.52209 26.2619C5.18452 26.1406 5.11218 25.8496 5.40153 25.6071L8.63255 22.7942C8.89779 22.5517 9.3077 22.6002 9.50059 22.9155L13.3103 28.4928Z" fill="#19184C"/>
<path d="M18.7837 19.8359C19.0248 20.1026 18.9284 20.3693 18.5667 20.4178L10.4168 21.2666C10.0551 21.3151 9.83809 21.0483 9.93453 20.6846L11.9841 12.7066C12.0805 12.3429 12.3457 12.2944 12.5869 12.5611L18.7837 19.8359Z" fill="#19184C"/>
<path d="M24.6429 26.6985C24.884 26.9652 24.7876 27.2562 24.4259 27.329L16.1072 29.0992C15.7455 29.1719 15.6008 28.9779 15.7937 28.6627L19.6999 21.9214C19.8928 21.6062 20.2304 21.5819 20.4715 21.8487L24.6429 26.6985Z" fill="#19184C"/>
<path d="M11.2846 31.1846C10.9711 31.3544 10.4889 31.3059 10.1995 31.0634L6.34158 27.6442C6.07635 27.4017 6.12457 27.3047 6.46214 27.426L13.0448 29.6812C13.3823 29.8024 13.4064 30.0449 13.093 30.2146L11.2846 31.1846Z" fill="#19184C"/>
<path d="M20.2302 31.4997C19.9409 31.7422 19.4586 31.7907 19.121 31.6209L16.4205 30.2387C16.107 30.069 16.1311 29.875 16.4687 29.8022L23.63 28.2988C23.9917 28.2261 24.0399 28.3473 23.7747 28.5898L20.2302 31.4997Z" fill="#19184C"/>
<path d="M12.7555 31.6696C12.3938 31.6453 12.3697 31.4998 12.6831 31.3301L14.1299 30.5541C14.4433 30.3844 14.9738 30.3844 15.3114 30.5298L17.4091 31.5968C17.7226 31.7666 17.6985 31.8878 17.3368 31.8636L12.7555 31.6696Z" fill="#19184C"/>
<path d="M25.969 28.2504C26.0896 28.3959 25.9208 28.6384 25.6073 28.8082L23.7025 29.8266C23.389 29.9964 23.3408 29.9479 23.6301 29.7296L25.2215 28.4202C25.5109 28.1777 25.8484 28.1049 25.969 28.2504Z" fill="#19184C"/>
<path d="M21.171 19.7632C20.8334 19.9087 20.6405 19.7147 20.7129 19.3752L22.7142 11.4942C22.8106 11.1305 23.1 11.0578 23.3652 11.3002L28.5252 16.1501C28.7904 16.3926 28.7422 16.7078 28.4046 16.8533L21.171 19.7632Z" fill="#19184C"/>
<path d="M29.0552 14.9861C29.1275 15.3498 28.9587 15.4468 28.6935 15.1801L23.7746 10.5727C23.5094 10.3302 23.5094 9.91799 23.7987 9.6755L27.0057 6.88684C27.2709 6.64435 27.5602 6.74135 27.6326 7.10509L29.0552 14.9861Z" fill="#19184C"/>
<path d="M25.8968 26.0438C25.7762 26.3833 25.4628 26.4318 25.2458 26.1651L21.0744 21.3395C20.8332 21.0727 20.9297 20.7333 21.2673 20.5878L28.4768 17.7021C28.8144 17.5566 28.9832 17.7264 28.8626 18.0901L25.8968 26.0438Z" fill="#19184C"/>
<path d="M31.6594 12.4642C31.8523 12.7794 31.8523 13.2644 31.6112 13.5554L30.3574 15.2286C30.1404 15.5196 29.8993 15.4711 29.851 15.1073L28.6213 8.22058C28.549 7.85684 28.6695 7.80834 28.8624 8.12358L31.6594 12.4642Z" fill="#19184C"/>
<path d="M30.9119 21.4364C31.0324 21.7759 30.9119 22.2609 30.6225 22.5034L27.2227 25.6073C26.9575 25.8498 26.8369 25.777 26.9575 25.4375L29.5134 18.5508C29.6339 18.2113 29.8268 18.2113 29.9474 18.5508L30.9119 21.4364Z" fill="#19184C"/>
<path d="M31.4183 19.6663C31.37 20.03 31.2495 20.0543 31.153 19.6906L30.4055 17.4354C30.285 17.0959 30.3814 16.5624 30.5984 16.2714L31.587 14.962C31.804 14.671 31.9487 14.7195 31.9246 15.0832L31.4183 19.6663Z" fill="#19184C"/>
<path d="M27.175 27.4501C26.958 27.7411 26.6928 27.8624 26.5722 27.7169C26.4517 27.5714 26.5722 27.2562 26.8375 27.0137L28.3565 25.6072C28.6218 25.3647 28.67 25.389 28.453 25.7042L27.175 27.4501Z" fill="#19184C"/>
<path d="M21.629 9.23887C21.846 9.52986 21.7013 9.82085 21.3397 9.8451L13.3103 10.6696C12.9486 10.7181 12.804 10.4756 12.9969 10.1603L16.903 3.39482C17.0959 3.07959 17.4094 3.07959 17.6023 3.37058L21.629 9.23887Z" fill="#19184C"/>
<path d="M23.2687 9.09374C23.0035 9.33623 22.5936 9.28773 22.4007 8.97249L18.591 3.39519C18.3739 3.1042 18.4945 2.93445 18.8321 3.0557L26.3551 5.62611C26.6926 5.74735 26.765 6.03834 26.4756 6.28083L23.2687 9.09374Z" fill="#19184C"/>
<path d="M19.9649 19.1814C19.8685 19.5451 19.6032 19.5936 19.3621 19.3269L13.117 12.0521C12.8759 11.7854 12.9724 11.5186 13.3341 11.4701L21.484 10.6214C21.8456 10.5729 22.0627 10.8397 21.9662 11.2034L19.9649 19.1814Z" fill="#19184C"/>
<path d="M12.177 9.96662C11.9841 10.2819 11.6466 10.3061 11.4055 10.0394L7.25816 5.18954C7.01704 4.9228 7.11349 4.63181 7.47517 4.55906L15.7697 2.81312C16.1314 2.74038 16.2761 2.93437 16.0832 3.24961L12.177 9.96662Z" fill="#19184C"/>
<path d="M18.832 2.23122C18.4944 2.10997 18.4703 1.86748 18.7838 1.69773L20.6163 0.703519C20.9297 0.533775 21.412 0.582273 21.7013 0.824765L25.5593 4.2439C25.8245 4.48639 25.7763 4.58338 25.4387 4.46214L18.832 2.23122Z" fill="#19184C"/>
<path d="M8.24659 3.58889C7.88491 3.66163 7.83668 3.54039 8.10191 3.2979L11.6705 0.387997C11.9599 0.145506 12.4421 0.0970076 12.7797 0.266752L15.4802 1.64895C15.7937 1.8187 15.7696 2.01269 15.432 2.08544L8.24659 3.58889Z" fill="#19184C"/>
<path d="M17.7949 1.33385C17.4815 1.50359 16.951 1.50359 16.6134 1.3581L14.5157 0.291135C14.2022 0.0971416 14.2263 -0.0241042 14.588 0.00014493L19.1452 0.218387C19.5069 0.242637 19.5551 0.388131 19.2175 0.557876L17.7949 1.33385Z" fill="#19184C"/>
<path d="M6.65553 3.46775C6.36618 3.71024 6.05272 3.78299 5.93216 3.6375C5.8116 3.492 5.98039 3.24951 6.29385 3.07977L8.19871 2.0613C8.51216 1.89156 8.56039 1.94006 8.27104 2.1583L6.65553 3.46775Z" fill="#19184C"/>
<path d="M4.21969 26.626C4.36437 26.5047 4.67783 26.626 4.91895 26.8927L6.31745 28.4204C6.55857 28.6871 6.51035 28.7356 6.221 28.5174L4.48493 27.2322C4.21969 27.014 4.09913 26.7472 4.21969 26.626Z" fill="#19184C"/>
<path d="M28.1875 5.86842C28.3322 5.74718 28.5733 5.91692 28.7421 6.23216L29.7548 8.14784C29.9236 8.46308 29.8754 8.51158 29.6584 8.22059L28.3563 6.62015C28.1152 6.32916 28.0428 5.98967 28.1875 5.86842Z" fill="#19184C"/>
<path d="M27.3917 4.65605C27.681 4.87429 27.8016 5.14103 27.6569 5.26227C27.5123 5.38352 27.1988 5.26227 26.9577 4.99553L25.5592 3.46784C25.3181 3.2011 25.3422 3.1526 25.6556 3.37084L27.3917 4.65605Z" fill="#19184C"/>
<path d="M3.54492 25.292C3.78604 25.583 3.85838 25.8983 3.71371 26.0195C3.56903 26.1408 3.32791 25.971 3.15913 25.6558L2.14642 23.7401C1.97763 23.4249 2.02586 23.3764 2.24287 23.6673L3.54492 25.292Z" fill="#19184C"/>
<path d="M56.0854 7.34811C57.6286 8.24533 58.8583 9.43354 59.7746 10.937C60.6909 12.4404 61.149 14.1136 61.149 15.9081C61.149 17.7267 60.6909 19.3757 59.7746 20.9276C58.8583 22.4553 57.6286 23.6678 56.0854 24.565C54.5423 25.4622 52.8303 25.8987 50.9737 25.8987C49.117 25.8987 47.4051 25.4622 45.8619 24.565C44.3187 23.6678 43.089 22.4553 42.1727 20.9276C41.2565 19.3999 40.7983 17.7267 40.7983 15.9081C40.7983 14.0894 41.2565 12.4404 42.1727 10.937C43.089 9.43354 44.3187 8.22108 45.8619 7.34811C47.4051 6.45089 49.117 6.0144 50.9737 6.0144C52.8544 6.0144 54.5423 6.45089 56.0854 7.34811ZM46.8987 8.82731C45.6449 9.55478 44.6322 10.549 43.8847 11.7857C43.1372 13.0467 42.7755 14.4046 42.7755 15.9081C42.7755 17.4115 43.1372 18.7695 43.8847 20.0547C44.6322 21.3156 45.6208 22.3341 46.8987 23.0616C48.1525 23.789 49.5269 24.177 51.0219 24.177C52.4927 24.177 53.843 23.8133 55.0968 23.0616C56.3507 22.3341 57.3393 21.3156 58.0868 20.0547C58.8342 18.7937 59.1959 17.4115 59.1959 15.9081C59.1959 14.0894 58.6413 12.4404 57.5322 10.9855C57.0017 10.2823 56.3266 9.65178 55.6032 9.14255C54.2047 8.19683 52.6856 7.73609 51.0219 7.73609C49.5269 7.73609 48.1525 8.09983 46.8987 8.82731Z" fill="#19184C"/>
<path d="M81.7169 25.3407L77.7866 19.3754C77.1838 19.4239 76.7498 19.4239 76.4122 19.4239H71.0593V24.8314C71.0593 25.3407 70.6494 25.7529 70.1431 25.7529H70.0466C69.5403 25.7529 69.1304 25.3407 69.1304 24.8314V6.18384H76.3881C78.8235 6.18384 80.7042 6.74157 82.0304 7.88128C83.3565 9.02099 84.0317 10.6214 84.0317 12.6826C84.0317 14.3073 83.6459 15.6653 82.8743 16.7322C82.1027 17.8234 80.9936 18.5752 79.5468 18.9874L83.236 24.298C83.6459 24.9042 83.236 25.7287 82.4885 25.7287C82.175 25.7287 81.8857 25.5832 81.7169 25.3407ZM76.4122 17.6779C78.2689 17.6779 79.6915 17.2657 80.7042 16.3927C81.7169 15.544 82.1992 14.3073 82.1992 12.7069C82.1992 11.1307 81.6928 9.94246 80.7042 9.11799C79.6915 8.29351 78.2689 7.88128 76.4122 7.88128H71.0593V17.6537H76.4122V17.6779Z" fill="#19184C"/>
<path d="M105.781 7.44463C106.89 8.3176 107.444 9.50581 107.444 11.0335C107.444 12.1975 107.131 13.1674 106.48 13.9434C105.829 14.7194 104.937 15.2286 103.803 15.4711C105.226 15.6651 106.335 16.1986 107.131 17.0715C107.926 17.9445 108.336 19.06 108.336 20.3937C108.336 22.0669 107.709 23.3763 106.48 24.322C105.226 25.2435 103.514 25.7285 101.296 25.7285H93.0493V6.15942H101.199C103.152 6.15942 104.671 6.59591 105.781 7.44463ZM104.334 13.8949C105.105 13.2887 105.467 12.4157 105.467 11.3002C105.467 10.209 105.081 9.38456 104.334 8.77833C103.562 8.1721 102.501 7.88111 101.127 7.90536H94.9783V14.7921H101.127C102.501 14.7921 103.562 14.5011 104.334 13.8949ZM105.009 23.0126C105.925 22.3579 106.383 21.4121 106.383 20.2239C106.383 19.06 105.925 18.1385 104.985 17.4838C104.069 16.829 102.767 16.5138 101.127 16.5138H94.9783V24.0068H101.127C102.791 24.0068 104.093 23.6673 105.009 23.0126Z" fill="#19184C"/>
<path d="M125.022 8.19642C124.081 7.92968 123.189 7.78418 122.345 7.78418C121.019 7.78418 119.934 8.05092 119.138 8.58441C118.343 9.11789 117.933 9.84536 117.933 10.7426C117.933 11.5428 118.15 12.1975 118.608 12.7068C119.042 13.216 119.597 13.604 120.248 13.895C120.899 14.186 121.791 14.5012 122.924 14.8649C124.25 15.2529 125.311 15.6409 126.107 16.0289C126.903 16.4169 127.602 16.9746 128.156 17.7021C128.711 18.4296 129 19.3995 129 20.5877C129 21.6305 128.711 22.5519 128.132 23.3521C127.554 24.1524 126.734 24.7828 125.673 25.2193C124.612 25.6558 123.406 25.8741 122.032 25.8741C120.682 25.8741 119.356 25.6073 118.078 25.0738C117.041 24.6373 116.124 24.0796 115.305 23.4249C114.967 23.1581 114.895 22.6732 115.088 22.2852C115.353 21.8002 115.98 21.679 116.414 22.0184C117.089 22.5519 117.836 22.9884 118.656 23.3521C119.814 23.8371 120.947 24.0796 122.056 24.0796C123.551 24.0796 124.708 23.7886 125.601 23.1581C126.469 22.5519 126.903 21.7274 126.903 20.709C126.903 19.8845 126.686 19.2055 126.227 18.6963C125.793 18.1628 125.239 17.7748 124.588 17.4838C123.937 17.1929 123.021 16.8776 121.863 16.5139C120.537 16.1016 119.5 15.7137 118.68 15.3499C117.885 14.9862 117.21 14.4527 116.655 13.7252C116.1 12.9978 115.811 12.0763 115.811 10.9123C115.811 9.91811 116.1 9.04514 116.655 8.31766C117.21 7.56594 117.981 7.00821 118.994 6.59597C120.007 6.18374 121.164 5.98975 122.466 5.98975C123.527 5.98975 124.588 6.15949 125.649 6.47473C126.396 6.69297 127.071 6.95971 127.698 7.27495C128.132 7.49319 128.325 8.05092 128.108 8.48741L128.084 8.53591C127.867 8.97239 127.313 9.14214 126.879 8.92389C126.276 8.6329 125.673 8.39041 125.022 8.19642Z" fill="#19184C"/>
</g>
<defs>
<clipPath id="clip0_227_1092">
<rect width="129" height="31.8876" fill="white"/>
</clipPath>
</defs>
</svg>
