<svg width="67" height="54" viewBox="0 0 67 54" fill="none" xmlns="http://www.w3.org/2000/svg">
<path d="M6.37984 51.5144L64.3878 6.81149C65.548 5.91743 65.7657 4.2367 64.8717 3.07654C63.9776 1.91638 62.2969 1.69867 61.1367 2.59272L3.12872 47.2956C1.96857 48.1897 1.75084 49.8704 2.6449 51.0306C3.53896 52.1907 5.21969 52.4085 6.37984 51.5144Z" fill="black"/>
<path d="M60.9073 51.5144L2.89928 6.81149C1.73912 5.91743 1.5214 4.2367 2.41546 3.07654C3.30951 1.91638 4.99024 1.69867 6.1504 2.59272L64.1584 47.2956C65.3185 48.1897 65.5363 49.8704 64.6422 51.0306C63.7482 52.1907 62.0674 52.4085 60.9073 51.5144Z" fill="black"/>
</svg>
