<svg width="79" height="49" viewBox="0 0 79 49" fill="none" xmlns="http://www.w3.org/2000/svg">
<path d="M75.8975 5.79318H2.66307C1.19838 5.79318 0 4.5948 0 3.13011C0 1.66542 1.19838 0.467041 2.66307 0.467041H75.8975C77.3622 0.467041 78.5605 1.66542 78.5605 3.13011C78.5605 4.5948 77.3622 5.79318 75.8975 5.79318Z" fill="black"/>
<path d="M74.0625 27.0977H4.9375C2.22187 27.0977 0 25.8994 0 24.4347C0 22.97 2.22187 21.7716 4.9375 21.7716H74.0625C76.7781 21.7716 79 22.97 79 24.4347C79 25.8994 76.7781 27.0977 74.0625 27.0977Z" fill="black"/>
<path d="M75.8975 48.4023H2.66307C1.19838 48.4023 0 47.2039 0 45.7392C0 44.2746 1.19838 43.0762 2.66307 43.0762H75.8975C77.3622 43.0762 78.5605 44.2746 78.5605 45.7392C78.5605 47.2039 77.3622 48.4023 75.8975 48.4023Z" fill="black"/>
</svg>
