<svg width="20" height="20" viewBox="0 0 20 20" fill="none" xmlns="http://www.w3.org/2000/svg">
<circle cx="9.79167" cy="9.79167" r="9.79167" fill="#6ECCE8"/>
<path d="M7.50391 10.8672L6.12891 10.5234C6.12891 10.5234 6.12891 9.49219 6.47266 8.46094C6.81641 7.42969 9.22266 7.42969 9.22266 7.42969M8.87891 12.2422L9.22266 13.6172C9.22266 13.6172 10.2539 13.6172 11.2852 13.2734C12.3164 12.9297 12.3164 10.5234 12.3164 10.5234M7.50391 10.8672L8.87891 12.2422C8.87891 12.2422 12.3164 10.8672 13.3477 9.14844C14.3789 7.42969 14.3789 5.36719 14.3789 5.36719C14.3789 5.36719 12.3164 5.36719 10.5977 6.39844C8.87891 7.42969 7.50391 10.8672 7.50391 10.8672Z" stroke="#160B22" stroke-width="0.7" stroke-linecap="round" stroke-linejoin="round"/>
<path d="M5.78516 13.9609L7.16016 13.2734L6.47266 12.5859L5.78516 13.9609Z" fill="#160B22" stroke="#160B22" stroke-width="0.7" stroke-linecap="round" stroke-linejoin="round"/>
<path d="M11.6289 8.46094C11.8188 8.46094 11.9727 8.30704 11.9727 8.11719C11.9727 7.92734 11.8188 7.77344 11.6289 7.77344C11.4391 7.77344 11.2852 7.92734 11.2852 8.11719C11.2852 8.30704 11.4391 8.46094 11.6289 8.46094Z" fill="#160B22" stroke="#160B22" stroke-width="0.7" stroke-linecap="round" stroke-linejoin="round"/>
</svg>
