<svg width="1407" height="46" viewBox="0 0 1407 46" fill="none" xmlns="http://www.w3.org/2000/svg">
<g opacity="0.4">
<path d="M0 0H15.3679L75 46H59.6321L0 0Z" fill="url(#paint0_linear_671_12080)"/>
<path d="M37 0H52.3679L112 46H96.6321L37 0Z" fill="url(#paint1_linear_671_12080)"/>
<path d="M74 0H89.3679L149 46H133.632L74 0Z" fill="url(#paint2_linear_671_12080)"/>
<path d="M111 0H126.368L186 46H170.632L111 0Z" fill="url(#paint3_linear_671_12080)"/>
<path d="M148 0H163.368L223 46H207.632L148 0Z" fill="url(#paint4_linear_671_12080)"/>
<path d="M185 0H200.368L260 46H244.632L185 0Z" fill="url(#paint5_linear_671_12080)"/>
<path d="M222 0H237.368L297 46H281.632L222 0Z" fill="url(#paint6_linear_671_12080)"/>
<path d="M259 0H274.368L334 46H318.632L259 0Z" fill="url(#paint7_linear_671_12080)"/>
<path d="M296 0H311.368L371 46H355.632L296 0Z" fill="url(#paint8_linear_671_12080)"/>
<path d="M333 0H348.368L408 46H392.632L333 0Z" fill="url(#paint9_linear_671_12080)"/>
<path d="M370 0H385.368L445 46H429.632L370 0Z" fill="url(#paint10_linear_671_12080)"/>
<path d="M407 0H422.368L482 46H466.632L407 0Z" fill="url(#paint11_linear_671_12080)"/>
<path d="M444 0H459.368L519 46H503.632L444 0Z" fill="url(#paint12_linear_671_12080)"/>
<path d="M481 0H496.368L556 46H540.632L481 0Z" fill="url(#paint13_linear_671_12080)"/>
<path d="M518 0H533.368L593 46H577.632L518 0Z" fill="url(#paint14_linear_671_12080)"/>
<path d="M555 0H570.368L630 46H614.632L555 0Z" fill="url(#paint15_linear_671_12080)"/>
<path d="M592 0H607.368L667 46H651.632L592 0Z" fill="url(#paint16_linear_671_12080)"/>
<path d="M629 0H644.368L704 46H688.632L629 0Z" fill="url(#paint17_linear_671_12080)"/>
<path d="M666 0H681.368L741 46H725.632L666 0Z" fill="url(#paint18_linear_671_12080)"/>
<path d="M703 0H718.368L778 46H762.632L703 0Z" fill="url(#paint19_linear_671_12080)"/>
<path d="M740 0H755.368L815 46H799.632L740 0Z" fill="url(#paint20_linear_671_12080)"/>
<path d="M777 0H792.368L852 46H836.632L777 0Z" fill="url(#paint21_linear_671_12080)"/>
<path d="M814 0H829.368L889 46H873.632L814 0Z" fill="url(#paint22_linear_671_12080)"/>
<path d="M851 0H866.368L926 46H910.632L851 0Z" fill="url(#paint23_linear_671_12080)"/>
<path d="M888 0H903.368L963 46H947.632L888 0Z" fill="url(#paint24_linear_671_12080)"/>
<path d="M925 0H940.368L1000 46H984.632L925 0Z" fill="url(#paint25_linear_671_12080)"/>
<path d="M962 0H977.368L1037 46H1021.63L962 0Z" fill="url(#paint26_linear_671_12080)"/>
<path d="M999 0H1014.37L1074 46H1058.63L999 0Z" fill="url(#paint27_linear_671_12080)"/>
<path d="M1036 0H1051.37L1111 46H1095.63L1036 0Z" fill="url(#paint28_linear_671_12080)"/>
<path d="M1073 0H1088.37L1148 46H1132.63L1073 0Z" fill="url(#paint29_linear_671_12080)"/>
<path d="M1110 0H1125.37L1185 46H1169.63L1110 0Z" fill="url(#paint30_linear_671_12080)"/>
<path d="M1147 0H1162.37L1222 46H1206.63L1147 0Z" fill="url(#paint31_linear_671_12080)"/>
<path d="M1184 0H1199.37L1259 46H1243.63L1184 0Z" fill="url(#paint32_linear_671_12080)"/>
<path d="M1221 0H1236.37L1296 46H1280.63L1221 0Z" fill="url(#paint33_linear_671_12080)"/>
<path d="M1258 0H1273.37L1333 46H1317.63L1258 0Z" fill="url(#paint34_linear_671_12080)"/>
<path d="M1295 0H1310.37L1370 46H1354.63L1295 0Z" fill="url(#paint35_linear_671_12080)"/>
<path d="M1332 0H1347.37L1407 46H1391.63L1332 0Z" fill="url(#paint36_linear_671_12080)"/>
</g>
<defs>
<linearGradient id="paint0_linear_671_12080" x1="37.5" y1="-10.608" x2="37.5" y2="56.608" gradientUnits="userSpaceOnUse">
<stop stop-color="#C4C4C4"/>
<stop offset="1" stop-color="#C4C4C4" stop-opacity="0.12"/>
</linearGradient>
<linearGradient id="paint1_linear_671_12080" x1="74.5" y1="-10.608" x2="74.5" y2="56.608" gradientUnits="userSpaceOnUse">
<stop stop-color="#C4C4C4"/>
<stop offset="1" stop-color="#C4C4C4" stop-opacity="0.12"/>
</linearGradient>
<linearGradient id="paint2_linear_671_12080" x1="111.5" y1="-10.608" x2="111.5" y2="56.608" gradientUnits="userSpaceOnUse">
<stop stop-color="#C4C4C4"/>
<stop offset="1" stop-color="#C4C4C4" stop-opacity="0.12"/>
</linearGradient>
<linearGradient id="paint3_linear_671_12080" x1="148.5" y1="-10.608" x2="148.5" y2="56.608" gradientUnits="userSpaceOnUse">
<stop stop-color="#C4C4C4"/>
<stop offset="1" stop-color="#C4C4C4" stop-opacity="0.12"/>
</linearGradient>
<linearGradient id="paint4_linear_671_12080" x1="185.5" y1="-10.608" x2="185.5" y2="56.608" gradientUnits="userSpaceOnUse">
<stop stop-color="#C4C4C4"/>
<stop offset="1" stop-color="#C4C4C4" stop-opacity="0.12"/>
</linearGradient>
<linearGradient id="paint5_linear_671_12080" x1="222.5" y1="-10.608" x2="222.5" y2="56.608" gradientUnits="userSpaceOnUse">
<stop stop-color="#C4C4C4"/>
<stop offset="1" stop-color="#C4C4C4" stop-opacity="0.12"/>
</linearGradient>
<linearGradient id="paint6_linear_671_12080" x1="259.5" y1="-10.608" x2="259.5" y2="56.608" gradientUnits="userSpaceOnUse">
<stop stop-color="#C4C4C4"/>
<stop offset="1" stop-color="#C4C4C4" stop-opacity="0.12"/>
</linearGradient>
<linearGradient id="paint7_linear_671_12080" x1="296.5" y1="-10.608" x2="296.5" y2="56.608" gradientUnits="userSpaceOnUse">
<stop stop-color="#C4C4C4"/>
<stop offset="1" stop-color="#C4C4C4" stop-opacity="0.12"/>
</linearGradient>
<linearGradient id="paint8_linear_671_12080" x1="333.5" y1="-10.608" x2="333.5" y2="56.608" gradientUnits="userSpaceOnUse">
<stop stop-color="#C4C4C4"/>
<stop offset="1" stop-color="#C4C4C4" stop-opacity="0.12"/>
</linearGradient>
<linearGradient id="paint9_linear_671_12080" x1="370.5" y1="-10.608" x2="370.5" y2="56.608" gradientUnits="userSpaceOnUse">
<stop stop-color="#C4C4C4"/>
<stop offset="1" stop-color="#C4C4C4" stop-opacity="0.12"/>
</linearGradient>
<linearGradient id="paint10_linear_671_12080" x1="407.5" y1="-10.608" x2="407.5" y2="56.608" gradientUnits="userSpaceOnUse">
<stop stop-color="#C4C4C4"/>
<stop offset="1" stop-color="#C4C4C4" stop-opacity="0.12"/>
</linearGradient>
<linearGradient id="paint11_linear_671_12080" x1="444.5" y1="-10.608" x2="444.5" y2="56.608" gradientUnits="userSpaceOnUse">
<stop stop-color="#C4C4C4"/>
<stop offset="1" stop-color="#C4C4C4" stop-opacity="0.12"/>
</linearGradient>
<linearGradient id="paint12_linear_671_12080" x1="481.5" y1="-10.608" x2="481.5" y2="56.608" gradientUnits="userSpaceOnUse">
<stop stop-color="#C4C4C4"/>
<stop offset="1" stop-color="#C4C4C4" stop-opacity="0.12"/>
</linearGradient>
<linearGradient id="paint13_linear_671_12080" x1="518.5" y1="-10.608" x2="518.5" y2="56.608" gradientUnits="userSpaceOnUse">
<stop stop-color="#C4C4C4"/>
<stop offset="1" stop-color="#C4C4C4" stop-opacity="0.12"/>
</linearGradient>
<linearGradient id="paint14_linear_671_12080" x1="555.5" y1="-10.608" x2="555.5" y2="56.608" gradientUnits="userSpaceOnUse">
<stop stop-color="#C4C4C4"/>
<stop offset="1" stop-color="#C4C4C4" stop-opacity="0.12"/>
</linearGradient>
<linearGradient id="paint15_linear_671_12080" x1="592.5" y1="-10.608" x2="592.5" y2="56.608" gradientUnits="userSpaceOnUse">
<stop stop-color="#C4C4C4"/>
<stop offset="1" stop-color="#C4C4C4" stop-opacity="0.12"/>
</linearGradient>
<linearGradient id="paint16_linear_671_12080" x1="629.5" y1="-10.608" x2="629.5" y2="56.608" gradientUnits="userSpaceOnUse">
<stop stop-color="#C4C4C4"/>
<stop offset="1" stop-color="#C4C4C4" stop-opacity="0.12"/>
</linearGradient>
<linearGradient id="paint17_linear_671_12080" x1="666.5" y1="-10.608" x2="666.5" y2="56.608" gradientUnits="userSpaceOnUse">
<stop stop-color="#C4C4C4"/>
<stop offset="1" stop-color="#C4C4C4" stop-opacity="0.12"/>
</linearGradient>
<linearGradient id="paint18_linear_671_12080" x1="703.5" y1="-10.608" x2="703.5" y2="56.608" gradientUnits="userSpaceOnUse">
<stop stop-color="#C4C4C4"/>
<stop offset="1" stop-color="#C4C4C4" stop-opacity="0.12"/>
</linearGradient>
<linearGradient id="paint19_linear_671_12080" x1="740.5" y1="-10.608" x2="740.5" y2="56.608" gradientUnits="userSpaceOnUse">
<stop stop-color="#C4C4C4"/>
<stop offset="1" stop-color="#C4C4C4" stop-opacity="0.12"/>
</linearGradient>
<linearGradient id="paint20_linear_671_12080" x1="777.5" y1="-10.608" x2="777.5" y2="56.608" gradientUnits="userSpaceOnUse">
<stop stop-color="#C4C4C4"/>
<stop offset="1" stop-color="#C4C4C4" stop-opacity="0.12"/>
</linearGradient>
<linearGradient id="paint21_linear_671_12080" x1="814.5" y1="-10.608" x2="814.5" y2="56.608" gradientUnits="userSpaceOnUse">
<stop stop-color="#C4C4C4"/>
<stop offset="1" stop-color="#C4C4C4" stop-opacity="0.12"/>
</linearGradient>
<linearGradient id="paint22_linear_671_12080" x1="851.5" y1="-10.608" x2="851.5" y2="56.608" gradientUnits="userSpaceOnUse">
<stop stop-color="#C4C4C4"/>
<stop offset="1" stop-color="#C4C4C4" stop-opacity="0.12"/>
</linearGradient>
<linearGradient id="paint23_linear_671_12080" x1="888.5" y1="-10.608" x2="888.5" y2="56.608" gradientUnits="userSpaceOnUse">
<stop stop-color="#C4C4C4"/>
<stop offset="1" stop-color="#C4C4C4" stop-opacity="0.12"/>
</linearGradient>
<linearGradient id="paint24_linear_671_12080" x1="925.5" y1="-10.608" x2="925.5" y2="56.608" gradientUnits="userSpaceOnUse">
<stop stop-color="#C4C4C4"/>
<stop offset="1" stop-color="#C4C4C4" stop-opacity="0.12"/>
</linearGradient>
<linearGradient id="paint25_linear_671_12080" x1="962.5" y1="-10.608" x2="962.5" y2="56.608" gradientUnits="userSpaceOnUse">
<stop stop-color="#C4C4C4"/>
<stop offset="1" stop-color="#C4C4C4" stop-opacity="0.12"/>
</linearGradient>
<linearGradient id="paint26_linear_671_12080" x1="999.5" y1="-10.608" x2="999.5" y2="56.608" gradientUnits="userSpaceOnUse">
<stop stop-color="#C4C4C4"/>
<stop offset="1" stop-color="#C4C4C4" stop-opacity="0.12"/>
</linearGradient>
<linearGradient id="paint27_linear_671_12080" x1="1036.5" y1="-10.608" x2="1036.5" y2="56.608" gradientUnits="userSpaceOnUse">
<stop stop-color="#C4C4C4"/>
<stop offset="1" stop-color="#C4C4C4" stop-opacity="0.12"/>
</linearGradient>
<linearGradient id="paint28_linear_671_12080" x1="1073.5" y1="-10.608" x2="1073.5" y2="56.608" gradientUnits="userSpaceOnUse">
<stop stop-color="#C4C4C4"/>
<stop offset="1" stop-color="#C4C4C4" stop-opacity="0.12"/>
</linearGradient>
<linearGradient id="paint29_linear_671_12080" x1="1110.5" y1="-10.608" x2="1110.5" y2="56.608" gradientUnits="userSpaceOnUse">
<stop stop-color="#C4C4C4"/>
<stop offset="1" stop-color="#C4C4C4" stop-opacity="0.12"/>
</linearGradient>
<linearGradient id="paint30_linear_671_12080" x1="1147.5" y1="-10.608" x2="1147.5" y2="56.608" gradientUnits="userSpaceOnUse">
<stop stop-color="#C4C4C4"/>
<stop offset="1" stop-color="#C4C4C4" stop-opacity="0.12"/>
</linearGradient>
<linearGradient id="paint31_linear_671_12080" x1="1184.5" y1="-10.608" x2="1184.5" y2="56.608" gradientUnits="userSpaceOnUse">
<stop stop-color="#C4C4C4"/>
<stop offset="1" stop-color="#C4C4C4" stop-opacity="0.12"/>
</linearGradient>
<linearGradient id="paint32_linear_671_12080" x1="1221.5" y1="-10.608" x2="1221.5" y2="56.608" gradientUnits="userSpaceOnUse">
<stop stop-color="#C4C4C4"/>
<stop offset="1" stop-color="#C4C4C4" stop-opacity="0.12"/>
</linearGradient>
<linearGradient id="paint33_linear_671_12080" x1="1258.5" y1="-10.608" x2="1258.5" y2="56.608" gradientUnits="userSpaceOnUse">
<stop stop-color="#C4C4C4"/>
<stop offset="1" stop-color="#C4C4C4" stop-opacity="0.12"/>
</linearGradient>
<linearGradient id="paint34_linear_671_12080" x1="1295.5" y1="-10.608" x2="1295.5" y2="56.608" gradientUnits="userSpaceOnUse">
<stop stop-color="#C4C4C4"/>
<stop offset="1" stop-color="#C4C4C4" stop-opacity="0.12"/>
</linearGradient>
<linearGradient id="paint35_linear_671_12080" x1="1332.5" y1="-10.608" x2="1332.5" y2="56.608" gradientUnits="userSpaceOnUse">
<stop stop-color="#C4C4C4"/>
<stop offset="1" stop-color="#C4C4C4" stop-opacity="0.12"/>
</linearGradient>
<linearGradient id="paint36_linear_671_12080" x1="1369.5" y1="-10.608" x2="1369.5" y2="56.608" gradientUnits="userSpaceOnUse">
<stop stop-color="#C4C4C4"/>
<stop offset="1" stop-color="#C4C4C4" stop-opacity="0.12"/>
</linearGradient>
</defs>
</svg>
