<svg width="118" height="26" viewBox="0 0 118 26" fill="none" xmlns="http://www.w3.org/2000/svg">
<path d="M37.2206 20.2819V3.05424H44.2101C45.4735 3.05424 46.663 3.28394 47.7787 3.74335C48.8944 4.18635 49.8542 4.79342 50.6582 5.56456C51.4786 6.33571 52.1267 7.25452 52.6025 8.321C53.0783 9.37107 53.3162 10.5032 53.3162 11.7173C53.3162 12.8986 53.0783 14.0143 52.6025 15.0644C52.1267 16.1145 51.4786 17.0251 50.6582 17.7962C49.8542 18.5674 48.8944 19.1745 47.7787 19.6175C46.663 20.0605 45.4735 20.2819 44.2101 20.2819H37.2206ZM44.1117 6.79512H41.4537V16.5411H44.1117C44.7844 16.5411 45.416 16.418 46.0067 16.1719C46.5974 15.9258 47.106 15.5895 47.5326 15.1629C47.9756 14.7199 48.3201 14.203 48.5663 13.6124C48.8124 13.0217 48.9354 12.39 48.9354 11.7173C48.9354 11.0282 48.8124 10.3883 48.5663 9.79766C48.3201 9.19059 47.9756 8.66555 47.5326 8.22255C47.106 7.77956 46.5974 7.435 46.0067 7.18889C45.416 6.92637 44.7844 6.79512 44.1117 6.79512Z" fill="white"/>
<path d="M67.2981 18.5592C66.4778 19.2483 65.6328 19.7487 64.7632 20.0605C63.91 20.3722 62.942 20.5281 61.8591 20.5281C60.8746 20.5281 59.9476 20.3558 59.078 20.0112C58.2085 19.6667 57.4537 19.1909 56.8138 18.5838C56.1904 17.9767 55.6899 17.263 55.3126 16.4426C54.9516 15.6059 54.7711 14.7199 54.7711 13.7846C54.7711 12.8494 54.9434 11.9716 55.2879 11.1513C55.6489 10.3145 56.1329 9.59257 56.74 8.9855C57.3471 8.37842 58.0608 7.90261 58.8812 7.55806C59.7179 7.2135 60.6121 7.04123 61.5638 7.04123C62.5154 7.04123 63.3932 7.22171 64.1971 7.58267C65.0011 7.94363 65.6902 8.43585 66.2645 9.05933C66.8551 9.68281 67.3145 10.4375 67.6427 11.3235C67.9708 12.1931 68.1349 13.1366 68.1349 14.1538V15.1382H58.8565C59.1191 15.7453 59.5292 16.2457 60.0871 16.6395C60.6449 17.0169 61.3012 17.2056 62.056 17.2056C62.5974 17.2056 63.0896 17.1235 63.5326 16.9595C63.9756 16.779 64.353 16.5329 64.6647 16.2211L67.2981 18.5592ZM61.4899 10.2899C60.8336 10.2899 60.2676 10.4704 59.7918 10.8313C59.3159 11.1923 58.9796 11.7009 58.7827 12.3572H64.2217C64.0084 11.7337 63.6557 11.2333 63.1635 10.8559C62.6877 10.4786 62.1298 10.2899 61.4899 10.2899Z" fill="white"/>
<path d="M70.1955 20.2819V3.05424H83.8792V6.72128H74.4286V9.94533H80.729V13.4893H74.4286V20.2819H70.1955Z" fill="white"/>
<path d="M87.5662 6.05679C86.9592 6.05679 86.4423 5.84349 86.0158 5.4169C85.5892 4.99031 85.3759 4.47348 85.3759 3.8664C85.3759 3.25933 85.5892 2.7425 86.0158 2.31591C86.4423 1.88932 86.9592 1.67603 87.5662 1.67603C88.1733 1.67603 88.6902 1.88932 89.1167 2.31591C89.5433 2.7425 89.7566 3.25933 89.7566 3.8664C89.7566 4.47348 89.5433 4.99031 89.1167 5.4169C88.6902 5.84349 88.1733 6.05679 87.5662 6.05679ZM89.5597 7.26273V20.2819H85.5728V7.26273H89.5597Z" fill="white"/>
<path d="M93.3009 18.0851C93.6263 18.0851 93.9039 18.1999 94.1336 18.4296C94.3633 18.6593 94.4782 18.9369 94.4782 19.2623C94.4782 19.5781 94.3633 19.8509 94.1336 20.0806C93.9039 20.3103 93.6263 20.4252 93.3009 20.4252C92.9851 20.4252 92.7123 20.3103 92.4826 20.0806C92.2529 19.8509 92.1381 19.5781 92.1381 19.2623C92.1381 18.9369 92.2529 18.6593 92.4826 18.4296C92.7123 18.1999 92.9851 18.0851 93.3009 18.0851Z" fill="white"/>
<path d="M95.1493 16.5489C95.1493 16.0034 95.2498 15.4961 95.4508 15.0272C95.6614 14.5486 95.9437 14.1371 96.2978 13.7925C96.6615 13.4384 97.0874 13.1608 97.5756 12.9598C98.0637 12.7588 98.5853 12.6584 99.1404 12.6584C99.6955 12.6584 100.217 12.7588 100.705 12.9598C101.193 13.1608 101.614 13.4384 101.969 13.7925C102.332 14.1371 102.615 14.5486 102.816 15.0272C103.026 15.4961 103.131 16.0034 103.131 16.5489C103.131 17.0945 103.026 17.6065 102.816 18.0851C102.615 18.5541 102.332 18.9608 101.969 19.3054C101.614 19.6499 101.193 19.9227 100.705 20.1237C100.217 20.3247 99.6955 20.4252 99.1404 20.4252C98.5853 20.4252 98.0637 20.3247 97.5756 20.1237C97.0874 19.9227 96.6615 19.6499 96.2978 19.3054C95.9437 18.9608 95.6614 18.5541 95.4508 18.0851C95.2498 17.6065 95.1493 17.0945 95.1493 16.5489ZM99.1404 18.7168C99.7147 18.7168 100.203 18.5062 100.605 18.0851C101.007 17.664 101.208 17.1519 101.208 16.5489C101.208 15.9364 101.007 15.4196 100.605 14.9984C100.203 14.5773 99.7147 14.3668 99.1404 14.3668C98.5662 14.3668 98.078 14.5773 97.6761 14.9984C97.2741 15.4196 97.0731 15.9364 97.0731 16.5489C97.0731 17.1519 97.2741 17.664 97.6761 18.0851C98.078 18.5062 98.5662 18.7168 99.1404 18.7168Z" fill="white"/>
<path d="M104.34 20.2816V12.8019H106.307V13.6202C106.547 13.2948 106.834 13.0508 107.169 12.8881C107.513 12.7158 107.891 12.6296 108.303 12.6296C108.494 12.6392 108.652 12.6584 108.777 12.6871C108.911 12.7062 109.025 12.7445 109.121 12.8019V14.5247C108.978 14.4577 108.82 14.4098 108.647 14.3811C108.475 14.3428 108.298 14.3237 108.116 14.3237C107.733 14.3237 107.379 14.4194 107.054 14.6108C106.738 14.8022 106.489 15.0798 106.307 15.4435V20.2816H104.34Z" fill="white"/>
<path d="M113.268 20.3247C112.741 20.3247 112.244 20.2242 111.775 20.0232C111.315 19.8222 110.913 19.5494 110.569 19.2049C110.234 18.8603 109.966 18.4583 109.765 17.9989C109.573 17.53 109.478 17.0275 109.478 16.4915C109.478 15.9651 109.578 15.4722 109.779 15.0128C109.98 14.5438 110.253 14.1371 110.598 13.7925C110.942 13.448 111.349 13.18 111.818 12.9886C112.287 12.7876 112.789 12.6871 113.325 12.6871C113.698 12.6871 114.053 12.7397 114.388 12.845C114.732 12.9503 115.053 13.0986 115.349 13.29V12.8019H117.288V20.2816C117.288 21.2674 116.967 22.0283 116.326 22.5643C115.694 23.1003 114.78 23.3682 113.584 23.3682C113.009 23.3682 112.454 23.3108 111.918 23.196C111.392 23.0811 110.909 22.9136 110.468 22.6935L111.157 21.1574C111.569 21.3583 111.971 21.5067 112.363 21.6024C112.756 21.7077 113.148 21.7603 113.541 21.7603C114.124 21.7603 114.565 21.6311 114.861 21.3727C115.168 21.1239 115.321 20.7554 115.321 20.2673V19.6499C115.024 19.8701 114.699 20.0376 114.345 20.1524C114 20.2673 113.641 20.3247 113.268 20.3247ZM111.416 16.4915C111.416 17.0945 111.622 17.6065 112.033 18.0277C112.454 18.4488 112.966 18.6593 113.569 18.6593C113.923 18.6593 114.249 18.6019 114.546 18.4871C114.842 18.3626 115.101 18.1951 115.321 17.9846V15.0415C115.11 14.831 114.852 14.6683 114.546 14.5534C114.239 14.429 113.919 14.3668 113.584 14.3668C112.981 14.3668 112.469 14.5725 112.048 14.9841C111.626 15.3956 111.416 15.8981 111.416 16.4915Z" fill="white"/>
<g clip-path="url(#clip0_2_254)">
<path d="M3.52759 2.26514V4.00918C3.52759 4.06465 3.53859 4.11957 3.55996 4.17081C3.58133 4.22205 3.61266 4.26861 3.65215 4.30781C3.69164 4.34701 3.73851 4.3781 3.7901 4.39929C3.84168 4.42048 3.89696 4.43135 3.95278 4.4313H21.7632C21.8563 4.43139 21.9469 4.40106 22.021 4.34496C22.0951 4.28886 22.1486 4.21012 22.1733 4.12085C22.1979 4.03158 22.1923 3.93674 22.1574 3.85092C22.1225 3.76511 22.0601 3.69307 21.98 3.64592C19.8398 2.44454 17.1019 1.84357 13.7663 1.84302H3.95278C3.84008 1.84302 3.732 1.88748 3.65228 1.96663C3.57255 2.04578 3.5277 2.15315 3.52759 2.26514Z" fill="#00EFC4"/>
<path d="M3.52759 7.4425V9.18653C3.5277 9.29853 3.57255 9.40589 3.65228 9.48504C3.732 9.56419 3.84008 9.60866 3.95278 9.60866H26.1087C26.1766 9.6083 26.2435 9.59186 26.3038 9.56069C26.3641 9.52952 26.4161 9.48453 26.4554 9.42943C26.4947 9.37433 26.5202 9.31072 26.5298 9.24387C26.5395 9.17701 26.5329 9.10883 26.5108 9.04499C26.2971 8.41342 26.0201 7.80479 25.6839 7.2283C25.6461 7.16446 25.5921 7.11159 25.5273 7.07496C25.4625 7.03833 25.3892 7.01922 25.3146 7.01954H3.95278C3.89691 7.01954 3.84158 7.03048 3.78997 7.05174C3.73836 7.073 3.69147 7.10416 3.65198 7.14345C3.6125 7.18273 3.58118 7.22935 3.55983 7.28067C3.53849 7.33198 3.52753 7.38697 3.52759 7.4425Z" fill="#00EFC4"/>
<path d="M26.7212 12.1973H3.95278C3.89696 12.1972 3.84168 12.2081 3.7901 12.2293C3.73851 12.2505 3.69164 12.2816 3.65215 12.3208C3.61266 12.36 3.58133 12.4065 3.55996 12.4578C3.53859 12.509 3.52759 12.5639 3.52759 12.6194V14.3634C3.5277 14.4754 3.57255 14.5828 3.65228 14.6619C3.732 14.7411 3.84008 14.7856 3.95278 14.7856H26.7011C26.8079 14.7861 26.911 14.7465 26.9897 14.6748C27.0683 14.603 27.1168 14.5043 27.1254 14.3985C27.1506 14.0549 27.1645 13.7058 27.1645 13.3497C27.1645 13.0964 27.1583 12.8475 27.146 12.6031C27.1413 12.4941 27.0946 12.3911 27.0155 12.3156C26.9364 12.24 26.831 12.1976 26.7212 12.1973Z" fill="#00EFC4"/>
<path d="M25.9746 17.3743H3.95278C3.89696 17.3742 3.84168 17.3851 3.7901 17.4063C3.73851 17.4275 3.69164 17.4586 3.65215 17.4978C3.61266 17.537 3.58133 17.5835 3.55996 17.6348C3.53859 17.686 3.52759 17.7409 3.52759 17.7964V19.5404C3.5277 19.6524 3.57255 19.7598 3.65228 19.8389C3.732 19.9181 3.84008 19.9626 3.95278 19.9626H25.1474C25.2212 19.9628 25.2937 19.944 25.3579 19.908C25.4222 19.872 25.4759 19.82 25.5138 19.7571C25.6171 19.5834 25.7167 19.4064 25.8112 19.2244C26.0247 18.8106 26.2124 18.3842 26.3734 17.9475C26.3975 17.8834 26.4056 17.8145 26.3971 17.7466C26.3886 17.6786 26.3638 17.6138 26.3246 17.5575C26.2854 17.5012 26.2332 17.4551 26.1722 17.4232C26.1113 17.3913 26.0435 17.3745 25.9746 17.3743Z" fill="#00EFC4"/>
<path d="M21.996 23.3348L22.0077 23.3277C22.0851 23.2784 22.1442 23.2055 22.1764 23.12C22.2085 23.0344 22.2118 22.9408 22.1859 22.8532C22.1599 22.7656 22.1061 22.6888 22.0325 22.6341C21.9589 22.5795 21.8694 22.5501 21.7775 22.5503H3.95278C3.89696 22.5502 3.84168 22.5611 3.7901 22.5823C3.73851 22.6035 3.69164 22.6346 3.65215 22.6738C3.61266 22.713 3.58133 22.7595 3.55996 22.8108C3.53859 22.862 3.52759 22.917 3.52759 22.9724V24.716C3.52759 24.8281 3.57239 24.9356 3.65212 25.0148C3.73186 25.0941 3.84001 25.1386 3.95278 25.1386H12.8656C14.65 25.1503 16.432 25.0078 18.1916 24.7127C19.5342 24.4899 20.8239 24.0228 21.996 23.3348Z" fill="#00EFC4"/>
<path d="M0.348511 0.422126V2.16616C0.348511 2.27812 0.393261 2.38549 0.472918 2.46465C0.552576 2.54381 0.660623 2.58829 0.773276 2.58829H17.3792C17.4724 2.58847 17.563 2.5582 17.6372 2.50214C17.7113 2.44607 17.7649 2.36733 17.7896 2.27804C17.8143 2.18874 17.8087 2.09386 17.7738 2.00801C17.7389 1.92215 17.6766 1.85008 17.5964 1.80291C15.4559 0.601529 12.718 0.00055671 9.38272 0H0.773276C0.717496 0 0.662258 0.0109217 0.610724 0.0321355C0.55919 0.0533493 0.512361 0.0844449 0.472918 0.123643C0.433476 0.162841 0.402193 0.209374 0.380847 0.260588C0.359501 0.311803 0.348511 0.366692 0.348511 0.422126Z" fill="#096FB5"/>
<path d="M0.348513 5.5999V7.34393C0.348513 7.45588 0.393263 7.56325 0.47292 7.64242C0.552578 7.72158 0.660625 7.76605 0.773278 7.76605H21.7246C21.7926 7.76577 21.8596 7.74937 21.9199 7.71823C21.9803 7.68709 22.0323 7.6421 22.0716 7.587C22.111 7.53189 22.1365 7.46825 22.1462 7.40136C22.1558 7.33447 22.1493 7.26627 22.1271 7.20239C21.9134 6.57066 21.6362 5.9619 21.2999 5.38528C21.2621 5.32144 21.2081 5.26857 21.1433 5.23194C21.0785 5.19531 21.0051 5.1762 20.9306 5.17652H0.773278C0.717392 5.17652 0.662048 5.18748 0.610431 5.20877C0.558815 5.23006 0.511943 5.26127 0.472484 5.3006C0.433025 5.33993 0.401761 5.38661 0.38049 5.43797C0.359218 5.48933 0.348347 5.54436 0.348513 5.5999Z" fill="#096FB5"/>
<path d="M22.3372 10.3542H0.773276C0.660623 10.3542 0.552576 10.3987 0.472918 10.4779C0.393261 10.557 0.348511 10.6644 0.348511 10.7764V12.5204C0.348511 12.6324 0.393261 12.7397 0.472918 12.8189C0.552576 12.8981 0.660623 12.9425 0.773276 12.9425H22.317C22.4238 12.9431 22.5269 12.9035 22.6056 12.8317C22.6843 12.76 22.7328 12.6613 22.7414 12.5555C22.7666 12.2119 22.7804 11.8628 22.7804 11.5066C22.7804 11.2532 22.7737 11.0056 22.762 10.7601C22.7572 10.6512 22.7104 10.5482 22.6313 10.4727C22.5523 10.3971 22.4469 10.3547 22.3372 10.3542Z" fill="#096FB5"/>
<path d="M21.5906 15.5315H0.773276C0.660623 15.5315 0.552576 15.576 0.472918 15.6551C0.393261 15.7343 0.348511 15.8417 0.348511 15.9536V17.6977C0.348511 17.8096 0.393261 17.917 0.472918 17.9961C0.552576 18.0753 0.660623 18.1198 0.773276 18.1198H20.7629C20.8367 18.1201 20.9093 18.1013 20.9735 18.0652C21.0377 18.0292 21.0914 17.9772 21.1293 17.9144C21.2327 17.7407 21.3322 17.5636 21.4268 17.3816C21.6403 16.9678 21.828 16.5414 21.9889 16.1048C22.013 16.0407 22.0212 15.9718 22.0127 15.9039C22.0042 15.836 21.9794 15.7711 21.9403 15.7149C21.9012 15.6586 21.8489 15.6125 21.7881 15.5806C21.7272 15.5486 21.6595 15.5318 21.5906 15.5315Z" fill="#096FB5"/>
<path d="M17.6119 21.493L17.6237 21.4859C17.701 21.4366 17.7602 21.3637 17.7923 21.2782C17.8245 21.1926 17.8278 21.099 17.8018 21.0114C17.7759 20.9238 17.7221 20.847 17.6485 20.7923C17.5748 20.7377 17.4853 20.7083 17.3935 20.7085H0.773276C0.660623 20.7085 0.552576 20.753 0.472918 20.8321C0.393261 20.9113 0.348511 21.0187 0.348511 21.1306V22.8742C0.348456 22.9297 0.35941 22.9846 0.380732 23.0359C0.402053 23.0872 0.43333 23.1338 0.472777 23.173C0.512225 23.2122 0.559061 23.2434 0.610622 23.2646C0.662183 23.2858 0.717461 23.2968 0.773276 23.2968H8.48152C10.2659 23.3085 12.048 23.166 13.8076 22.8709C15.1502 22.6481 16.4399 22.181 17.6119 21.493Z" fill="#096FB5"/>
</g>
<defs>
<clipPath id="clip0_2_254">
<rect width="26.8161" height="25.1401" fill="white" transform="translate(0.348511)"/>
</clipPath>
</defs>
</svg>
