<svg width="100" height="25" viewBox="0 0 100 25" fill="none" xmlns="http://www.w3.org/2000/svg">
<g clip-path="url(#clip0_2_205)">
<path d="M7.10304 15.809C7.02827 16.091 6.80397 16.1474 6.59836 15.9594L2.59836 12.1998C2.39276 12.0119 2.43014 11.7675 2.69182 11.6547L8.2993 9.39897C8.56098 9.28619 8.71051 9.43657 8.65444 9.69974L7.10304 15.809Z" fill="white"/>
<path d="M3.79456 19.3806C3.58895 19.5685 3.36465 19.4934 3.30858 19.2114L2.20577 13.1021C2.1497 12.8201 2.28054 12.7449 2.48615 12.9517L6.29923 16.5233C6.50484 16.7113 6.50484 17.0308 6.28054 17.2188L3.79456 19.3806Z" fill="white"/>
<path d="M8.39269 8.19571C8.57961 8.40248 8.50484 8.66565 8.24316 8.77844L2.65437 11.0154C2.39269 11.1282 2.26185 10.9966 2.35531 10.7146L4.65437 4.51134C4.74783 4.24817 4.99082 4.21057 5.15904 4.41735L8.39269 8.19571Z" fill="white"/>
<path d="M2.54233 18.3467C2.5984 18.6286 2.50494 18.6662 2.35541 18.4219L0.187187 15.0571C0.037654 14.8127 0.037654 14.4367 0.205878 14.2112L1.17784 12.9141C1.34607 12.6885 1.53298 12.7261 1.57036 13.0081L2.54233 18.3467Z" fill="white"/>
<path d="M1.85056 10.3387C1.7571 10.6018 1.60757 10.6018 1.51411 10.3387L0.766445 8.10172C0.672987 7.83855 0.766445 7.4626 0.990744 7.27462L3.62626 4.8685C3.83187 4.68052 3.92532 4.73692 3.83187 5.00009L1.85056 10.3387Z" fill="white"/>
<path d="M1.15897 11.2034C1.25243 11.4666 1.17766 11.8802 1.00944 12.1057L0.243083 13.1208C0.0748589 13.3464 -0.0372907 13.3088 -0.0185991 13.0268L0.373924 9.47404C0.411307 9.19207 0.504765 9.17327 0.579532 9.45524L1.15897 11.2034Z" fill="white"/>
<path d="M4.13115 3.21425C4.22461 3.32704 4.13115 3.57141 3.92554 3.75939L2.74797 4.84966C2.54236 5.03764 2.50498 5.00004 2.6732 4.77447L3.66386 3.42103C3.83208 3.21425 4.03769 3.12026 4.13115 3.21425Z" fill="white"/>
<path d="M11.6261 22.0873C11.4766 22.3316 11.2336 22.3316 11.0841 22.1061L7.96258 17.557C7.79436 17.3314 7.90651 17.1058 8.18688 17.087L14.4112 16.4479C14.6916 16.4103 14.8037 16.5983 14.6542 16.8427L11.6261 22.0873Z" fill="white"/>
<path d="M10.3179 22.0874C10.4861 22.313 10.3926 22.4445 10.131 22.3506L4.28049 20.358C4.01881 20.264 3.96274 20.0384 4.18704 19.8505L6.69171 17.6699C6.89732 17.4819 7.21507 17.5195 7.36461 17.7639L10.3179 22.0874Z" fill="white"/>
<path d="M14.5609 15.3765C14.7478 15.5833 14.6731 15.7901 14.3927 15.8277L8.07494 16.4856C7.79457 16.5232 7.62635 16.3164 7.70111 16.0344L9.2899 9.84997C9.36466 9.568 9.57027 9.5304 9.75719 9.73718L14.5609 15.3765Z" fill="white"/>
<path d="M19.1029 20.6964C19.2898 20.9032 19.2151 21.1287 18.9347 21.1851L12.4861 22.5574C12.2057 22.6138 12.0936 22.4634 12.2431 22.219L15.2711 16.9932C15.4207 16.7489 15.6823 16.7301 15.8693 16.9368L19.1029 20.6964Z" fill="white"/>
<path d="M8.74777 24.1739C8.50478 24.3054 8.13094 24.2678 7.90664 24.0799L4.91599 21.4294C4.71038 21.2414 4.74777 21.1662 5.00945 21.2602L10.1123 23.0084C10.3739 23.1024 10.3926 23.2904 10.1496 23.4219L8.74777 24.1739Z" fill="white"/>
<path d="M15.6823 24.4182C15.458 24.6062 15.0841 24.6438 14.8225 24.5122L12.729 23.4407C12.486 23.3091 12.5047 23.1588 12.7664 23.1024L18.3178 21.9369C18.5982 21.8805 18.6355 21.9745 18.4299 22.1625L15.6823 24.4182Z" fill="white"/>
<path d="M9.8879 24.5499C9.60752 24.5311 9.58883 24.4183 9.83182 24.2867L10.9533 23.6852C11.1963 23.5536 11.6075 23.5536 11.8692 23.6664L13.4954 24.4935C13.7384 24.6251 13.7197 24.719 13.4393 24.7002L9.8879 24.5499Z" fill="white"/>
<path d="M20.1309 21.8994C20.2243 22.0122 20.0935 22.2002 19.8505 22.3318L18.3738 23.1213C18.1308 23.2529 18.0935 23.2153 18.3178 23.0461L19.5514 22.031C19.7757 21.843 20.0374 21.7866 20.1309 21.8994Z" fill="white"/>
<path d="M16.4114 15.3201C16.1497 15.4329 16.0002 15.2825 16.0563 15.0194L17.6077 8.91007C17.6824 8.62811 17.9067 8.57171 18.1123 8.75969L22.1123 12.5192C22.318 12.7072 22.2806 12.9516 22.0189 13.0644L16.4114 15.3201Z" fill="white"/>
<path d="M22.5234 11.617C22.5794 11.899 22.4486 11.9742 22.243 11.7674L18.4299 8.1958C18.2243 8.00783 18.2243 7.68826 18.4486 7.50029L20.9346 5.33854C21.1402 5.15056 21.3645 5.22575 21.4206 5.50772L22.5234 11.617Z" fill="white"/>
<path d="M20.0749 20.1889C19.9815 20.452 19.7385 20.4896 19.5703 20.2828L16.3366 16.5421C16.1497 16.3353 16.2245 16.0721 16.4862 15.9593L22.0749 13.7224C22.3366 13.6096 22.4675 13.7412 22.374 14.0232L20.0749 20.1889Z" fill="white"/>
<path d="M24.5421 9.6621C24.6917 9.90647 24.6917 10.2824 24.5047 10.508L23.5328 11.805C23.3646 12.0306 23.1776 11.993 23.1403 11.7111L22.187 6.37249C22.1309 6.09052 22.2244 6.05292 22.3739 6.2973L24.5421 9.6621Z" fill="white"/>
<path d="M23.9627 16.6172C24.0561 16.8803 23.9627 17.2563 23.7384 17.4443L21.1029 19.8504C20.8973 20.0384 20.8038 19.982 20.8973 19.7188L22.8786 14.3802C22.972 14.1171 23.1216 14.1171 23.215 14.3802L23.9627 16.6172Z" fill="white"/>
<path d="M24.3552 15.245C24.3178 15.5269 24.2243 15.5457 24.1496 15.2638L23.5701 13.5156C23.4767 13.2524 23.5514 12.8388 23.7197 12.6133L24.486 11.5982C24.6542 11.3726 24.7664 11.4102 24.7477 11.6922L24.3552 15.245Z" fill="white"/>
<path d="M21.0655 21.279C20.8973 21.5045 20.6917 21.5985 20.5982 21.4857C20.5047 21.373 20.5982 21.1286 20.8038 20.9406L21.9814 19.8503C22.187 19.6624 22.2244 19.6812 22.0561 19.9255L21.0655 21.279Z" fill="white"/>
<path d="M16.7665 7.16177C16.9347 7.38734 16.8225 7.61291 16.5422 7.63171L10.3179 8.27084C10.0375 8.30843 9.92534 8.12046 10.0749 7.87608L13.1029 2.6315C13.2524 2.38713 13.4954 2.38713 13.645 2.6127L16.7665 7.16177Z" fill="white"/>
<path d="M18.0373 7.04923C17.8317 7.23721 17.514 7.19961 17.3644 6.95524L14.4112 2.63174C14.243 2.40617 14.3364 2.27459 14.5981 2.36858L20.4299 4.36114C20.6916 4.45513 20.7476 4.6807 20.5233 4.86868L18.0373 7.04923Z" fill="white"/>
<path d="M15.4767 14.869C15.4019 15.151 15.1963 15.1886 15.0094 14.9818L10.1683 9.34249C9.98136 9.13572 10.0561 8.92894 10.3365 8.89134L16.6543 8.23342C16.9346 8.19583 17.1029 8.4026 17.0281 8.68457L15.4767 14.869Z" fill="white"/>
<path d="M9.43949 7.72589C9.28996 7.97026 9.02828 7.98906 8.84136 7.78228L5.62641 4.02272C5.43949 3.81595 5.51426 3.59037 5.79463 3.53398L12.2245 2.18054C12.5049 2.12415 12.6171 2.27453 12.4675 2.5189L9.43949 7.72589Z" fill="white"/>
<path d="M14.5981 1.72945C14.3364 1.63546 14.3177 1.44748 14.5607 1.3159L15.9812 0.545186C16.2242 0.413601 16.5981 0.451197 16.8224 0.639175L19.813 3.28966C20.0186 3.47764 19.9812 3.55283 19.7195 3.45884L14.5981 1.72945Z" fill="white"/>
<path d="M6.39253 2.78211C6.11216 2.8385 6.07478 2.74451 6.28038 2.55653L9.04674 0.300796C9.27104 0.112818 9.64487 0.0752224 9.90655 0.206807L12 1.27828C12.243 1.40987 12.2243 1.56025 11.9626 1.61664L6.39253 2.78211Z" fill="white"/>
<path d="M13.7944 1.03382C13.5514 1.16541 13.1402 1.16541 12.8785 1.05262L11.2524 0.225516C11.0094 0.0751332 11.0281 -0.0188558 11.3084 -5.79823e-05L14.8411 0.169122C15.1215 0.18792 15.1589 0.300707 14.8972 0.432291L13.7944 1.03382Z" fill="white"/>
<path d="M5.15905 2.68795C4.93475 2.87593 4.69176 2.93232 4.5983 2.81954C4.50484 2.70675 4.63568 2.51877 4.87868 2.38719L6.35531 1.59768C6.5983 1.4661 6.63568 1.50369 6.41139 1.67287L5.15905 2.68795Z" fill="white"/>
<path d="M3.27105 20.64C3.3832 20.546 3.62619 20.64 3.81311 20.8468L4.89722 22.0311C5.08414 22.2378 5.04675 22.2754 4.82246 22.1063L3.47666 21.11C3.27105 20.9408 3.1776 20.734 3.27105 20.64Z" fill="white"/>
<path d="M21.8505 4.54904C21.9627 4.45505 22.1496 4.58663 22.2804 4.831L23.0655 6.31603C23.1963 6.5604 23.1589 6.598 22.9907 6.37242L21.9814 5.13177C21.7944 4.90619 21.7384 4.64302 21.8505 4.54904Z" fill="white"/>
<path d="M21.2337 3.60918C21.458 3.77836 21.5514 3.98513 21.4393 4.07912C21.3271 4.17311 21.0841 4.07912 20.8972 3.87234L19.8131 2.68808C19.6262 2.48131 19.6449 2.44371 19.8879 2.61289L21.2337 3.60918Z" fill="white"/>
<path d="M2.74775 19.606C2.93467 19.8316 2.99074 20.076 2.87859 20.17C2.76644 20.2639 2.57953 20.1324 2.44869 19.888L1.66364 18.403C1.5328 18.1586 1.57018 18.121 1.73841 18.3466L2.74775 19.606Z" fill="white"/>
<path d="M43.4768 5.69599C44.6731 6.39151 45.6263 7.3126 46.3366 8.47806C47.0469 9.64352 47.4021 10.9406 47.4021 12.3316C47.4021 13.7414 47.0469 15.0197 46.3366 16.2228C45.6263 17.407 44.6731 18.3469 43.4768 19.0424C42.2806 19.7379 40.9534 20.0763 39.5142 20.0763C38.0749 20.0763 36.7478 19.7379 35.5516 19.0424C34.3553 18.3469 33.402 17.407 32.6918 16.2228C31.9815 15.0385 31.6263 13.7414 31.6263 12.3316C31.6263 10.9218 31.9815 9.64352 32.6918 8.47806C33.402 7.3126 34.3553 6.37271 35.5516 5.69599C36.7478 5.00047 38.0749 4.66211 39.5142 4.66211C40.9721 4.66211 42.2806 5.00047 43.4768 5.69599ZM36.3553 6.84265C35.3834 7.40659 34.5983 8.1773 34.0189 9.13598C33.4394 10.1135 33.1591 11.1661 33.1591 12.3316C33.1591 13.4971 33.4394 14.5497 34.0189 15.546C34.5983 16.5235 35.3647 17.313 36.3553 17.877C37.3273 18.4409 38.3927 18.7417 39.5516 18.7417C40.6918 18.7417 41.7385 18.4597 42.7105 17.877C43.6824 17.313 44.4488 16.5235 45.0282 15.546C45.6077 14.5685 45.888 13.4971 45.888 12.3316C45.888 10.9218 45.4581 9.64352 44.5983 8.51566C44.1871 7.97052 43.6637 7.48178 43.103 7.08703C42.0189 6.35391 40.8413 5.99675 39.5516 5.99675C38.3927 5.99675 37.3273 6.27872 36.3553 6.84265Z" fill="white"/>
<path d="M63.346 19.6437L60.2993 15.0195C59.832 15.0571 59.4955 15.0571 59.2338 15.0571H55.0843V19.249C55.0843 19.6437 54.7666 19.9633 54.374 19.9633H54.2993C53.9067 19.9633 53.589 19.6437 53.589 19.249V4.79346H59.2152C61.103 4.79346 62.561 5.22581 63.589 6.1093C64.617 6.9928 65.1404 8.23345 65.1404 9.83126C65.1404 11.0907 64.8413 12.1434 64.2432 12.9705C63.6451 13.8164 62.7853 14.3991 61.6638 14.7187L64.5236 18.8354C64.8413 19.3054 64.5236 19.9445 63.9441 19.9445C63.7011 19.9445 63.4768 19.8317 63.346 19.6437ZM59.2338 13.7036C60.6731 13.7036 61.7759 13.384 62.561 12.7073C63.346 12.0494 63.7198 11.0907 63.7198 9.85006C63.7198 8.62821 63.3273 7.70711 62.561 7.06799C61.7759 6.42886 60.6731 6.1093 59.2338 6.1093H55.0843V13.6848H59.2338V13.7036Z" fill="white"/>
<path d="M82 5.77094C82.8598 6.44766 83.2897 7.36875 83.2897 8.55301C83.2897 9.45531 83.0467 10.2072 82.5421 10.8087C82.0374 11.4103 81.3458 11.805 80.4673 11.993C81.5701 12.1434 82.4299 12.5569 83.0467 13.2337C83.6636 13.9104 83.9813 14.7751 83.9813 15.809C83.9813 17.106 83.4953 18.1211 82.5421 18.8542C81.5701 19.5685 80.243 19.9445 78.5234 19.9445H72.1309V4.77466H78.4486C79.9626 4.77466 81.1402 5.11302 82 5.77094ZM80.8785 10.7712C81.4767 10.3012 81.757 9.62449 81.757 8.75979C81.757 7.91389 81.458 7.27476 80.8785 6.80482C80.2804 6.33488 79.458 6.1093 78.3925 6.1281H73.6262V11.4667H78.3925C79.458 11.4667 80.2804 11.2411 80.8785 10.7712ZM81.4019 17.8391C82.1122 17.3316 82.4673 16.5985 82.4673 15.6774C82.4673 14.7751 82.1122 14.0608 81.3832 13.5532C80.6729 13.0457 79.6636 12.8013 78.3925 12.8013H73.6262V18.6098H78.3925C79.6823 18.6098 80.6916 18.3467 81.4019 17.8391Z" fill="white"/>
<path d="M96.9161 6.35367C96.1871 6.14689 95.4955 6.0341 94.8413 6.0341C93.8133 6.0341 92.9721 6.24088 92.3553 6.65443C91.7385 7.06798 91.4207 7.63192 91.4207 8.32743C91.4207 8.94776 91.5889 9.4553 91.9441 9.85006C92.2805 10.2448 92.7104 10.5456 93.2151 10.7711C93.7198 10.9967 94.4114 11.2411 95.2899 11.5231C96.3179 11.8238 97.1404 12.1246 97.7572 12.4254C98.374 12.7261 98.9161 13.1585 99.346 13.7224C99.7759 14.2863 100 15.0382 100 15.9593C100 16.7676 99.7759 17.482 99.3273 18.1023C98.8787 18.7226 98.2432 19.2114 97.4207 19.5497C96.5983 19.8881 95.6637 20.0573 94.5983 20.0573C93.5516 20.0573 92.5235 19.8505 91.5329 19.4369C90.7291 19.0986 90.0189 18.6662 89.3833 18.1587C89.1217 17.9519 89.0656 17.5759 89.2151 17.2752C89.4207 16.8992 89.9067 16.8052 90.2431 17.0684C90.7665 17.482 91.346 17.8203 91.9815 18.1023C92.8787 18.4782 93.7572 18.6662 94.617 18.6662C95.7759 18.6662 96.6731 18.4406 97.3647 17.9519C98.0376 17.482 98.374 16.8428 98.374 16.0533C98.374 15.4142 98.2058 14.8879 97.8506 14.4931C97.5142 14.0796 97.0843 13.7788 96.5796 13.5532C96.0749 13.3276 95.3647 13.0833 94.4675 12.8013C93.4394 12.4817 92.6357 12.181 92.0002 11.899C91.3833 11.617 90.86 11.2035 90.4301 10.6396C90.0002 10.0756 89.7759 9.36131 89.7759 8.45902C89.7759 7.68831 90.0002 7.01159 90.4301 6.44765C90.86 5.86492 91.4581 5.43257 92.2432 5.11301C93.0282 4.79345 93.9254 4.64307 94.9347 4.64307C95.7572 4.64307 96.5796 4.77465 97.402 5.01902C97.9815 5.1882 98.5048 5.39498 98.9908 5.63935C99.3273 5.80853 99.4768 6.24088 99.3086 6.57924L99.2899 6.61683C99.1217 6.9552 98.6918 7.08678 98.3553 6.9176C97.888 6.69203 97.4207 6.50405 96.9161 6.35367Z" fill="white"/>
</g>
<defs>
<clipPath id="clip0_2_205">
<rect width="100" height="24.7191" fill="white"/>
</clipPath>
</defs>
</svg>
