<svg width="555" height="227" viewBox="0 0 555 227" fill="none" xmlns="http://www.w3.org/2000/svg">
<g opacity="0.3">
<ellipse cx="1.51167" cy="1.5229" rx="1.51167" ry="1.5229" fill="#C4C4C4"/>
<ellipse cx="47.6176" cy="1.5229" rx="1.51167" ry="1.5229" fill="#C4C4C4"/>
<ellipse cx="93.7236" cy="1.5229" rx="1.51167" ry="1.5229" fill="#C4C4C4"/>
<ellipse cx="139.83" cy="1.5229" rx="1.51167" ry="1.5229" fill="#C4C4C4"/>
<ellipse cx="185.936" cy="1.5229" rx="1.51167" ry="1.5229" fill="#C4C4C4"/>
<ellipse cx="232.041" cy="1.5229" rx="1.51167" ry="1.5229" fill="#C4C4C4"/>
<ellipse cx="278.147" cy="1.5229" rx="1.51167" ry="1.5229" fill="#C4C4C4"/>
<ellipse cx="324.253" cy="1.5229" rx="1.51167" ry="1.5229" fill="#C4C4C4"/>
<ellipse cx="369.064" cy="1.5229" rx="1.51167" ry="1.5229" fill="#C4C4C4"/>
<ellipse cx="415.17" cy="1.5229" rx="1.51167" ry="1.5229" fill="#C4C4C4"/>
<ellipse cx="461.276" cy="1.5229" rx="1.51167" ry="1.5229" fill="#C4C4C4"/>
<ellipse cx="507.382" cy="1.5229" rx="1.51167" ry="1.5229" fill="#C4C4C4"/>
<ellipse cx="553.488" cy="1.5229" rx="1.51167" ry="1.5229" fill="#C4C4C4"/>
<ellipse cx="1.51167" cy="38.8334" rx="1.51167" ry="1.5229" fill="#C4C4C4"/>
<ellipse cx="47.6176" cy="38.8334" rx="1.51167" ry="1.5229" fill="#C4C4C4"/>
<ellipse cx="93.7236" cy="38.8334" rx="1.51167" ry="1.5229" fill="#C4C4C4"/>
<ellipse cx="139.83" cy="38.8334" rx="1.51167" ry="1.5229" fill="#C4C4C4"/>
<ellipse cx="185.936" cy="38.8334" rx="1.51167" ry="1.5229" fill="#C4C4C4"/>
<ellipse cx="232.041" cy="38.8334" rx="1.51167" ry="1.5229" fill="#C4C4C4"/>
<ellipse cx="278.147" cy="38.8334" rx="1.51167" ry="1.5229" fill="#C4C4C4"/>
<ellipse cx="324.253" cy="38.8334" rx="1.51167" ry="1.5229" fill="#C4C4C4"/>
<ellipse cx="369.064" cy="38.8334" rx="1.51167" ry="1.5229" fill="#C4C4C4"/>
<ellipse cx="415.17" cy="38.8334" rx="1.51167" ry="1.5229" fill="#C4C4C4"/>
<ellipse cx="461.276" cy="38.8334" rx="1.51167" ry="1.5229" fill="#C4C4C4"/>
<ellipse cx="507.382" cy="38.8334" rx="1.51167" ry="1.5229" fill="#C4C4C4"/>
<ellipse cx="553.488" cy="38.8334" rx="1.51167" ry="1.5229" fill="#C4C4C4"/>
<ellipse cx="1.51167" cy="76.144" rx="1.51167" ry="1.5229" fill="#C4C4C4"/>
<ellipse cx="47.6176" cy="76.144" rx="1.51167" ry="1.5229" fill="#C4C4C4"/>
<ellipse cx="93.7236" cy="76.144" rx="1.51167" ry="1.5229" fill="#C4C4C4"/>
<ellipse cx="139.83" cy="76.144" rx="1.51167" ry="1.5229" fill="#C4C4C4"/>
<ellipse cx="185.936" cy="76.144" rx="1.51167" ry="1.5229" fill="#C4C4C4"/>
<ellipse cx="232.041" cy="76.144" rx="1.51167" ry="1.5229" fill="#C4C4C4"/>
<ellipse cx="278.147" cy="76.144" rx="1.51167" ry="1.5229" fill="#C4C4C4"/>
<ellipse cx="324.253" cy="76.144" rx="1.51167" ry="1.5229" fill="#C4C4C4"/>
<ellipse cx="369.064" cy="76.144" rx="1.51167" ry="1.5229" fill="#C4C4C4"/>
<ellipse cx="415.17" cy="76.144" rx="1.51167" ry="1.5229" fill="#C4C4C4"/>
<ellipse cx="461.276" cy="76.144" rx="1.51167" ry="1.5229" fill="#C4C4C4"/>
<ellipse cx="507.382" cy="76.144" rx="1.51167" ry="1.5229" fill="#C4C4C4"/>
<ellipse cx="553.488" cy="76.144" rx="1.51167" ry="1.5229" fill="#C4C4C4"/>
<ellipse cx="1.51167" cy="113.456" rx="1.51167" ry="1.5229" fill="#C4C4C4"/>
<ellipse cx="47.6176" cy="113.456" rx="1.51167" ry="1.5229" fill="#C4C4C4"/>
<ellipse cx="93.7236" cy="113.456" rx="1.51167" ry="1.5229" fill="#C4C4C4"/>
<ellipse cx="139.83" cy="113.456" rx="1.51167" ry="1.5229" fill="#C4C4C4"/>
<ellipse cx="185.936" cy="113.456" rx="1.51167" ry="1.5229" fill="#C4C4C4"/>
<ellipse cx="232.041" cy="113.456" rx="1.51167" ry="1.5229" fill="#C4C4C4"/>
<ellipse cx="278.147" cy="113.456" rx="1.51167" ry="1.5229" fill="#C4C4C4"/>
<ellipse cx="324.253" cy="113.456" rx="1.51167" ry="1.5229" fill="#C4C4C4"/>
<ellipse cx="369.064" cy="113.456" rx="1.51167" ry="1.5229" fill="#C4C4C4"/>
<ellipse cx="415.17" cy="113.456" rx="1.51167" ry="1.5229" fill="#C4C4C4"/>
<ellipse cx="461.276" cy="113.456" rx="1.51167" ry="1.5229" fill="#C4C4C4"/>
<ellipse cx="507.382" cy="113.456" rx="1.51167" ry="1.5229" fill="#C4C4C4"/>
<ellipse cx="553.488" cy="113.456" rx="1.51167" ry="1.5229" fill="#C4C4C4"/>
<ellipse cx="1.51167" cy="150.767" rx="1.51167" ry="1.5229" fill="#C4C4C4"/>
<ellipse cx="47.6176" cy="150.767" rx="1.51167" ry="1.5229" fill="#C4C4C4"/>
<ellipse cx="93.7236" cy="150.767" rx="1.51167" ry="1.5229" fill="#C4C4C4"/>
<ellipse cx="139.83" cy="150.767" rx="1.51167" ry="1.5229" fill="#C4C4C4"/>
<ellipse cx="185.936" cy="150.767" rx="1.51167" ry="1.5229" fill="#C4C4C4"/>
<ellipse cx="232.041" cy="150.767" rx="1.51167" ry="1.5229" fill="#C4C4C4"/>
<ellipse cx="278.147" cy="150.767" rx="1.51167" ry="1.5229" fill="#C4C4C4"/>
<ellipse cx="324.253" cy="150.767" rx="1.51167" ry="1.5229" fill="#C4C4C4"/>
<ellipse cx="369.064" cy="150.767" rx="1.51167" ry="1.5229" fill="#C4C4C4"/>
<ellipse cx="415.17" cy="150.767" rx="1.51167" ry="1.5229" fill="#C4C4C4"/>
<ellipse cx="461.276" cy="150.767" rx="1.51167" ry="1.5229" fill="#C4C4C4"/>
<ellipse cx="507.382" cy="150.767" rx="1.51167" ry="1.5229" fill="#C4C4C4"/>
<ellipse cx="553.488" cy="150.767" rx="1.51167" ry="1.5229" fill="#C4C4C4"/>
<ellipse cx="1.51167" cy="188.078" rx="1.51167" ry="1.5229" fill="#C4C4C4"/>
<ellipse cx="47.6176" cy="188.078" rx="1.51167" ry="1.5229" fill="#C4C4C4"/>
<ellipse cx="93.7236" cy="188.078" rx="1.51167" ry="1.5229" fill="#C4C4C4"/>
<ellipse cx="139.83" cy="188.078" rx="1.51167" ry="1.5229" fill="#C4C4C4"/>
<ellipse cx="185.936" cy="188.078" rx="1.51167" ry="1.5229" fill="#C4C4C4"/>
<ellipse cx="232.041" cy="188.078" rx="1.51167" ry="1.5229" fill="#C4C4C4"/>
<ellipse cx="278.147" cy="188.078" rx="1.51167" ry="1.5229" fill="#C4C4C4"/>
<ellipse cx="324.253" cy="188.078" rx="1.51167" ry="1.5229" fill="#C4C4C4"/>
<ellipse cx="369.064" cy="188.078" rx="1.51167" ry="1.5229" fill="#C4C4C4"/>
<ellipse cx="415.17" cy="188.078" rx="1.51167" ry="1.5229" fill="#C4C4C4"/>
<ellipse cx="461.276" cy="188.078" rx="1.51167" ry="1.5229" fill="#C4C4C4"/>
<ellipse cx="507.382" cy="188.078" rx="1.51167" ry="1.5229" fill="#C4C4C4"/>
<ellipse cx="553.488" cy="188.078" rx="1.51167" ry="1.5229" fill="#C4C4C4"/>
<ellipse cx="1.51167" cy="225.39" rx="1.51167" ry="1.5229" fill="#C4C4C4"/>
<ellipse cx="47.6176" cy="225.39" rx="1.51167" ry="1.5229" fill="#C4C4C4"/>
<ellipse cx="93.7236" cy="225.39" rx="1.51167" ry="1.5229" fill="#C4C4C4"/>
<ellipse cx="139.83" cy="225.39" rx="1.51167" ry="1.5229" fill="#C4C4C4"/>
<ellipse cx="185.936" cy="225.39" rx="1.51167" ry="1.5229" fill="#C4C4C4"/>
<ellipse cx="232.041" cy="225.39" rx="1.51167" ry="1.5229" fill="#C4C4C4"/>
<ellipse cx="278.147" cy="225.39" rx="1.51167" ry="1.5229" fill="#C4C4C4"/>
<ellipse cx="324.253" cy="225.39" rx="1.51167" ry="1.5229" fill="#C4C4C4"/>
<ellipse cx="369.064" cy="225.39" rx="1.51167" ry="1.5229" fill="#C4C4C4"/>
<ellipse cx="415.17" cy="225.39" rx="1.51167" ry="1.5229" fill="#C4C4C4"/>
<ellipse cx="461.276" cy="225.39" rx="1.51167" ry="1.5229" fill="#C4C4C4"/>
<ellipse cx="507.382" cy="225.39" rx="1.51167" ry="1.5229" fill="#C4C4C4"/>
<ellipse cx="553.488" cy="225.39" rx="1.51167" ry="1.5229" fill="#C4C4C4"/>
</g>
</svg>
