<svg width="251" height="254" viewBox="0 0 251 254" fill="none" xmlns="http://www.w3.org/2000/svg">
<g clip-path="url(#clip0_671_11418)">
<path d="M199.349 228.677L189.692 214L170.657 226.513L166.58 220.312L193.76 202.496L207.495 223.366L199.349 228.677Z" fill="#DF2CBB"/>
<path d="M157.22 233.92L156.591 230.858L127.5 236.796L126.014 229.526L164.677 221.645L169.68 246.12L131.093 253.984L129.607 246.722L158.63 240.784L158.001 237.729L134.27 242.565L133.488 238.748L157.22 233.92Z" fill="#DF2CBB"/>
<path d="M119.448 253.999L79.6802 245.66L81.2006 238.389L120.968 246.729L119.448 253.999ZM105.765 244.073L96.2006 242.071L99.9209 224.383L109.476 226.393L105.765 244.073Z" fill="#DF2CBB"/>
<path d="M77.1833 230.238L76.5717 232.647C75.9157 232.699 75.2853 232.924 74.7455 233.3C74.052 233.723 73.4696 234.304 73.0468 234.997L75.2212 236.583L72.5117 241.903L63.7036 237.389L65.3259 234.149C66.2487 232.182 67.8673 230.626 69.8701 229.78C71.8237 228.991 74.2614 229.135 77.1833 230.238Z" fill="#DF2CBB"/>
<path d="M67.6277 222.27L59.6095 215.246C59.7103 214.896 59.7367 214.528 59.6869 214.167C59.6372 213.807 59.5125 213.46 59.3207 213.15C58.7462 212.061 58.0324 211.052 57.1973 210.147C56.032 208.854 54.7866 207.636 53.4685 206.499C51.9991 205.209 50.8015 204.242 49.8672 203.581C49.2176 203.054 48.4612 202.675 47.6503 202.469C47.406 202.419 47.1526 202.434 46.9165 202.515C46.6805 202.596 46.4704 202.738 46.3083 202.927C45.9855 203.301 46.011 203.835 46.4017 204.539C47.1521 205.673 48.0425 206.707 49.0517 207.619C50.4391 208.959 52.4436 210.78 55.0654 213.082C56.7707 214.552 58.3821 216.128 59.8898 217.799C60.978 218.979 61.8931 220.307 62.6078 221.744C63.1331 222.755 63.3683 223.891 63.2873 225.027C63.1644 226.072 62.7157 227.051 62.0048 227.827C61.4228 228.53 60.6994 229.103 59.8815 229.51C59.0636 229.916 58.1694 230.146 57.2568 230.185C54.9688 230.155 52.7297 229.52 50.7675 228.344C47.7879 226.654 45.0048 224.64 42.4691 222.338C37.939 218.379 35.0681 214.703 33.8564 211.309C32.6446 207.916 33.0976 205 35.2154 202.563L42.8598 209.231C42.3926 209.96 42.571 210.987 43.3864 212.302C44.5924 214.059 46.0423 215.636 47.6927 216.985C49.1748 218.362 50.8008 219.577 52.5427 220.607C53.7403 221.235 54.5812 221.269 55.0908 220.701C55.216 220.558 55.3009 220.384 55.3367 220.198C55.3725 220.012 55.358 219.819 55.2947 219.64C55.0576 219.011 54.6998 218.435 54.2415 217.943C53.4093 216.979 52.5186 216.067 51.5744 215.212C50.374 214.081 48.8224 212.689 46.9198 211.038C45.1083 209.494 43.4055 207.827 41.8235 206.049C40.7185 204.833 39.7894 203.468 39.0631 201.994C38.5421 200.977 38.3323 199.829 38.46 198.694C38.6205 197.68 39.0719 196.734 39.7595 195.971C40.321 195.276 41.0192 194.704 41.8111 194.289C42.603 193.875 43.4716 193.627 44.3632 193.561C46.1299 193.443 48.2279 194.051 50.6571 195.385C53.7312 197.189 56.6092 199.307 59.2443 201.706C60.9662 203.197 62.5838 204.804 64.0858 206.516C65.3368 207.94 66.4489 209.479 67.4068 211.114C68.1805 212.436 68.7531 213.866 69.1056 215.356C69.4086 216.59 69.4434 217.874 69.2075 219.123C68.9673 220.292 68.4223 221.378 67.6277 222.27Z" fill="#DF2CBB"/>
<path d="M30.3058 157.337C31.2517 160.305 31.9868 163.335 32.5057 166.406C32.9574 168.926 33.029 171.5 32.718 174.041C32.4695 176.147 31.6436 178.144 30.3313 179.81C28.8566 181.523 26.9004 182.752 24.7169 183.339C22.5672 184.099 20.2395 184.199 18.0323 183.628C15.938 182.987 14.0603 181.784 12.6047 180.15C10.8157 178.15 9.33297 175.898 8.20496 173.464C6.77665 170.445 5.57018 167.326 4.5951 164.132C3.29825 160.263 2.51022 156.242 2.25081 152.171C2.02662 149.346 2.49603 146.51 3.61831 143.908C4.55561 141.89 6.24843 140.321 8.33237 139.538L11.3562 149.227C10.831 149.839 10.4636 150.57 10.2859 151.356C10.0073 152.661 9.96414 154.006 10.1585 155.326C10.4531 157.568 10.9651 159.776 11.6874 161.918C12.4491 164.528 13.4529 167.062 14.6857 169.486C15.3914 171.015 16.5015 172.323 17.8964 173.269C18.4653 173.593 19.0976 173.791 19.75 173.848C20.4024 173.905 21.0594 173.82 21.6761 173.6C22.2527 173.427 22.7821 173.125 23.2237 172.716C23.6654 172.307 24.0076 171.803 24.2242 171.242C24.7667 169.602 24.895 167.853 24.598 166.152C24.1938 163.269 23.5256 160.429 22.6019 157.668C21.9888 155.572 21.2485 153.515 20.3851 151.509C19.6747 149.922 18.8219 148.403 17.8369 146.97C16.9106 145.633 15.8947 144.361 14.7961 143.161L15.6031 141.922C18.9717 142.549 22.0568 144.22 24.4196 146.699C26.9224 149.244 28.8845 152.79 30.3058 157.337ZM24.632 141.888C23.7763 142.142 22.8968 142.307 22.0074 142.38C20.9966 142.482 19.9349 142.533 18.8052 142.542H15.6115L20.1557 157.074L16.2401 158.296L10.0311 138.436L22.3811 134.584L24.632 141.888Z" fill="#DF2CBB"/>
<path d="M27.3245 108.726C26.243 114.297 24.884 118.685 23.2475 121.892C21.6111 125.099 19.6745 127.291 17.4378 128.467C15.0767 129.66 12.3713 129.987 9.79336 129.392C7.1815 128.984 4.7952 127.676 3.04929 125.693C1.41282 123.776 0.436033 121.021 0.118932 117.43C-0.19817 113.838 0.175557 109.26 1.24011 103.695C2.32165 98.1296 3.68066 93.7436 5.31713 90.5368C6.9536 87.3299 8.89019 85.1468 11.1269 83.9874C13.4882 82.7958 16.1922 82.4657 18.7713 83.0542C21.3663 83.4714 23.737 84.7723 25.4814 86.7361C27.1122 88.6534 28.0918 91.4077 28.4202 94.9992C28.7487 98.5906 28.3834 103.166 27.3245 108.726ZM20.0369 107.326C20.5075 105.048 20.7915 102.736 20.8863 100.412C21.008 98.7737 20.716 97.1314 20.0369 95.6354C19.7128 95.0285 19.2487 94.5073 18.6831 94.1149C18.1174 93.7225 17.4664 93.4702 16.7838 93.3788C16.1208 93.2077 15.4268 93.1953 14.7582 93.3427C14.0896 93.4901 13.4653 93.7932 12.9361 94.2271C11.7551 95.3639 10.879 96.7787 10.3879 98.3417C9.57056 100.539 8.93702 102.801 8.49381 105.103C8.02435 107.413 7.74032 109.756 7.64443 112.111C7.52755 113.809 7.81877 115.51 8.49381 117.074C8.79683 117.699 9.24882 118.24 9.8101 118.649C10.3714 119.059 11.0248 119.325 11.713 119.424C12.3898 119.59 13.0972 119.587 13.7727 119.415C14.4482 119.243 15.0709 118.908 15.5861 118.439C16.7908 117.234 17.6905 115.76 18.2107 114.138C18.9988 111.919 19.6095 109.641 20.0369 107.326Z" fill="#DF2CBB"/>
<path d="M12.8428 71.1947L17.5313 62.6348L32.4804 70.7875L27.7918 79.3475L12.8428 71.1947ZM34.3321 71.7123L39.5133 74.5373L34.7568 83.233L29.5755 80.408L34.3321 71.7123Z" fill="#DF2CBB"/>
<path d="M49.5782 26.9102L59.5159 41.4002L78.3042 28.539L82.5001 34.6557L55.6512 53.0313L41.5176 32.4245L49.5782 26.9102Z" fill="#DF2CBB"/>
<path d="M91.5801 20.8619L92.2596 23.9075L121.232 17.409L122.863 24.6456L84.3603 33.2819L78.8818 8.90843L117.308 0.289062L118.913 7.5256L90.0342 14.0071L90.7222 17.0527L114.36 11.7505L115.21 15.5596L91.5801 20.8619Z" fill="#DF2CBB"/>
<path d="M129.055 0L168.975 7.69466L167.565 14.9736L127.645 7.27896L129.055 0ZM142.899 9.70528L152.489 11.5547L149.091 29.294L139.468 27.4446L142.899 9.70528Z" fill="#DF2CBB"/>
<path d="M171.676 22.9821L172.237 20.5728C172.879 20.5001 173.493 20.2667 174.021 19.8941C174.712 19.4693 175.294 18.8881 175.719 18.1974L173.511 16.6618L176.119 11.2832L185.02 15.5844L183.466 18.8336C182.586 20.8231 180.997 22.414 179.006 23.296C177.053 24.1274 174.609 24.0228 171.676 22.9821Z" fill="#DF2CBB"/>
<path d="M181.376 30.753L189.539 37.6162C189.445 37.9679 189.425 38.3354 189.482 38.6949C189.539 39.0545 189.672 39.398 189.87 39.7032C190.459 40.7853 191.193 41.7815 192.053 42.664C193.241 43.9367 194.509 45.1325 195.85 46.2441C197.345 47.4997 198.562 48.447 199.502 49.0861C200.162 49.6026 200.928 49.9675 201.745 50.1551C201.989 50.2023 202.241 50.1823 202.474 50.0971C202.708 50.0119 202.914 49.8648 203.07 49.6715C203.392 49.2897 203.35 48.7553 202.951 48.0596C202.178 46.943 201.268 45.9282 200.241 45.0394C198.831 43.716 196.793 41.9316 194.126 39.6862C192.388 38.2559 190.745 36.7143 189.208 35.0712C188.099 33.9076 187.156 32.5974 186.405 31.1772C185.865 30.1734 185.612 29.0403 185.674 27.9025C185.781 26.8619 186.216 25.8819 186.914 25.1029C187.48 24.3867 188.191 23.798 189.001 23.3755C189.81 22.953 190.7 22.7061 191.611 22.6511C193.898 22.6269 196.15 23.2126 198.135 24.3478C201.159 25.9702 203.989 27.9313 206.569 30.1931C211.15 34.0446 214.092 37.653 215.394 41.0182C216.696 44.3834 216.3 47.3046 214.205 49.7818L206.467 43.2663C206.917 42.5198 206.73 41.5017 205.881 40.1953C204.638 38.4739 203.156 36.9372 201.481 35.6311C199.975 34.2804 198.326 33.097 196.563 32.1019C195.357 31.4911 194.516 31.4741 194.015 32.051C193.893 32.1971 193.811 32.3728 193.779 32.5605C193.746 32.7481 193.763 32.941 193.828 33.1199C194.078 33.75 194.447 34.326 194.916 34.8166C195.77 35.761 196.681 36.6533 197.642 37.489C198.865 38.5919 200.437 39.9492 202.373 41.5781C204.206 43.0881 205.934 44.7208 207.546 46.4647C208.671 47.6603 209.625 49.0049 210.383 50.4605C210.919 51.4703 211.152 52.6133 211.054 53.7521C210.909 54.7779 210.473 55.7408 209.797 56.5263C209.246 57.2299 208.558 57.8141 207.774 58.2429C206.989 58.6718 206.126 58.9364 205.236 59.0205C203.477 59.1647 201.362 58.5963 198.908 57.3237C195.799 55.5785 192.881 53.5143 190.202 51.1646C188.451 49.709 186.803 48.1358 185.267 46.4562C183.989 45.0603 182.851 43.543 181.869 41.9259C181.061 40.6091 180.455 39.1795 180.068 37.6841C179.749 36.4541 179.691 35.171 179.899 33.9174C180.11 32.7531 180.619 31.6631 181.376 30.753Z" fill="#DF2CBB"/>
<path d="M219.989 95.0171C218.98 92.0721 218.185 89.0583 217.611 85.999C217.112 83.4858 216.992 80.9124 217.254 78.3637C217.462 76.254 218.25 74.2428 219.53 72.5524C220.97 70.7996 222.906 69.5221 225.085 68.8875C227.223 68.0916 229.55 67.947 231.77 68.4718C233.877 69.0761 235.776 70.2505 237.257 71.8652C239.086 73.8272 240.614 76.0485 241.793 78.457C243.276 81.4444 244.542 84.5348 245.581 87.7042C246.937 91.5377 247.793 95.5295 248.129 99.5813C248.409 102.398 247.995 105.241 246.923 107.861C246.025 109.897 244.363 111.5 242.294 112.324L239.083 102.695C239.6 102.073 239.953 101.332 240.111 100.54C240.365 99.2333 240.386 97.8918 240.17 96.5781C239.823 94.3427 239.269 92.1445 238.514 90.0117C237.695 87.4185 236.64 84.9054 235.363 82.5037C234.626 80.9897 233.493 79.7028 232.084 78.7794C231.507 78.4659 230.869 78.2809 230.214 78.237C229.558 78.193 228.901 78.2912 228.287 78.5249C227.705 78.7032 227.173 79.0135 226.731 79.4314C226.289 79.8494 225.949 80.3637 225.739 80.9343C225.232 82.5831 225.139 84.3311 225.467 86.0244C225.928 88.8896 226.65 91.7066 227.625 94.4402C228.304 96.5292 229.104 98.5772 230.02 100.574C230.748 102.141 231.615 103.641 232.611 105.053C233.557 106.377 234.596 107.633 235.719 108.811L234.938 110.059C231.556 109.504 228.437 107.895 226.028 105.46C223.491 102.989 221.478 99.5078 219.989 95.0171ZM225.935 110.288C226.786 110.02 227.663 109.838 228.551 109.745C229.553 109.626 230.623 109.558 231.753 109.524C232.883 109.49 233.953 109.473 234.964 109.465L230.139 95.0425L234.038 93.7445L240.62 113.477L228.355 117.558L225.935 110.288Z" fill="#DF2CBB"/>
<path d="M223.871 143.62C224.76 138.02 225.975 133.589 227.515 130.326C229.055 127.062 230.918 124.8 233.104 123.539C235.45 122.366 238.105 121.958 240.695 122.372C243.286 122.786 245.681 124.001 247.543 125.846C249.242 127.713 250.309 130.433 250.745 134.008C251.147 138.604 250.919 143.234 250.066 147.768C249.177 153.367 247.962 157.796 246.422 161.053C244.882 164.311 243.019 166.574 240.833 167.84C238.487 169.013 235.832 169.421 233.242 169.007C230.651 168.593 228.256 167.378 226.394 165.533C224.695 163.666 223.627 160.946 223.191 157.372C222.79 152.778 223.019 148.151 223.871 143.62ZM231.201 144.79C230.808 147.08 230.601 149.398 230.581 151.721C230.521 153.366 230.874 154.999 231.609 156.472C231.981 157.042 232.468 157.527 233.039 157.897C233.61 158.267 234.252 158.513 234.924 158.62C235.596 158.727 236.283 158.693 236.941 158.519C237.599 158.344 238.213 158.035 238.744 157.609C239.896 156.436 240.739 154.996 241.198 153.418C241.908 151.203 242.433 148.933 242.77 146.631C243.166 144.307 243.379 141.956 243.407 139.598C243.47 137.897 243.13 136.205 242.413 134.661C242.063 134.066 241.586 133.556 241.016 133.167C240.446 132.778 239.796 132.52 239.114 132.411C238.432 132.302 237.734 132.346 237.071 132.538C236.408 132.731 235.796 133.067 235.278 133.524C234.11 134.767 233.257 136.271 232.789 137.91C232.081 140.159 231.55 142.459 231.201 144.79Z" fill="#DF2CBB"/>
<path d="M217.594 180.701L212.345 177.936L216.931 169.146L222.164 171.861L217.594 180.701ZM239.092 180.795L234.573 189.448L219.471 181.55L223.981 172.896L239.092 180.795Z" fill="#DF2CBB"/>
</g>
<defs>
<clipPath id="clip0_671_11418">
<rect width="251" height="254" fill="white"/>
</clipPath>
</defs>
</svg>
