<svg width="176" height="147" viewBox="0 0 176 147" fill="none" xmlns="http://www.w3.org/2000/svg">
<g opacity="0.4">
<ellipse cx="0.813209" cy="39.3405" rx="0.813209" ry="0.727248" fill="#C4C4C4"/>
<ellipse cx="25.6159" cy="39.3405" rx="0.813209" ry="0.727248" fill="#C4C4C4"/>
<ellipse cx="50.4192" cy="39.3405" rx="0.813209" ry="0.727248" fill="#C4C4C4"/>
<ellipse cx="75.2219" cy="39.3405" rx="0.813209" ry="0.727248" fill="#C4C4C4"/>
<ellipse cx="100.025" cy="39.3405" rx="0.813209" ry="0.727248" fill="#C4C4C4"/>
<ellipse cx="124.827" cy="39.3405" rx="0.813209" ry="0.727248" fill="#C4C4C4"/>
<ellipse cx="149.631" cy="39.3405" rx="0.813209" ry="0.727248" fill="#C4C4C4"/>
<ellipse cx="174.433" cy="39.3405" rx="0.813209" ry="0.727248" fill="#C4C4C4"/>
<ellipse cx="0.813209" cy="57.1589" rx="0.813209" ry="0.727248" fill="#C4C4C4"/>
<ellipse cx="25.6159" cy="57.1589" rx="0.813209" ry="0.727248" fill="#C4C4C4"/>
<ellipse cx="50.4192" cy="57.1589" rx="0.813209" ry="0.727248" fill="#C4C4C4"/>
<ellipse cx="75.2219" cy="57.1589" rx="0.813209" ry="0.727248" fill="#C4C4C4"/>
<ellipse cx="100.025" cy="57.1589" rx="0.813209" ry="0.727248" fill="#C4C4C4"/>
<ellipse cx="124.827" cy="57.1589" rx="0.813209" ry="0.727248" fill="#C4C4C4"/>
<ellipse cx="149.631" cy="57.1589" rx="0.813209" ry="0.727248" fill="#C4C4C4"/>
<ellipse cx="174.433" cy="57.1589" rx="0.813209" ry="0.727248" fill="#C4C4C4"/>
<ellipse cx="0.813209" cy="74.9753" rx="0.813209" ry="0.727248" fill="#C4C4C4"/>
<ellipse cx="25.6159" cy="74.9753" rx="0.813209" ry="0.727248" fill="#C4C4C4"/>
<ellipse cx="50.4192" cy="74.9753" rx="0.813209" ry="0.727248" fill="#C4C4C4"/>
<ellipse cx="75.2219" cy="74.9753" rx="0.813209" ry="0.727248" fill="#C4C4C4"/>
<ellipse cx="100.025" cy="74.9753" rx="0.813209" ry="0.727248" fill="#C4C4C4"/>
<ellipse cx="124.827" cy="74.9753" rx="0.813209" ry="0.727248" fill="#C4C4C4"/>
<ellipse cx="149.631" cy="74.9753" rx="0.813209" ry="0.727248" fill="#C4C4C4"/>
<ellipse cx="174.433" cy="74.9753" rx="0.813209" ry="0.727248" fill="#C4C4C4"/>
<ellipse cx="0.813209" cy="92.7937" rx="0.813209" ry="0.727248" fill="#C4C4C4"/>
<ellipse cx="25.6159" cy="92.7937" rx="0.813209" ry="0.727248" fill="#C4C4C4"/>
<ellipse cx="50.4192" cy="92.7937" rx="0.813209" ry="0.727248" fill="#C4C4C4"/>
<ellipse cx="75.2219" cy="92.7937" rx="0.813209" ry="0.727248" fill="#C4C4C4"/>
<ellipse cx="100.025" cy="92.7937" rx="0.813209" ry="0.727248" fill="#C4C4C4"/>
<ellipse cx="124.827" cy="92.7937" rx="0.813209" ry="0.727248" fill="#C4C4C4"/>
<ellipse cx="149.631" cy="92.7937" rx="0.813209" ry="0.727248" fill="#C4C4C4"/>
<ellipse cx="174.433" cy="92.7937" rx="0.813209" ry="0.727248" fill="#C4C4C4"/>
<ellipse cx="0.813209" cy="110.61" rx="0.813209" ry="0.727248" fill="#C4C4C4"/>
<ellipse cx="25.6159" cy="110.61" rx="0.813209" ry="0.727248" fill="#C4C4C4"/>
<ellipse cx="50.4192" cy="110.61" rx="0.813209" ry="0.727248" fill="#C4C4C4"/>
<ellipse cx="75.2219" cy="110.61" rx="0.813209" ry="0.727248" fill="#C4C4C4"/>
<ellipse cx="100.025" cy="110.61" rx="0.813209" ry="0.727248" fill="#C4C4C4"/>
<ellipse cx="124.827" cy="110.61" rx="0.813209" ry="0.727248" fill="#C4C4C4"/>
<ellipse cx="149.631" cy="110.61" rx="0.813209" ry="0.727248" fill="#C4C4C4"/>
<ellipse cx="174.433" cy="110.61" rx="0.813209" ry="0.727248" fill="#C4C4C4"/>
<ellipse cx="0.813209" cy="128.428" rx="0.813209" ry="0.727248" fill="#C4C4C4"/>
<ellipse cx="25.6159" cy="128.428" rx="0.813209" ry="0.727248" fill="#C4C4C4"/>
<ellipse cx="50.4192" cy="128.428" rx="0.813209" ry="0.727248" fill="#C4C4C4"/>
<ellipse cx="75.2219" cy="128.428" rx="0.813209" ry="0.727248" fill="#C4C4C4"/>
<ellipse cx="100.025" cy="128.428" rx="0.813209" ry="0.727248" fill="#C4C4C4"/>
<ellipse cx="124.827" cy="128.428" rx="0.813209" ry="0.727248" fill="#C4C4C4"/>
<ellipse cx="149.631" cy="128.428" rx="0.813209" ry="0.727248" fill="#C4C4C4"/>
<ellipse cx="174.433" cy="128.428" rx="0.813209" ry="0.727248" fill="#C4C4C4"/>
<ellipse cx="0.813209" cy="146.247" rx="0.813209" ry="0.727248" fill="#C4C4C4"/>
<ellipse cx="25.6159" cy="146.247" rx="0.813209" ry="0.727248" fill="#C4C4C4"/>
<ellipse cx="50.4192" cy="146.247" rx="0.813209" ry="0.727248" fill="#C4C4C4"/>
<ellipse cx="75.2219" cy="146.247" rx="0.813209" ry="0.727248" fill="#C4C4C4"/>
<ellipse cx="100.025" cy="146.247" rx="0.813209" ry="0.727248" fill="#C4C4C4"/>
<ellipse cx="124.827" cy="146.247" rx="0.813209" ry="0.727248" fill="#C4C4C4"/>
<ellipse cx="149.631" cy="146.247" rx="0.813209" ry="0.727248" fill="#C4C4C4"/>
<ellipse cx="174.433" cy="146.247" rx="0.813209" ry="0.727248" fill="#C4C4C4"/>
<ellipse cx="0.813209" cy="0.727248" rx="0.813209" ry="0.727248" fill="#C4C4C4"/>
<ellipse cx="25.6159" cy="0.727248" rx="0.813209" ry="0.727248" fill="#C4C4C4"/>
<ellipse cx="50.4192" cy="0.727248" rx="0.813209" ry="0.727248" fill="#C4C4C4"/>
<ellipse cx="75.2219" cy="0.727248" rx="0.813209" ry="0.727248" fill="#C4C4C4"/>
<ellipse cx="100.025" cy="0.727248" rx="0.813209" ry="0.727248" fill="#C4C4C4"/>
<ellipse cx="124.827" cy="0.727248" rx="0.813209" ry="0.727248" fill="#C4C4C4"/>
<ellipse cx="149.631" cy="0.727248" rx="0.813209" ry="0.727248" fill="#C4C4C4"/>
<ellipse cx="0.813209" cy="18.5456" rx="0.813209" ry="0.727248" fill="#C4C4C4"/>
<ellipse cx="25.6159" cy="18.5456" rx="0.813209" ry="0.727248" fill="#C4C4C4"/>
<ellipse cx="50.4192" cy="18.5456" rx="0.813209" ry="0.727248" fill="#C4C4C4"/>
<ellipse cx="75.2219" cy="18.5456" rx="0.813209" ry="0.727248" fill="#C4C4C4"/>
<ellipse cx="100.025" cy="18.5456" rx="0.813209" ry="0.727248" fill="#C4C4C4"/>
<ellipse cx="124.827" cy="18.5456" rx="0.813209" ry="0.727248" fill="#C4C4C4"/>
<ellipse cx="149.631" cy="18.5456" rx="0.813209" ry="0.727248" fill="#C4C4C4"/>
<ellipse cx="174.433" cy="18.5456" rx="0.813209" ry="0.727248" fill="#C4C4C4"/>
</g>
</svg>
