<svg width="505" height="182" viewBox="0 0 505 182" fill="none" xmlns="http://www.w3.org/2000/svg">
<mask id="mask0_671_11269" style="mask-type:alpha" maskUnits="userSpaceOnUse" x="0" y="0" width="505" height="182">
<rect width="505" height="182" fill="#C4C4C4"/>
</mask>
<g mask="url(#mask0_671_11269)">
<path d="M18 196C35.1502 158.097 90.4984 82.0574 174.69 81.1196C279.93 79.9474 372.307 0.234451 384 -49" stroke="#B4ADD9"/>
<path d="M60 212C77.1502 174.252 132.498 98.5225 216.69 97.5885C321.93 96.4211 414.307 17.0335 426 -32" stroke="#B4ADD9"/>
<path d="M102 229C119.197 191.097 174.696 115.057 259.118 114.12C364.645 112.947 457.275 33.2345 469 -16" stroke="#B4ADD9"/>
<path d="M144 245C161.197 207.097 216.696 131.057 301.118 130.12C406.645 128.947 499.275 49.2345 511 0" stroke="#B4ADD9"/>
<path d="M187 261C204.15 223.252 259.498 147.522 343.69 146.589C448.93 145.421 541.307 66.0335 553 17" stroke="#B4ADD9"/>
<path d="M229 278C246.15 240.097 301.498 164.057 385.69 163.12C490.93 161.947 583.307 82.2345 595 33" stroke="#B4ADD9"/>
<mask id="mask1_671_11269" style="mask-type:alpha" maskUnits="userSpaceOnUse" x="-141" y="-122" width="1117" height="402">
<rect width="1115.44" height="402" transform="matrix(-1 0 0 1 975.219 -122)" fill="#C4C4C4"/>
</mask>
<g mask="url(#mask1_671_11269)">
<path d="M935.461 310.923C897.58 227.204 775.327 59.248 589.365 57.1766C356.913 54.5874 152.871 -121.482 127.043 -230.23" stroke="#B4ADD9"/>
<path d="M842.692 346.265C804.811 262.888 682.558 95.6172 496.596 93.5543C264.144 90.9756 60.1024 -84.3749 34.2743 -192.68" stroke="#B4ADD9"/>
<path d="M749.922 383.814C711.938 300.095 589.351 132.139 402.881 130.067C169.794 127.478 -34.8054 -48.5912 -60.704 -157.34" stroke="#B4ADD9"/>
<path d="M657.153 419.154C619.169 335.435 496.582 167.478 310.112 165.407C77.0245 162.818 -127.574 -13.2514 -153.473 -122" stroke="#B4ADD9"/>
<path d="M562.175 454.496C524.294 371.118 402.041 203.848 216.08 201.785C-16.3727 199.206 -220.414 23.8555 -246.242 -84.4492" stroke="#B4ADD9"/>
<path d="M469.406 492.044C431.525 408.325 309.272 240.369 123.31 238.298C-109.142 235.708 -313.184 59.6392 -339.012 -49.1094" stroke="#B4ADD9"/>
</g>
</g>
</svg>
