<svg width="517" height="71" viewBox="0 0 517 71" fill="none" xmlns="http://www.w3.org/2000/svg">
<g opacity="0.1" clip-path="url(#clip0_671_11201)">
<path d="M442.944 70.7283L74.0563 70.7283L0.631348 0.273438L516.369 0.273438L442.944 70.7283Z" stroke="white" stroke-width="0.88" stroke-miterlimit="10"/>
<path d="M506.498 9.74609L10.5024 9.74609" stroke="white" stroke-width="0.88" stroke-miterlimit="10"/>
<path d="M497.353 18.5234L19.647 18.5234" stroke="white" stroke-width="0.88" stroke-miterlimit="10"/>
<path d="M488.858 26.6699L28.1426 26.6699" stroke="white" stroke-width="0.88" stroke-miterlimit="10"/>
<path d="M480.948 34.2578L36.0518 34.2578" stroke="white" stroke-width="0.88" stroke-miterlimit="10"/>
<path d="M473.562 41.3457L43.438 41.3457" stroke="white" stroke-width="0.88" stroke-miterlimit="10"/>
<path d="M466.654 47.9805L50.3511 47.9805" stroke="white" stroke-width="0.88" stroke-miterlimit="10"/>
<path d="M460.169 54.1934L56.8306 54.1934" stroke="white" stroke-width="0.88" stroke-miterlimit="10"/>
<path d="M454.082 60.0352L62.9185 60.0352" stroke="white" stroke-width="0.88" stroke-miterlimit="10"/>
<path d="M448.35 65.5371L68.6494 65.5371" stroke="white" stroke-width="0.88" stroke-miterlimit="10"/>
<path d="M110.947 70.7221L52.2041 0.273438" stroke="white" stroke-width="0.88" stroke-miterlimit="10"/>
<path d="M147.833 70.7221L103.781 0.273438" stroke="white" stroke-width="0.88" stroke-miterlimit="10"/>
<path d="M184.724 70.7221L155.354 0.273438" stroke="white" stroke-width="0.88" stroke-miterlimit="10"/>
<path d="M221.614 70.7221L206.927 0.273438" stroke="white" stroke-width="0.88" stroke-miterlimit="10"/>
<path d="M258.5 70.7221V0.273438" stroke="white" stroke-width="0.88" stroke-miterlimit="10"/>
<path d="M295.391 70.7221L310.073 0.273438" stroke="white" stroke-width="0.88" stroke-miterlimit="10"/>
<path d="M332.277 70.7221L361.65 0.273438" stroke="white" stroke-width="0.88" stroke-miterlimit="10"/>
<path d="M369.167 70.7221L413.223 0.273438" stroke="white" stroke-width="0.88" stroke-miterlimit="10"/>
<path d="M406.058 70.7221L464.796 0.273438" stroke="white" stroke-width="0.88" stroke-miterlimit="10"/>
</g>
<defs>
<clipPath id="clip0_671_11201">
<rect width="517" height="71" fill="white"/>
</clipPath>
</defs>
</svg>
