<svg width="493" height="312" viewBox="0 0 493 312" fill="none" xmlns="http://www.w3.org/2000/svg">
<g opacity="0.3" clip-path="url(#clip0_764_8756)">
<path d="M247.08 0.0506956C262.36 0.0506956 277.65 0.140696 292.93 0.000695632C297.93 -0.0493044 302.74 0.610695 307.58 1.8007C327.31 6.6507 347.08 11.3607 366.83 16.1407C367.64 16.3407 368.46 16.6307 369.18 17.0507C388.41 28.1607 407.65 39.2607 426.84 50.4407C428.78 51.5707 430.54 53.0407 432.3 54.4607C451.91 70.1907 471.51 85.9407 491.13 101.651C492.1 102.421 492.55 103.201 492.52 104.481C492.44 108.821 492.52 113.161 492.46 117.501C492.45 118.221 492.16 119.091 491.69 119.631C487.63 124.351 483.6 129.101 479.34 133.641C477.13 135.991 474.6 138.081 472.03 140.041C442.33 162.691 412.59 185.291 382.85 207.911C354.73 229.301 326.62 250.681 298.5 272.071C281.5 285.011 264.49 297.941 247.51 310.911C246.49 311.691 245.89 311.651 244.89 310.881C212.13 285.711 179.34 260.571 146.55 235.431C114.36 210.751 82.1802 186.061 49.9902 161.381C40.6702 154.231 31.2502 147.211 22.0802 139.881C18.6002 137.101 15.6602 133.651 12.5202 130.461C8.59023 126.461 4.69023 122.421 0.840234 118.341C0.380234 117.861 0.0602344 117.051 0.0402344 116.381C-0.0297656 112.231 0.0302344 108.081 -0.00976562 103.931C-0.00976562 103.031 0.270234 102.471 0.980234 101.921C22.4802 85.2307 43.9402 68.4907 65.4702 51.8507C67.8402 50.0207 70.6002 48.6807 73.2302 47.2307C91.0902 37.3407 108.97 27.4707 126.85 17.6207C127.58 17.2207 128.39 16.9007 129.2 16.6907C150.29 11.2407 171.38 5.8107 192.47 0.400696C193.33 0.180696 194.23 0.0806956 195.12 0.0706956C212.43 0.0506956 229.75 0.0606956 247.06 0.0606956L247.08 0.0506956ZM246.97 2.7707C229.8 2.7707 212.63 2.7707 195.46 2.7807C194.72 2.7807 193.95 2.8407 193.23 3.0307C172.5 8.3507 151.78 13.6907 131.04 18.9907C130.03 19.2507 129.69 19.6607 129.7 20.7107C129.73 26.7507 129.73 32.7807 129.62 38.8207C129.59 40.3807 130.04 40.9707 131.59 41.3407C153.12 46.3607 174.63 51.4707 196.16 56.5307C197.8 56.9207 199.48 57.4207 201.15 57.4307C206.9 57.4807 212.65 57.3207 218.41 57.2707C231.19 57.1507 243.97 57.0407 256.75 56.9307C271.37 56.8107 285.99 56.7107 300.6 56.5807C301.39 56.5807 302.21 56.4907 302.97 56.2907C323.76 50.6307 344.53 44.9407 365.33 39.3107C366.56 38.9807 366.83 38.4207 366.82 37.2607C366.77 31.8407 366.8 26.4107 366.79 20.9907C366.79 18.5207 367.03 18.9407 364.81 18.4107C345.93 13.8607 327.02 9.4107 308.17 4.7607C302.49 3.3607 296.84 2.6707 290.99 2.7307C276.32 2.8907 261.65 2.7807 246.98 2.7807L246.97 2.7707ZM340.28 159.481C339.3 158.801 338.66 158.341 338 157.901C308.01 137.771 278.01 117.651 248.04 97.4907C246.98 96.7807 246.33 96.8607 245.34 97.5507C238.52 102.281 231.66 106.941 224.8 111.631C201.98 127.221 179.17 142.801 156.35 158.391C155.87 158.721 155.41 159.071 154.72 159.571C155.46 159.751 155.86 159.871 156.27 159.951C164.34 161.651 172.41 163.351 180.49 165.041C183.62 165.691 186.75 166.781 189.91 166.881C206.24 167.401 222.53 166.801 238.74 164.621C242.7 164.091 246.72 163.621 250.7 163.731C255.49 163.871 260.27 164.641 265.05 165.171C274.61 166.221 284.16 167.361 293.82 166.971C296.5 166.861 299.2 166.861 301.88 166.971C306.58 167.161 311.18 166.751 315.7 165.361C317.72 164.741 319.82 164.361 321.88 163.871C327.88 162.441 333.89 161.011 340.28 159.491V159.481ZM249.18 94.9607C280.61 116.061 311.83 137.021 343.22 158.091C353.65 133.331 364 108.721 374.39 84.0507C373.82 83.8207 373.44 83.6407 373.05 83.5107C349.75 75.6007 326.45 67.7007 303.16 59.7807C302.14 59.4307 301.36 59.4807 300.43 60.1107C288.21 68.4707 275.96 76.7807 263.71 85.1107C258.96 88.3407 254.2 91.5707 249.19 94.9707L249.18 94.9607ZM244.33 94.9307C243.78 94.4907 243.47 94.2207 243.13 93.9807C228.44 83.3207 213.73 72.6807 199.06 61.9907C198.03 61.2407 197.17 61.1207 195.97 61.4807C173.83 68.2107 151.68 74.8907 129.53 81.5907C126.79 82.4207 124.07 83.2707 121.19 84.1507C131.46 108.841 141.66 133.371 151.93 158.051C182.75 136.991 213.45 116.011 244.32 94.9207L244.33 94.9307ZM339.52 171.651C338.55 171.571 338.05 171.531 337.54 171.491C334.01 171.241 330.48 170.991 326.96 170.761C320.89 170.361 314.83 169.751 308.75 169.611C299.84 169.411 290.92 169.551 282 169.571C281.16 169.571 280.3 169.661 279.48 169.831C269.3 172.031 259.12 174.281 248.93 176.451C247.8 176.691 247.54 177.161 247.54 178.241C247.57 206.261 247.56 234.281 247.57 262.301C247.57 262.701 247.63 263.091 247.68 263.781C278.33 233.021 308.78 202.471 339.51 171.631L339.52 171.651ZM155.61 172.031C185.44 202.721 214.99 233.101 244.78 263.751C244.82 262.981 244.85 262.661 244.85 262.351C244.85 234.241 244.85 206.131 244.87 178.021C244.87 177.021 244.55 176.631 243.6 176.391C236.2 174.511 228.8 172.611 221.43 170.631C218.53 169.851 215.63 169.561 212.64 169.541C198.25 169.431 183.88 169.571 169.54 170.961C165.04 171.401 160.53 171.661 155.61 172.031ZM247.57 307.271C248.24 306.791 248.63 306.541 249 306.261C268.04 291.791 287.07 277.321 306.09 262.821C306.62 262.421 307.09 261.801 307.33 261.181C318.38 232.701 329.41 204.211 340.44 175.711C340.57 175.361 340.66 175.001 340.77 174.641L340.44 174.441C340.14 174.791 339.86 175.171 339.54 175.501C331.96 183.131 324.38 190.761 316.79 198.381C303.31 211.921 289.82 225.451 276.33 238.981C267.07 248.271 257.81 257.551 248.53 266.821C247.85 267.501 247.53 268.181 247.54 269.161C247.57 281.281 247.56 293.411 247.56 305.531V307.271H247.57ZM475.42 126.271L475.58 126.031C475.34 125.641 475.11 125.251 474.85 124.871C458.82 101.331 442.79 77.7907 426.72 54.2807C426.35 53.7407 425.6 53.2607 424.95 53.1307C406.96 49.5707 388.97 46.0507 370.97 42.5407C370.68 42.4807 370.37 42.5407 370.03 42.5407C370.05 42.8907 370.03 43.1307 370.09 43.3607C372.65 56.1107 375.21 68.8607 377.83 81.6007C377.94 82.1107 378.52 82.7007 379.02 82.9307C382.42 84.4407 385.89 85.8007 389.29 87.3307C417.34 99.9907 445.39 112.681 473.43 125.371C474.09 125.671 474.76 125.971 475.42 126.271ZM126.98 42.3807C126.35 42.4407 125.93 42.4507 125.53 42.5207C107.05 46.0107 88.5702 49.5107 70.0802 52.9707C68.8702 53.2007 68.1102 53.7207 67.4502 54.7707C54.9702 74.5507 42.4502 94.3007 29.9402 114.061C28.1302 116.911 26.3402 119.771 24.3702 122.911C25.0702 122.661 25.4602 122.541 25.8302 122.381C56.3602 109.141 86.8902 95.8907 117.43 82.6707C118.28 82.3007 118.61 81.7907 118.79 80.9207C120.25 73.9107 121.77 66.9007 123.26 59.9007C124.49 54.1407 125.71 48.3807 126.99 42.3907L126.98 42.3807ZM155.83 176.471C156.07 177.151 156.2 177.581 156.37 178.001C168.15 207.251 179.92 236.501 191.73 265.741C192.04 266.521 192.65 267.281 193.32 267.801C208.97 279.851 224.66 291.871 240.34 303.891C241.74 304.961 243.16 306.021 244.75 307.211C244.79 306.601 244.84 306.241 244.84 305.871C244.84 293.561 244.86 281.251 244.8 268.941C244.8 268.201 244.35 267.311 243.82 266.761C230.38 252.871 216.9 239.011 203.42 225.151C189.22 210.551 175.03 195.941 160.82 181.351C159.26 179.751 157.64 178.221 155.83 176.451V176.471ZM186.67 261.441L186.91 261.251C186.1 259.251 185.3 257.241 184.49 255.241C173.55 228.081 162.61 200.931 151.7 173.761C151.3 172.761 150.7 172.191 149.7 171.801C141.44 168.591 133.21 165.311 124.94 162.101C123.59 161.581 122.16 161.201 120.73 160.981C114.99 160.121 109.25 159.331 103.5 158.561C99.5302 158.021 95.5702 157.311 91.5802 157.111C86.8302 156.871 82.0602 157.081 77.2902 157.111C76.9002 157.111 76.5002 157.171 75.7902 157.221C112.89 192.111 149.77 226.781 186.65 261.451L186.67 261.441ZM310.59 258.781L310.89 258.941C347.74 225.311 384.59 191.671 421.44 158.041L421.28 157.561C419.13 157.561 416.98 157.561 414.84 157.561C409.86 157.581 404.86 156.851 399.9 157.941C397.83 158.401 395.72 158.681 393.64 159.061C388.58 159.971 383.43 160.521 378.5 161.891C367.88 164.841 357.38 168.241 346.8 171.381C345.4 171.801 344.63 172.451 344.09 173.831C334.31 198.701 324.47 223.551 314.65 248.411C313.29 251.861 311.95 255.321 310.6 258.771L310.59 258.781ZM345.93 158.701C346.49 158.741 346.81 158.781 347.13 158.781C357.79 158.781 368.44 158.781 379.1 158.781C379.57 158.781 380.04 158.721 380.5 158.641C385.1 157.841 389.69 157.041 394.28 156.211C397.85 155.571 401.52 155.221 404.95 154.141C410.29 152.461 415.47 150.261 420.71 148.281C421 148.171 421.26 147.991 421.65 147.781C406.7 127.001 391.83 106.331 376.78 85.4107C366.42 110.011 356.2 134.301 345.92 158.711L345.93 158.701ZM149.23 158.781C139.22 134.711 129.31 110.891 119.29 86.7907C103.88 107.051 88.6802 127.031 73.3902 147.131C74.0302 147.391 74.4502 147.571 74.8802 147.731C80.2002 149.651 85.5102 151.601 90.8602 153.441C92.6302 154.051 94.4702 154.511 96.3202 154.791C101.59 155.601 106.87 156.341 112.15 156.991C118.27 157.741 124.32 159.101 130.56 158.851C134.28 158.701 138.01 158.781 141.74 158.771C144.14 158.771 146.54 158.771 149.23 158.771V158.781ZM115.94 86.6207L115.7 86.3807C84.9202 99.7407 54.1502 113.091 23.2702 126.491C25.5402 129.471 27.6502 132.311 29.8402 135.081C30.3102 135.671 30.9902 136.201 31.6902 136.491C39.4402 139.721 47.2002 142.901 54.9702 146.061C55.7702 146.391 56.6902 146.581 57.5502 146.601C61.2702 146.671 65.0002 146.621 68.7302 146.701C69.8302 146.721 70.5202 146.381 71.2002 145.491C84.5102 127.941 97.8502 110.421 111.18 92.8907C112.77 90.8007 114.35 88.7107 115.94 86.6207ZM475.05 129.021C443.7 114.841 412.7 100.821 381.69 86.8007L381.4 87.2507C381.74 87.7307 382.08 88.2207 382.42 88.7007C395.97 107.471 409.53 126.231 423.03 145.041C423.88 146.221 424.66 146.521 426.04 146.281C433.57 145.011 441.12 143.861 448.65 142.611C450.35 142.331 452.2 142.171 453.67 141.371C459.46 138.211 465.13 134.831 470.84 131.521C472.13 130.771 473.4 130.001 475.05 129.021ZM296.52 59.2607L296.4 58.9107C264.87 59.3307 233.35 59.7507 201.82 60.1707C202.12 60.8107 202.47 61.1007 202.85 61.3707C217.05 71.6707 231.26 81.9607 245.42 92.3007C246.49 93.0807 247.16 93.0507 248.22 92.3207C260.77 83.6907 273.35 75.1107 285.93 66.5207C289.46 64.1007 292.99 61.6807 296.52 59.2607ZM169.78 249.771L169.94 249.601C169.71 249.341 169.49 249.061 169.23 248.821C160.85 240.941 152.46 233.061 144.08 225.181C120.1 202.641 96.1202 180.091 72.1402 157.551C71.7002 157.141 71.1802 156.781 70.6302 156.541C56.8502 150.511 43.0802 144.471 29.2602 138.541C27.7502 137.891 25.9602 137.891 24.3002 137.581L24.1402 138.091C72.6902 175.321 121.23 212.541 169.78 249.771ZM121.52 81.1807C145.95 73.7907 170.04 66.5007 194.13 59.2207L194.09 58.8707C172.61 53.8007 151.13 48.7407 129.54 43.6507C126.86 56.2107 124.23 68.5007 121.53 81.1907L121.52 81.1807ZM307.04 57.8407L307.02 58.2107C329.44 65.8207 351.86 73.4207 374.6 81.1407C372.02 67.8207 369.49 54.8207 366.94 41.6707C346.83 47.1007 326.94 52.4707 307.04 57.8407ZM61.6702 58.7407L61.5102 58.5807C61.1802 58.8007 60.8402 59.0007 60.5202 59.2507C41.5202 73.9907 22.5202 88.7207 3.55023 103.501C3.09023 103.861 2.72023 104.641 2.70023 105.231C2.62023 108.291 2.66023 111.361 2.66023 114.421C2.66023 116.761 3.19023 117.501 5.46023 118.331C9.93023 119.961 14.4202 121.541 18.8602 123.271C20.1302 123.761 20.6902 123.561 21.4202 122.411C33.9902 102.471 46.6102 82.5607 59.2202 62.6507C60.0402 61.3507 60.8502 60.0407 61.6702 58.7407ZM336.93 238.931L337.13 239.191C337.6 238.851 338.08 238.521 338.55 238.171C356.46 224.551 374.36 210.931 392.27 197.311C419.79 176.381 447.31 155.461 474.8 134.491C476.16 133.451 477.19 131.991 478.37 130.731C475.87 131.771 473.63 133.061 471.39 134.341C465.28 137.821 459.3 141.531 453.04 144.701C444.75 148.891 436.24 152.621 427.85 156.601C426.72 157.131 425.65 157.881 424.72 158.721C397.2 183.831 369.69 208.961 342.19 234.091C340.43 235.691 338.69 237.311 336.94 238.921L336.93 238.931ZM480.5 128.261C483.55 124.791 486.42 121.551 489.24 118.251C489.59 117.841 489.73 117.141 489.73 116.581C489.77 112.901 489.71 109.221 489.78 105.551C489.8 104.491 489.44 103.831 488.62 103.181C471.03 89.0907 453.46 74.9707 435.89 60.8607C435.21 60.3207 434.54 59.7707 433.86 59.2307L433.61 59.4607C449.2 82.3407 464.79 105.221 480.49 128.261H480.5ZM76.2202 48.8407C76.7202 48.8907 76.8202 48.9207 76.9002 48.9107C93.2002 45.8407 109.5 42.7507 125.81 39.7007C126.79 39.5207 126.99 39.0907 126.98 38.2007C126.95 32.7807 126.97 27.3507 126.96 21.9307C126.96 21.5907 126.88 21.2507 126.82 20.7307C109.94 30.1107 93.2302 39.3907 76.2202 48.8407ZM418.27 48.9807L418.39 48.6807C402.17 39.3007 385.95 29.9207 369.51 20.4207C369.51 26.5407 369.54 32.2907 369.48 38.0407C369.47 39.1507 369.78 39.5607 370.9 39.7707C384.32 42.3507 397.72 44.9807 411.13 47.6007C413.51 48.0607 415.89 48.5207 418.27 48.9907V48.9807ZM319.72 167.241V167.541C319.94 167.581 320.16 167.641 320.39 167.661C327.71 168.331 335.03 169.001 342.36 169.641C342.86 169.681 343.39 169.571 343.88 169.441C352.41 167.041 360.93 164.631 369.45 162.211C369.81 162.111 370.16 161.941 370.51 161.811L370.45 161.541H368.91C362.55 161.541 356.18 161.631 349.82 161.511C345.59 161.431 341.47 161.801 337.39 162.961C334.18 163.871 330.89 164.541 327.64 165.321C325 165.961 322.35 166.601 319.71 167.251L319.72 167.241ZM177.7 167.621V167.371C177.3 167.261 176.91 167.121 176.5 167.031C169.26 165.501 162.03 163.981 154.79 162.471C153.09 162.121 151.37 161.611 149.65 161.581C144 161.471 138.34 161.531 132.69 161.541C132.38 161.541 132.06 161.631 131.37 161.741C132.11 162.051 132.45 162.211 132.8 162.341C138.84 164.601 144.88 166.881 150.94 169.091C151.79 169.401 152.78 169.521 153.68 169.461C161.2 168.941 168.72 168.371 176.23 167.801C176.72 167.761 177.21 167.681 177.69 167.621H177.7ZM271.02 168.891L270.97 168.541C266.81 168.111 262.66 167.641 258.49 167.261C254.84 166.931 251.16 166.341 247.52 166.541C241.36 166.861 235.23 167.711 229.09 168.341C228.08 168.441 227.06 168.571 226.05 168.681C226.37 169.031 226.71 169.181 227.06 169.271C232.84 170.791 238.62 172.351 244.43 173.781C245.6 174.071 246.94 174.061 248.13 173.851C251.37 173.261 254.58 172.501 257.8 171.791C262.2 170.831 266.61 169.851 271.01 168.881L271.02 168.891ZM412.12 154.351L412.17 154.741C412.52 154.761 412.88 154.801 413.23 154.811C416.67 154.901 420.11 155.011 423.55 155.041C424.23 155.041 424.96 154.891 425.59 154.611C431.27 152.071 436.94 149.491 442.6 146.921C442.85 146.811 443.06 146.631 443.29 146.481C438.41 147.051 433.64 148.031 428.82 148.501C422.72 149.101 417.67 152.351 412.13 154.341L412.12 154.351ZM9.24023 122.641L9.07023 122.931C12.9302 126.921 16.7902 130.921 20.6602 134.911C20.8202 135.071 21.0402 135.271 21.2402 135.281C22.9402 135.311 24.6502 135.301 26.5102 135.301C24.3202 132.431 22.2002 129.671 20.0802 126.911C19.9202 126.701 19.6602 126.511 19.4102 126.411C16.0202 125.151 12.6302 123.901 9.24023 122.651V122.641ZM62.3802 149.571C62.3802 149.571 62.3802 149.661 62.4302 149.691C63.2302 150.091 64.0402 150.461 64.8302 150.881C69.3202 153.251 73.8802 155.241 79.1702 154.471C80.5502 154.271 81.9902 154.451 83.4002 154.431C83.7302 154.431 84.0702 154.361 84.4002 154.331C77.2602 151.571 70.3502 147.941 62.3702 149.571H62.3802Z" fill="white"/>
</g>
<defs>
<clipPath id="clip0_764_8756">
<rect width="492.53" height="311.49" fill="white"/>
</clipPath>
</defs>
</svg>
