<svg width="819" height="335" viewBox="0 0 819 335" fill="none" xmlns="http://www.w3.org/2000/svg">
<g opacity="0.3">
<ellipse cx="2.23073" cy="2.24731" rx="2.23073" ry="2.24731" fill="#C4C4C4"/>
<ellipse cx="70.2678" cy="2.24731" rx="2.23073" ry="2.24731" fill="#C4C4C4"/>
<ellipse cx="138.305" cy="2.24731" rx="2.23073" ry="2.24731" fill="#C4C4C4"/>
<ellipse cx="206.344" cy="2.24731" rx="2.23073" ry="2.24731" fill="#C4C4C4"/>
<ellipse cx="274.381" cy="2.24731" rx="2.23073" ry="2.24731" fill="#C4C4C4"/>
<ellipse cx="342.418" cy="2.24731" rx="2.23073" ry="2.24731" fill="#C4C4C4"/>
<ellipse cx="410.455" cy="2.24731" rx="2.23073" ry="2.24731" fill="#C4C4C4"/>
<ellipse cx="478.492" cy="2.24731" rx="2.23073" ry="2.24731" fill="#C4C4C4"/>
<ellipse cx="544.619" cy="2.24731" rx="2.23073" ry="2.24731" fill="#C4C4C4"/>
<ellipse cx="612.656" cy="2.24731" rx="2.23073" ry="2.24731" fill="#C4C4C4"/>
<ellipse cx="680.696" cy="2.24731" rx="2.23073" ry="2.24731" fill="#C4C4C4"/>
<ellipse cx="748.733" cy="2.24731" rx="2.23073" ry="2.24731" fill="#C4C4C4"/>
<ellipse cx="816.77" cy="2.24731" rx="2.23073" ry="2.24731" fill="#C4C4C4"/>
<ellipse cx="2.23073" cy="57.3059" rx="2.23073" ry="2.24731" fill="#C4C4C4"/>
<ellipse cx="70.2678" cy="57.3059" rx="2.23073" ry="2.24731" fill="#C4C4C4"/>
<ellipse cx="138.305" cy="57.3059" rx="2.23073" ry="2.24731" fill="#C4C4C4"/>
<ellipse cx="206.344" cy="57.3059" rx="2.23073" ry="2.24731" fill="#C4C4C4"/>
<ellipse cx="274.381" cy="57.3059" rx="2.23073" ry="2.24731" fill="#C4C4C4"/>
<ellipse cx="342.418" cy="57.3059" rx="2.23073" ry="2.24731" fill="#C4C4C4"/>
<ellipse cx="410.455" cy="57.3059" rx="2.23073" ry="2.24731" fill="#C4C4C4"/>
<ellipse cx="478.492" cy="57.3059" rx="2.23073" ry="2.24731" fill="#C4C4C4"/>
<ellipse cx="544.619" cy="57.3059" rx="2.23073" ry="2.24731" fill="#C4C4C4"/>
<ellipse cx="612.656" cy="57.3059" rx="2.23073" ry="2.24731" fill="#C4C4C4"/>
<ellipse cx="680.696" cy="57.3059" rx="2.23073" ry="2.24731" fill="#C4C4C4"/>
<ellipse cx="748.733" cy="57.3059" rx="2.23073" ry="2.24731" fill="#C4C4C4"/>
<ellipse cx="816.77" cy="57.3059" rx="2.23073" ry="2.24731" fill="#C4C4C4"/>
<ellipse cx="2.23073" cy="112.364" rx="2.23073" ry="2.24731" fill="#C4C4C4"/>
<ellipse cx="70.2678" cy="112.364" rx="2.23073" ry="2.24731" fill="#C4C4C4"/>
<ellipse cx="138.305" cy="112.364" rx="2.23073" ry="2.24731" fill="#C4C4C4"/>
<ellipse cx="206.344" cy="112.364" rx="2.23073" ry="2.24731" fill="#C4C4C4"/>
<ellipse cx="274.381" cy="112.364" rx="2.23073" ry="2.24731" fill="#C4C4C4"/>
<ellipse cx="342.418" cy="112.364" rx="2.23073" ry="2.24731" fill="#C4C4C4"/>
<ellipse cx="410.455" cy="112.364" rx="2.23073" ry="2.24731" fill="#C4C4C4"/>
<ellipse cx="478.492" cy="112.364" rx="2.23073" ry="2.24731" fill="#C4C4C4"/>
<ellipse cx="544.619" cy="112.364" rx="2.23073" ry="2.24731" fill="#C4C4C4"/>
<ellipse cx="612.656" cy="112.364" rx="2.23073" ry="2.24731" fill="#C4C4C4"/>
<ellipse cx="680.696" cy="112.364" rx="2.23073" ry="2.24731" fill="#C4C4C4"/>
<ellipse cx="748.733" cy="112.364" rx="2.23073" ry="2.24731" fill="#C4C4C4"/>
<ellipse cx="816.77" cy="112.364" rx="2.23073" ry="2.24731" fill="#C4C4C4"/>
<ellipse cx="2.23073" cy="167.425" rx="2.23073" ry="2.24731" fill="#C4C4C4"/>
<ellipse cx="70.2678" cy="167.425" rx="2.23073" ry="2.24731" fill="#C4C4C4"/>
<ellipse cx="138.305" cy="167.425" rx="2.23073" ry="2.24731" fill="#C4C4C4"/>
<ellipse cx="206.344" cy="167.425" rx="2.23073" ry="2.24731" fill="#C4C4C4"/>
<ellipse cx="274.381" cy="167.425" rx="2.23073" ry="2.24731" fill="#C4C4C4"/>
<ellipse cx="342.418" cy="167.425" rx="2.23073" ry="2.24731" fill="#C4C4C4"/>
<ellipse cx="410.455" cy="167.425" rx="2.23073" ry="2.24731" fill="#C4C4C4"/>
<ellipse cx="478.492" cy="167.425" rx="2.23073" ry="2.24731" fill="#C4C4C4"/>
<ellipse cx="544.619" cy="167.425" rx="2.23073" ry="2.24731" fill="#C4C4C4"/>
<ellipse cx="612.656" cy="167.425" rx="2.23073" ry="2.24731" fill="#C4C4C4"/>
<ellipse cx="680.696" cy="167.425" rx="2.23073" ry="2.24731" fill="#C4C4C4"/>
<ellipse cx="748.733" cy="167.425" rx="2.23073" ry="2.24731" fill="#C4C4C4"/>
<ellipse cx="816.77" cy="167.425" rx="2.23073" ry="2.24731" fill="#C4C4C4"/>
<ellipse cx="2.23073" cy="222.484" rx="2.23073" ry="2.24731" fill="#C4C4C4"/>
<ellipse cx="70.2678" cy="222.484" rx="2.23073" ry="2.24731" fill="#C4C4C4"/>
<ellipse cx="138.305" cy="222.484" rx="2.23073" ry="2.24731" fill="#C4C4C4"/>
<ellipse cx="206.344" cy="222.484" rx="2.23073" ry="2.24731" fill="#C4C4C4"/>
<ellipse cx="274.381" cy="222.484" rx="2.23073" ry="2.24731" fill="#C4C4C4"/>
<ellipse cx="342.418" cy="222.484" rx="2.23073" ry="2.24731" fill="#C4C4C4"/>
<ellipse cx="410.455" cy="222.484" rx="2.23073" ry="2.24731" fill="#C4C4C4"/>
<ellipse cx="478.492" cy="222.484" rx="2.23073" ry="2.24731" fill="#C4C4C4"/>
<ellipse cx="544.619" cy="222.484" rx="2.23073" ry="2.24731" fill="#C4C4C4"/>
<ellipse cx="612.656" cy="222.484" rx="2.23073" ry="2.24731" fill="#C4C4C4"/>
<ellipse cx="680.696" cy="222.484" rx="2.23073" ry="2.24731" fill="#C4C4C4"/>
<ellipse cx="748.733" cy="222.484" rx="2.23073" ry="2.24731" fill="#C4C4C4"/>
<ellipse cx="816.77" cy="222.484" rx="2.23073" ry="2.24731" fill="#C4C4C4"/>
<ellipse cx="2.23073" cy="277.542" rx="2.23073" ry="2.24731" fill="#C4C4C4"/>
<ellipse cx="70.2678" cy="277.542" rx="2.23073" ry="2.24731" fill="#C4C4C4"/>
<ellipse cx="138.305" cy="277.542" rx="2.23073" ry="2.24731" fill="#C4C4C4"/>
<ellipse cx="206.344" cy="277.542" rx="2.23073" ry="2.24731" fill="#C4C4C4"/>
<ellipse cx="274.381" cy="277.542" rx="2.23073" ry="2.24731" fill="#C4C4C4"/>
<ellipse cx="342.418" cy="277.542" rx="2.23073" ry="2.24731" fill="#C4C4C4"/>
<ellipse cx="410.455" cy="277.542" rx="2.23073" ry="2.24731" fill="#C4C4C4"/>
<ellipse cx="478.492" cy="277.542" rx="2.23073" ry="2.24731" fill="#C4C4C4"/>
<ellipse cx="544.619" cy="277.542" rx="2.23073" ry="2.24731" fill="#C4C4C4"/>
<ellipse cx="612.656" cy="277.542" rx="2.23073" ry="2.24731" fill="#C4C4C4"/>
<ellipse cx="680.696" cy="277.542" rx="2.23073" ry="2.24731" fill="#C4C4C4"/>
<ellipse cx="748.733" cy="277.542" rx="2.23073" ry="2.24731" fill="#C4C4C4"/>
<ellipse cx="816.77" cy="277.542" rx="2.23073" ry="2.24731" fill="#C4C4C4"/>
<ellipse cx="2.23073" cy="332.601" rx="2.23073" ry="2.24731" fill="#C4C4C4"/>
<ellipse cx="70.2678" cy="332.601" rx="2.23073" ry="2.24731" fill="#C4C4C4"/>
<ellipse cx="138.305" cy="332.601" rx="2.23073" ry="2.24731" fill="#C4C4C4"/>
<ellipse cx="206.344" cy="332.601" rx="2.23073" ry="2.24731" fill="#C4C4C4"/>
<ellipse cx="274.381" cy="332.601" rx="2.23073" ry="2.24731" fill="#C4C4C4"/>
<ellipse cx="342.418" cy="332.601" rx="2.23073" ry="2.24731" fill="#C4C4C4"/>
<ellipse cx="410.455" cy="332.601" rx="2.23073" ry="2.24731" fill="#C4C4C4"/>
<ellipse cx="478.492" cy="332.601" rx="2.23073" ry="2.24731" fill="#C4C4C4"/>
<ellipse cx="544.619" cy="332.601" rx="2.23073" ry="2.24731" fill="#C4C4C4"/>
<ellipse cx="612.656" cy="332.601" rx="2.23073" ry="2.24731" fill="#C4C4C4"/>
<ellipse cx="680.696" cy="332.601" rx="2.23073" ry="2.24731" fill="#C4C4C4"/>
<ellipse cx="748.733" cy="332.601" rx="2.23073" ry="2.24731" fill="#C4C4C4"/>
<ellipse cx="816.77" cy="332.601" rx="2.23073" ry="2.24731" fill="#C4C4C4"/>
</g>
</svg>
