<svg width="114" height="112" viewBox="0 0 114 112" fill="none" xmlns="http://www.w3.org/2000/svg">
<g clip-path="url(#clip0_721_8999)">
<path d="M32.7279 71.6318C32.4083 72.8738 31.3623 73.1753 30.4181 72.2994L11.9616 55.278C11.7402 55.1287 11.5676 54.9189 11.4649 54.6743C11.3621 54.4296 11.3336 54.1607 11.3829 53.9003C11.4322 53.6399 11.5572 53.3994 11.7425 53.208C11.9278 53.0167 12.1655 52.8828 12.4265 52.8227L38.3135 42.5998C39.5192 42.1188 40.2383 42.7434 39.9187 43.9925L32.7279 71.6318Z" fill="#3E4E74"/>
<path d="M17.4822 87.8073C16.4943 88.6472 15.4993 88.3026 15.3031 87.0391L10.2187 59.3783C9.98629 58.1148 10.5746 57.799 11.5261 58.6604L29.0529 74.8707C29.2772 75.0674 29.4555 75.3099 29.5756 75.5815C29.6958 75.853 29.7547 76.1472 29.7485 76.4435C29.7423 76.7398 29.671 77.0312 29.5396 77.2976C29.4082 77.564 29.2198 77.799 28.9875 77.9864L17.4822 87.8073Z" fill="#546697"/>
<path d="M38.6622 37.0874C38.8634 37.2769 39.0106 37.5155 39.089 37.7791C39.1674 38.0428 39.1742 38.3222 39.1087 38.5892C39.0431 38.8562 38.9076 39.1015 38.7158 39.3004C38.5239 39.4993 38.2825 39.6447 38.0157 39.7221L12.274 49.8947C11.0683 50.3686 10.4509 49.7727 10.9012 48.5738L21.4768 20.4966C21.9271 19.2905 22.9876 19.1039 23.8374 20.0731L38.6622 37.0874Z" fill="#546697"/>
<path d="M11.6994 83.1039C11.9246 84.3674 11.5396 84.5397 10.8351 83.4413L0.847836 68.2002C0.500574 67.6144 0.328529 66.9433 0.351671 66.2647C0.374813 65.5861 0.592193 64.928 0.978578 64.3666L5.43834 58.4655C6.21553 57.4317 7.0363 57.6327 7.26147 58.8675L11.6994 83.1039Z" fill="#546697"/>
<path d="M8.55489 46.8497C8.10456 48.0486 7.39274 48.0414 6.98599 46.8497L3.57216 36.7129C3.38875 36.0508 3.38482 35.3526 3.56076 34.6885C3.7367 34.0244 4.08632 33.4178 4.57452 32.9295L16.7045 22.0389C17.6633 21.1775 18.0846 21.4574 17.627 22.6635L8.55489 46.8497Z" fill="#546697"/>
<path d="M5.34462 50.749C5.53406 51.4373 5.57309 52.1575 5.45912 52.8618C5.34516 53.5661 5.08081 54.2383 4.68365 54.8339L1.18992 59.4572C0.412733 60.4838 -0.110236 60.3043 -0.00128455 59.0049L1.66931 42.9526C1.80732 41.6747 2.25039 41.6245 2.65714 42.8449L5.34462 50.749Z" fill="#546697"/>
<path d="M19.0644 14.5946C19.493 15.09 19.0644 16.2027 18.0984 17.0642L12.629 21.9675C11.6702 22.829 11.5177 22.6854 12.2876 21.6588L16.8709 15.571C17.6408 14.5372 18.6286 14.0993 19.0644 14.5946Z" fill="#546697"/>
<path d="M53.5727 100.04C53.4738 100.286 53.3042 100.499 53.0848 100.652C52.8654 100.805 52.6057 100.891 52.3374 100.9C52.0691 100.909 51.804 100.841 51.5745 100.703C51.3449 100.566 51.1609 100.365 51.045 100.126L36.7433 79.5652C36.0169 78.5099 36.4673 77.5408 37.7602 77.4115L66.4799 74.4825C67.7728 74.3533 68.2958 75.1501 67.642 76.2557L53.5727 100.04Z" fill="#546697"/>
<path d="M47.5815 100.061C48.3078 101.116 47.9156 101.64 46.6881 101.231L19.7624 92.1854C18.5276 91.7762 18.3097 90.7496 19.3121 89.9096L30.8537 80.0887C31.0758 79.8903 31.3389 79.7418 31.6247 79.6536C31.9105 79.5654 32.2123 79.5395 32.5092 79.5777C32.8061 79.6159 33.0911 79.7173 33.3445 79.875C33.5979 80.0326 33.8137 80.2427 33.977 80.4908L47.5815 100.061Z" fill="#546697"/>
<path d="M67.0847 69.694C67.9272 70.6704 67.5641 71.5749 66.2712 71.7042L37.1229 74.6619C36.8533 74.7197 36.573 74.7044 36.3115 74.6179C36.05 74.5313 35.8169 74.3766 35.6369 74.17C35.4569 73.9634 35.3367 73.7127 35.2889 73.4442C35.241 73.1758 35.2674 72.8995 35.3651 72.6446L42.6286 44.589C42.9554 43.347 43.9142 43.1532 44.7568 44.1008L67.0847 69.694Z" fill="#5FC5D9"/>
<path d="M88.0328 93.7362C88.8826 94.7126 88.5339 95.7248 87.2628 95.9832L57.5989 102.157C56.3278 102.423 55.8266 101.734 56.4803 100.621L70.4552 76.966C70.572 76.7168 70.753 76.5023 70.9802 76.3441C71.2074 76.186 71.4727 76.0897 71.7494 76.065C72.0262 76.0402 72.3047 76.0879 72.5569 76.2032C72.8091 76.3185 73.0261 76.4974 73.1862 76.7219L88.0328 93.7362Z" fill="#546697"/>
<path d="M40.3118 109.516C39.694 109.807 39.0055 109.92 38.3257 109.841C37.6459 109.763 37.0024 109.496 36.4695 109.071L22.6689 97.0533C21.6956 96.2061 21.9062 95.8472 23.1337 96.2636L46.6964 104.161C47.9312 104.577 47.9966 105.41 46.8562 106.02L40.3118 109.516Z" fill="#546697"/>
<path d="M72.3134 110.658C71.7543 111.065 71.0959 111.318 70.4055 111.392C69.7151 111.465 69.0175 111.355 68.3838 111.075L58.767 106.251C57.6121 105.669 57.7065 104.973 58.9776 104.707L84.5305 99.3945C85.7943 99.1289 85.9832 99.5812 85.0099 100.392L72.3134 110.658Z" fill="#546697"/>
<path d="M45.5464 111.276C44.2463 111.219 44.0937 110.673 45.2704 110.07L50.4129 107.342C51.0673 107.042 51.7788 106.883 52.5001 106.875C53.2215 106.868 53.9361 107.012 54.5967 107.299L62.1071 111.075C63.2693 111.656 63.153 112.08 61.8529 112.023L45.5464 111.276Z" fill="#546697"/>
<path d="M92.8028 99.2138C93.2313 99.7091 92.6502 100.607 91.5026 101.217L84.7331 104.806C83.5854 105.416 83.4692 105.244 84.4788 104.433L90.1879 99.8097C91.1975 98.9769 92.367 98.7184 92.8028 99.2138Z" fill="#546697"/>
<path d="M75.6831 69.4004C74.4773 69.8814 73.7583 69.2497 74.0778 68.0077L81.2687 40.3685C81.5883 39.1265 82.6342 38.825 83.5785 39.7008L102.035 56.7151C102.256 56.8655 102.428 57.076 102.53 57.3209C102.632 57.5659 102.66 57.8349 102.611 58.0954C102.562 58.3559 102.437 58.5968 102.253 58.7888C102.068 58.9809 101.831 59.1159 101.57 59.1775L75.6831 69.4004Z" fill="#3E4E74"/>
<path d="M103.787 52.6225C104.02 53.886 103.431 54.2019 102.48 53.3404L84.9168 37.1301C84.6925 36.9334 84.5141 36.6909 84.394 36.4193C84.2739 36.1478 84.2149 35.8537 84.2211 35.5574C84.2274 35.261 84.2986 34.9696 84.43 34.7032C84.5614 34.4368 84.7498 34.2018 84.9822 34.0144L96.5165 24.1863C97.5044 23.3536 98.4995 23.6982 98.6956 24.9617L103.787 52.6225Z" fill="#546697"/>
<path d="M92.5219 91.5033C92.0716 92.7094 91.0111 92.896 90.1613 91.9269L75.3293 74.9054C75.1299 74.7152 74.9846 74.4765 74.9078 74.2134C74.8309 73.9502 74.8253 73.6718 74.8915 73.4058C74.9577 73.1398 75.0933 72.8957 75.2848 72.6978C75.4764 72.4998 75.7171 72.355 75.983 72.2779L101.725 62.1052C102.93 61.6314 103.548 62.2201 103.098 63.4261L92.5219 91.5033Z" fill="#546697"/>
<path d="M113.148 43.7925C113.494 44.3775 113.665 45.0472 113.642 45.7244C113.619 46.4015 113.403 47.0583 113.018 47.6189L108.558 53.5273C107.781 54.5539 106.96 54.36 106.728 53.0965L102.304 28.896C102.072 27.6325 102.457 27.4602 103.161 28.5514L113.148 43.7925Z" fill="#546697"/>
<path d="M110.404 75.286C110.587 75.9481 110.591 76.6462 110.415 77.3103C110.239 77.9744 109.89 78.581 109.401 79.0693L97.2424 89.9599C96.2837 90.8214 95.8624 90.5414 96.32 89.3353L105.421 65.1492C105.879 63.9431 106.583 63.9575 106.99 65.1492L110.404 75.286Z" fill="#546697"/>
<path d="M112.306 69.0473C112.176 70.318 111.725 70.3682 111.318 69.155L108.653 61.258C108.464 60.5693 108.427 59.8488 108.542 59.1445C108.657 58.4401 108.923 57.7681 109.321 57.1732L112.807 52.5499C113.585 51.5233 114.115 51.7243 113.977 53.0022L112.306 69.0473Z" fill="#546697"/>
<path d="M97.1252 96.4291C96.348 97.4628 95.3675 97.9008 94.9462 97.3982C94.5249 96.8957 94.9462 95.7973 95.9122 94.9358L101.382 90.0326C102.34 89.1711 102.493 89.3147 101.723 90.3413L97.1252 96.4291Z" fill="#546697"/>
<path d="M77.2528 32.4275C77.9792 33.49 77.5288 34.4592 76.2359 34.5813L47.5162 37.5247C46.2233 37.6539 45.7003 36.857 46.3541 35.7514L60.4306 11.9601C60.5313 11.7156 60.7012 11.505 60.9199 11.3535C61.1387 11.2021 61.3971 11.1163 61.664 11.1064C61.9309 11.0966 62.195 11.1631 62.4246 11.298C62.6542 11.4328 62.8395 11.6304 62.9583 11.8668L77.2528 32.4275Z" fill="#3E4E74"/>
<path d="M83.1446 31.9113C82.9219 32.1086 82.6588 32.256 82.3731 32.3436C82.0875 32.4311 81.7861 32.4567 81.4896 32.4185C81.1931 32.3803 80.9084 32.2793 80.6549 32.1224C80.4015 31.9655 80.1854 31.7563 80.0213 31.5092L66.4168 11.9392C65.6905 10.8839 66.0827 10.3526 67.3102 10.769L94.2359 19.8146C95.4707 20.2238 95.6886 21.2504 94.6862 22.0832L83.1446 31.9113Z" fill="#546697"/>
<path d="M71.3401 67.3898C71.0133 68.639 70.0545 68.8257 69.2119 67.8852L46.9131 42.2991C46.0705 41.33 46.4337 40.4254 47.7266 40.2962L76.8749 37.3313C77.1444 37.2735 77.4248 37.2887 77.6863 37.3753C77.9478 37.4619 78.1809 37.6166 78.3608 37.8232C78.5408 38.0297 78.6611 38.2805 78.7089 38.5489C78.7568 38.8174 78.7304 39.0937 78.6326 39.3486L71.3401 67.3898Z" fill="#546697"/>
<path d="M43.5281 35.0333C43.4114 35.2825 43.2303 35.497 43.0031 35.6552C42.7759 35.8133 42.5106 35.9096 42.2339 35.9344C41.9571 35.9591 41.6786 35.9114 41.4264 35.7961C41.1742 35.6808 40.9572 35.5019 40.7971 35.2774L25.9651 18.2631C25.1152 17.2867 25.4639 16.2745 26.735 16.0161L56.399 9.8421C57.6701 9.57647 58.1713 10.2657 57.5175 11.3784L43.5281 35.0333Z" fill="#546697"/>
<path d="M67.2734 7.81738C66.0386 7.40817 65.9732 6.5754 67.1136 5.96519L73.6507 2.48336C74.2687 2.18968 74.9583 2.07495 75.6395 2.15245C76.3208 2.22995 76.9659 2.4965 77.5003 2.92128L91.3009 14.939C92.2742 15.7861 92.0272 16.145 90.836 15.7358L67.2734 7.81738Z" fill="#546697"/>
<path d="M29.4664 12.6063C28.2026 12.8719 28.0137 12.4196 28.9871 11.6084L41.6836 1.34237C42.2429 0.936288 42.9008 0.683286 43.5908 0.608916C44.2807 0.534546 44.9783 0.641442 45.6131 0.918809L55.2009 5.74311C56.3558 6.32462 56.2613 7.02098 54.9975 7.27943L29.4664 12.6063Z" fill="#546697"/>
<path d="M63.5835 4.68805C62.9292 4.98816 62.2177 5.14721 61.4964 5.15464C60.775 5.16207 60.0603 5.0177 59.3998 4.73112L51.8894 0.95495C50.7272 0.373449 50.8434 -0.0501136 52.1436 0.000139566L68.4501 0.718042C69.7502 0.775475 69.9027 1.32108 68.7333 1.9313L63.5835 4.68805Z" fill="#546697"/>
<path d="M23.8093 12.2039C22.7997 13.0151 21.6303 13.2736 21.1945 12.7782C20.7587 12.2829 21.347 11.3855 22.5164 10.7681L29.286 7.1786C30.4336 6.57556 30.5498 6.74785 29.5474 7.55908L23.8093 12.2039Z" fill="#546697"/>
<path d="M15.1133 93.4923C15.6145 93.0687 16.7331 93.4923 17.6047 94.4471L22.5656 99.8529C23.4372 100.801 23.292 100.951 22.2533 100.19L16.0939 95.6603C15.0479 94.8922 14.6049 93.9158 15.1133 93.4923Z" fill="#546697"/>
<path d="M100.722 20.6111C101.223 20.1803 102.175 20.7618 102.749 21.889L106.38 28.587C106.998 29.7213 106.823 29.8361 106.003 28.8382L101.325 23.1955C100.482 22.1976 100.235 21.0346 100.722 20.6111Z" fill="#546697"/>
<path d="M97.9035 16.3399C98.9494 17.1009 99.3925 18.0773 98.8913 18.4936C98.3902 18.91 97.2643 18.4936 96.3927 17.5388L91.4318 12.133C90.5602 11.1854 90.7054 11.0346 91.7441 11.7956L97.9035 16.3399Z" fill="#546697"/>
<path d="M12.6955 88.8041C13.5163 89.7948 13.7778 90.9579 13.2766 91.3886C12.7754 91.8193 11.8675 91.2378 11.2501 90.1036L7.61838 83.4127C7.00825 82.2784 7.18257 82.1636 8.00334 83.1543L12.6955 88.8041Z" fill="#546697"/>
</g>
<defs>
<clipPath id="clip0_721_8999">
<rect width="114" height="112" fill="white"/>
</clipPath>
</defs>
</svg>
