<svg width="48" height="48" viewBox="0 0 48 48" fill="none" xmlns="http://www.w3.org/2000/svg">
<circle opacity="0.1" cx="24" cy="24" r="24" fill="white"/>
<path d="M16.9789 22.702C19.6187 22.702 21.7586 20.5621 21.7586 17.9223C21.7586 15.2825 19.6187 13.1426 16.9789 13.1426C14.3392 13.1426 12.1992 15.2825 12.1992 17.9223C12.1992 20.5621 14.3392 22.702 16.9789 22.702Z" stroke="#6ECCE8" stroke-width="0.7" stroke-miterlimit="10"/>
<path d="M31.0297 22.702C33.6695 22.702 35.8094 20.5621 35.8094 17.9223C35.8094 15.2825 33.6695 13.1426 31.0297 13.1426C28.39 13.1426 26.25 15.2825 26.25 17.9223C26.25 20.5621 28.39 22.702 31.0297 22.702Z" stroke="#6ECCE8" stroke-width="0.7" stroke-miterlimit="10"/>
<path d="M16.9789 36.577C19.6187 36.577 21.7586 34.4371 21.7586 31.7973C21.7586 29.1575 19.6187 27.0176 16.9789 27.0176C14.3392 27.0176 12.1992 29.1575 12.1992 31.7973C12.1992 34.4371 14.3392 36.577 16.9789 36.577Z" stroke="#6ECCE8" stroke-width="0.7" stroke-miterlimit="10"/>
<path d="M31.0297 36.577C33.6695 36.577 35.8094 34.4371 35.8094 31.7973C35.8094 29.1575 33.6695 27.0176 31.0297 27.0176C28.39 27.0176 26.25 29.1575 26.25 31.7973C26.25 34.4371 28.39 36.577 31.0297 36.577Z" stroke="#6ECCE8" stroke-width="0.7" stroke-miterlimit="10"/>
</svg>
