<svg width="48" height="48" viewBox="0 0 48 48" fill="none" xmlns="http://www.w3.org/2000/svg">
<circle opacity="0.1" cx="24" cy="24" r="24" fill="white"/>
<path d="M18.5 30C18.5 30.5523 18.9477 31 19.5 31C20.0523 31 20.5 30.5523 20.5 30C20.5 29.4477 20.0523 29 19.5 29C18.9477 29 18.5 29.4477 18.5 30Z" stroke="#6ECCE8" stroke-width="0.7" stroke-miterlimit="10"/>
<path d="M19.5 29L19.5 27L13 27" stroke="#6ECCE8"/>
<path d="M18.5 21C18.5 20.4477 18.9477 20 19.5 20C20.0523 20 20.5 20.4477 20.5 21C20.5 21.5523 20.0523 22 19.5 22C18.9477 22 18.5 21.5523 18.5 21Z" stroke="#6ECCE8" stroke-width="0.7" stroke-miterlimit="10"/>
<path d="M19.5 22L19.5 24L13 24" stroke="#6ECCE8"/>
<rect x="12.5" y="18.5" width="23" height="14" stroke="#6ECCE8"/>
<rect x="25.5" y="24.5" width="9" height="2" stroke="#6ECCE8"/>
</svg>
