<svg width="679" height="17" viewBox="0 0 679 17" fill="none" xmlns="http://www.w3.org/2000/svg">
<g clip-path="url(#clip0_1102_9898)">
<g opacity="0.8">
<path opacity="0.8" d="M0 0.349609C13.5741 0.349609 13.5741 16.649 27.1483 16.649C40.7224 16.649 40.7305 0.349609 54.3046 0.349609C67.8787 0.349609 67.911 16.649 81.4528 16.649C94.9946 16.649 95.035 0.349609 108.609 0.349609C122.183 0.349609 122.183 16.649 135.765 16.649C149.348 16.649 149.34 0.349609 162.914 0.349609C176.488 0.349609 176.488 16.649 190.062 16.649C203.636 16.649 203.644 0.349609 217.218 0.349609C230.792 0.349609 230.801 16.649 244.375 16.649C257.949 16.649 257.949 0.349609 271.531 0.349609C285.113 0.349609 285.105 16.649 298.687 16.649C312.27 16.649 312.261 0.349609 325.811 0.349609C339.361 0.349609 339.394 16.649 352.968 16.649" stroke="#EC455E" stroke-width="0.72" stroke-miterlimit="10"/>
</g>
</g>
<g clip-path="url(#clip1_1102_9898)">
<g opacity="0.8">
<path opacity="0.8" d="M326 0.349609C339.574 0.349609 339.574 16.649 353.148 16.649C366.722 16.649 366.73 0.349609 380.305 0.349609C393.879 0.349609 393.911 16.649 407.453 16.649C420.995 16.649 421.035 0.349609 434.609 0.349609C448.183 0.349609 448.183 16.649 461.765 16.649C475.348 16.649 475.34 0.349609 488.914 0.349609C502.488 0.349609 502.488 16.649 516.062 16.649C529.636 16.649 529.644 0.349609 543.218 0.349609C556.792 0.349609 556.801 16.649 570.375 16.649C583.949 16.649 583.949 0.349609 597.531 0.349609C611.113 0.349609 611.105 16.649 624.687 16.649C638.27 16.649 638.261 0.349609 651.811 0.349609C665.361 0.349609 665.394 16.649 678.968 16.649" stroke="#EC455E" stroke-width="0.72" stroke-miterlimit="10"/>
</g>
</g>
<defs>
<clipPath id="clip0_1102_9898">
<rect width="353" height="17" fill="white"/>
</clipPath>
<clipPath id="clip1_1102_9898">
<rect width="353" height="17" fill="white" transform="translate(326)"/>
</clipPath>
</defs>
</svg>
