<svg width="105" height="133" viewBox="0 0 105 133" fill="none" xmlns="http://www.w3.org/2000/svg">
<g clip-path="url(#clip0_1329_18730)">
<path d="M18.1737 110.014C20.0166 111.065 21.481 112.485 22.5646 114.276C23.6459 116.066 24.1877 118.036 24.1877 120.18C24.1877 122.325 23.6459 124.303 22.5646 126.116C21.481 127.929 20.0189 129.366 18.1737 130.428C16.3284 131.49 14.3018 132.021 12.0939 132.021C9.88591 132.021 7.85704 131.49 6.01406 130.428C4.16881 129.366 2.70667 127.929 1.62309 126.116C0.53952 124.303 0 122.325 0 120.18C0 118.036 0.541787 116.068 1.62309 114.276C2.7044 112.485 4.16881 111.065 6.01406 110.014C7.85704 108.964 9.88591 108.439 12.0939 108.439C14.3018 108.439 16.3284 108.966 18.1737 110.014ZM7.22231 111.789C5.71936 112.651 4.52698 113.824 3.64289 115.304C2.7588 116.785 2.31676 118.41 2.31676 120.18C2.31676 121.95 2.7588 123.586 3.64289 125.088C4.52698 126.593 5.71936 127.78 7.22231 128.653C8.72299 129.527 10.3597 129.963 12.1256 129.963C13.8915 129.963 15.4897 129.527 16.979 128.653C18.4706 127.78 19.6562 126.591 20.5403 125.088C21.4244 123.584 21.8664 121.948 21.8664 120.18C21.8664 118.02 21.2068 116.073 19.8897 114.342C19.2482 113.497 18.4661 112.762 17.5888 112.17C15.9317 111.054 14.1114 110.495 12.1279 110.495C10.3597 110.495 8.72526 110.926 7.22458 111.789H7.22231Z" fill="#5FC5D9"/>
<path d="M48.6842 131.337L44.0008 124.26C43.2935 124.305 42.7517 124.325 42.3777 124.325H36.0168V130.74C36.0168 131.337 35.5339 131.823 34.9355 131.823H34.8108C34.2146 131.823 33.7295 131.339 33.7295 130.74V108.639H42.3777C45.2702 108.639 47.5077 109.308 49.0877 110.645C50.6677 111.983 51.4566 113.878 51.4566 116.333C51.4566 118.258 50.9919 119.86 50.0647 121.142C49.1375 122.424 47.8114 123.32 46.0886 123.828L50.4705 130.121C50.9692 130.838 50.4569 131.821 49.5841 131.821C49.2214 131.821 48.8837 131.639 48.6842 131.337ZM42.3777 122.27C44.5856 122.27 46.2881 121.766 47.4804 120.761C48.6728 119.755 49.269 118.301 49.269 116.399C49.269 114.498 48.6728 113.127 47.4804 112.154C46.2881 111.18 44.5856 110.695 42.3777 110.695H36.0168V122.27H42.3777Z" fill="#5FC5D9"/>
<path d="M77.3508 110.149C78.6656 111.176 79.323 112.597 79.323 114.41C79.323 115.781 78.9421 116.931 78.1804 117.859C77.4188 118.787 76.3533 119.395 74.9841 119.684C76.6843 119.906 78.0104 120.534 78.9603 121.574C79.9101 122.613 80.3839 123.929 80.3839 125.52C80.3839 127.51 79.6426 129.058 78.1646 130.163C76.6843 131.268 74.6305 131.821 72.0009 131.821H62.1943V108.605H71.9034C74.2225 108.605 76.0382 109.121 77.353 110.149H77.3508ZM75.6121 117.777C76.5188 117.058 76.9699 116.037 76.9699 114.71C76.9699 113.382 76.5165 112.431 75.6121 111.723C74.7053 111.015 73.4358 110.673 71.8014 110.695H64.4794V118.855H71.8014C73.4358 118.855 74.7053 118.497 75.6121 117.777ZM76.4236 128.59C77.5162 127.805 78.0626 126.704 78.0626 125.291C78.0626 123.877 77.5094 122.815 76.4055 122.041C75.3015 121.267 73.7645 120.879 71.7992 120.879H64.4771V129.768H71.7992C73.7872 129.768 75.3287 129.375 76.4213 128.59H76.4236Z" fill="#5FC5D9"/>
<path d="M100.262 111.043C99.1356 110.723 98.0746 110.562 97.0817 110.562C95.4904 110.562 94.2164 110.877 93.2552 111.508C92.2941 112.139 91.8135 112.994 91.8135 114.079C91.8135 115.03 92.0787 115.803 92.6092 116.4C93.1396 116.997 93.7902 117.467 94.5632 117.809C95.3362 118.152 96.3971 118.533 97.7437 118.953C99.3124 119.418 100.577 119.877 101.538 120.33C102.5 120.784 103.316 121.442 103.991 122.305C104.664 123.167 105.002 124.306 105.002 125.72C105.002 126.959 104.653 128.052 103.959 129.003C103.264 129.954 102.287 130.689 101.026 131.209C99.768 131.728 98.3195 131.989 96.685 131.989C95.0506 131.989 93.4978 131.669 91.9631 131.027C90.7254 130.51 89.6282 129.856 88.6693 129.067C88.2726 128.74 88.1706 128.173 88.4222 127.723C88.7396 127.158 89.4854 127.002 89.9954 127.403C90.8025 128.039 91.6956 128.561 92.6726 128.971C94.0418 129.546 95.3906 129.834 96.7145 129.834C98.4804 129.834 99.8836 129.475 100.922 128.756C101.96 128.039 102.479 127.07 102.479 125.854C102.479 124.88 102.214 124.086 101.684 123.466C101.153 122.847 100.502 122.373 99.7295 122.041C98.9565 121.71 97.8729 121.324 96.4833 120.88C94.9146 120.394 93.6565 119.933 92.7066 119.502C91.7568 119.071 90.9498 118.429 90.2879 117.578C89.6259 116.727 89.295 115.615 89.295 114.245C89.295 113.074 89.6259 112.043 90.2879 111.161C90.9498 110.276 91.8792 109.597 93.0716 109.121C94.264 108.646 95.6445 108.408 97.2132 108.408C98.4713 108.408 99.7363 108.597 101.008 108.971C101.89 109.232 102.699 109.552 103.436 109.929C103.964 110.199 104.182 110.838 103.912 111.367L103.88 111.431C103.61 111.962 102.964 112.155 102.434 111.887C101.752 111.542 101.026 111.261 100.262 111.043Z" fill="#5FC5D9"/>
</g>
<path d="M34.0005 55.4152C33.755 56.3786 32.9606 56.6113 32.2371 55.9324L18.1432 42.7684C17.4198 42.0895 17.5813 41.236 18.4985 40.8675L38.27 32.9535C39.1936 32.585 39.7427 33.0699 39.4972 34.0333L34.0069 55.4152H34.0005Z" fill="#3E4E74"/>
<path d="M22.3548 67.9325C21.6055 68.5791 20.8433 68.314 20.6689 67.3377L16.8064 45.9428C16.632 44.9665 17.0776 44.7208 17.8011 45.3997L31.2167 57.9301C31.9402 58.609 31.9208 59.6888 31.1715 60.3418L22.3548 67.939V67.9325Z" fill="#546697"/>
<path d="M38.5356 28.6996C39.1815 29.4496 38.9619 30.3677 38.0383 30.7363L18.3766 38.605C17.4529 38.9735 16.9879 38.5144 17.3302 37.5834L25.4042 15.8588C25.753 14.9277 26.5603 14.7855 27.2063 15.5355L38.5292 28.6996H38.5356Z" fill="#546697"/>
<path d="M17.9365 64.2944C18.1109 65.2707 17.8138 65.3871 17.2777 64.553L9.64943 52.7661C9.11332 51.932 9.15207 50.6001 9.74631 49.8048L13.1503 45.2401C13.7445 44.4448 14.3711 44.5935 14.5519 45.5698L17.9301 64.2944H17.9365Z" fill="#546697"/>
<path d="M15.5396 36.2456C15.1908 37.1766 14.6547 37.1637 14.3382 36.2262L11.7351 28.4027C11.4186 27.4588 11.7674 26.1462 12.5038 25.4803L21.7856 17.0555C22.5219 16.3896 22.8384 16.6029 22.4896 17.534L15.5331 36.2456H15.5396Z" fill="#546697"/>
<path d="M13.0855 39.265C13.402 40.209 13.1695 41.625 12.5753 42.4267L9.90761 46.0022C9.31337 46.7975 8.9129 46.6423 9.01625 45.6531L10.2952 33.2326C10.3985 32.2433 10.7344 32.2045 11.0509 33.1485L13.0855 39.265Z" fill="#546697"/>
<path d="M23.5681 11.2994C23.8975 11.6809 23.5681 12.5408 22.8317 13.2068L18.6527 16.9956C17.9163 17.6616 17.8 17.5582 18.3943 16.7564L21.8951 12.043C22.4894 11.2477 23.2387 10.905 23.5681 11.2929V11.2994Z" fill="#546697"/>
<path d="M49.9222 77.3893C49.4183 78.2493 48.5528 78.2816 47.9909 77.4604L37.0684 61.5549C36.5065 60.7403 36.8553 59.9838 37.8435 59.8803L59.7853 57.6109C60.7736 57.5074 61.1676 58.1281 60.6702 58.9816L49.9222 77.3829V77.3893Z" fill="#546697"/>
<path d="M45.3489 77.4032C45.9109 78.2243 45.6008 78.6316 44.6643 78.3083L24.0983 71.3125C23.1617 70.9957 23.0067 70.2004 23.756 69.5539L32.5727 61.9567C33.322 61.3101 34.4007 61.4459 34.9626 62.2671L45.3554 77.4032H45.3489Z" fill="#546697"/>
<path d="M60.2441 53.9198C60.8901 54.6698 60.6123 55.3681 59.6241 55.4715L37.3593 57.7733C36.3711 57.8768 35.7704 57.172 36.0158 56.2086L41.5901 34.5099C41.8355 33.5465 42.5654 33.3784 43.2178 34.1284L60.2441 53.9198Z" fill="#5FC5D9"/>
<path d="M76.2431 72.5197C76.889 73.2697 76.6242 74.0521 75.6553 74.259L52.9966 79.0306C52.0277 79.2375 51.6402 78.7009 52.144 77.8474L62.8274 59.5496C63.3248 58.6962 64.2678 58.6056 64.9138 59.3621L76.2431 72.5262V72.5197Z" fill="#546697"/>
<path d="M39.7945 84.7226C38.9225 85.1946 37.5984 85.0394 36.8555 84.3799L26.34 75.0823C25.5972 74.4228 25.7587 74.1513 26.6953 74.4681L44.697 80.5911C45.6335 80.9079 45.6917 81.5545 44.8132 82.0264L39.7945 84.7226Z" fill="#546697"/>
<path d="M64.2364 85.6035C63.4677 86.2307 62.1178 86.3794 61.2329 85.9268L53.8888 82.1896C53.0039 81.737 53.0749 81.2068 54.0438 80.9999L73.5634 76.8878C74.5323 76.6809 74.7002 77.03 73.9316 77.6572L64.2299 85.597L64.2364 85.6035Z" fill="#546697"/>
<path d="M43.7934 86.0627C42.8051 86.0175 42.7082 85.5972 43.5802 85.1252L47.5074 83.0174C48.3794 82.5454 49.8198 82.5325 50.7047 82.9851L56.4404 85.9075C57.3253 86.3601 57.2349 86.6899 56.2466 86.6446L43.7869 86.0692L43.7934 86.0627Z" fill="#546697"/>
<path d="M79.8846 76.7501C80.214 77.1315 79.7684 77.8298 78.8964 78.2953L73.7226 81.0626C72.8506 81.5282 72.7602 81.3989 73.5288 80.7717L77.8952 77.1962C78.6638 76.569 79.5617 76.3686 79.8911 76.7501H79.8846Z" fill="#546697"/>
<path d="M66.8121 53.6942C65.8885 54.0627 65.3394 53.5778 65.5849 52.6144L71.0752 31.2325C71.3206 30.2691 72.1151 30.0364 72.845 30.7152L86.9389 43.8793C87.6623 44.5582 87.5008 45.4117 86.5836 45.7802L66.8121 53.6942Z" fill="#3E4E74"/>
<path d="M88.2773 40.7129C88.4517 41.6892 88.006 41.9349 87.2825 41.256L73.8668 28.7255C73.1434 28.0466 73.1628 26.9669 73.912 26.3138L82.7288 18.7167C83.4781 18.0701 84.2403 18.3352 84.4147 19.3115L88.2773 40.7064V40.7129Z" fill="#546697"/>
<path d="M79.6727 70.7895C79.324 71.7206 78.5166 71.8628 77.8706 71.1128L66.5413 57.9487C65.8954 57.1987 66.115 56.2806 67.0386 55.912L86.7003 48.0433C87.624 47.6748 88.089 48.1339 87.7467 49.0649L79.6727 70.7895Z" fill="#546697"/>
<path d="M95.4259 33.8789C95.9621 34.713 95.9233 36.0449 95.3291 36.8402L91.9251 41.4049C91.3308 42.2002 90.7043 42.0515 90.5234 41.0752L87.1388 22.3506C86.9644 21.3743 87.2615 21.2579 87.7977 22.092L95.4259 33.8789Z" fill="#546697"/>
<path d="M93.3472 58.2449C93.6637 59.1888 93.3149 60.5014 92.5786 61.1673L83.2903 69.5921C82.554 70.258 82.2375 70.0447 82.5863 69.1136L89.5428 50.402C89.8851 49.471 90.4277 49.4839 90.7442 50.4214L93.3472 58.2449Z" fill="#546697"/>
<path d="M94.7885 53.4163C94.6852 54.4055 94.3493 54.4443 94.0328 53.5003L91.9981 47.3838C91.6816 46.4398 91.9142 45.0174 92.5084 44.2221L95.1761 40.6466C95.7703 39.8513 96.1708 40.0065 96.0675 40.9958L94.7885 53.4163Z" fill="#546697"/>
<path d="M83.1913 74.5993C82.5971 75.3946 81.8478 75.7373 81.5184 75.3494C81.189 74.9614 81.5184 74.108 82.2548 73.442L86.4338 69.6531C87.1702 68.9871 87.2864 69.0906 86.6922 69.8923L83.1913 74.6058V74.5993Z" fill="#546697"/>
<path d="M68.0082 25.0921C68.5702 25.9068 68.2214 26.6633 67.2331 26.7667L45.2914 29.0362C44.3031 29.1396 43.9091 28.5189 44.4065 27.6655L55.1545 9.26422C55.6519 8.40428 56.5239 8.37196 57.0858 9.19309L68.0018 25.0986L68.0082 25.0921Z" fill="#3E4E74"/>
<path d="M72.5094 24.6903C71.7601 25.3369 70.6814 25.2011 70.1195 24.38L59.7267 9.24389C59.1648 8.42922 59.4748 8.01542 60.4114 8.3387L80.9773 15.3345C81.9139 15.6514 82.0689 16.4466 81.3197 17.0932L72.5029 24.6903H72.5094Z" fill="#546697"/>
<path d="M63.4928 52.1387C63.2473 53.1021 62.5174 53.2702 61.865 52.5202L44.8387 32.7288C44.1928 31.9788 44.4705 31.2805 45.4588 31.1771L67.7235 28.8753C68.7118 28.7719 69.3124 29.4766 69.067 30.44L63.4928 52.1387Z" fill="#546697"/>
<path d="M42.2499 27.1041C41.7526 27.9641 40.8095 28.0481 40.1636 27.2916L28.8407 14.1276C28.1948 13.3775 28.4596 12.5952 29.4285 12.3883L52.0872 7.61665C53.0561 7.40975 53.4437 7.9464 52.9398 8.80633L42.2499 27.1041Z" fill="#546697"/>
<path d="M60.3868 6.05529C59.4502 5.73847 59.3921 5.09191 60.2706 4.61991L65.2893 1.92374C66.1613 1.45174 67.4854 1.60692 68.2282 2.26642L78.7438 11.564C79.4866 12.2235 79.3251 12.4951 78.3885 12.1783L60.3868 6.05529Z" fill="#546697"/>
<path d="M31.5152 9.75261C30.5463 9.95952 30.3784 9.61037 31.147 8.9832L40.8486 1.03691C41.6173 0.409741 42.9672 0.261031 43.8521 0.713627L51.1962 4.45078C52.0811 4.89691 52.01 5.43356 51.0412 5.64046L31.5216 9.75261H31.5152Z" fill="#546697"/>
<path d="M57.5715 3.63139C56.6995 4.10338 55.2591 4.11631 54.3742 3.66372L48.632 0.741239C47.7471 0.288643 47.8376 -0.0411057 48.8258 0.00415394L61.2855 0.579597C62.2738 0.624857 62.3707 1.04512 61.4987 1.51712L57.5715 3.62492V3.63139Z" fill="#546697"/>
<path d="M27.1846 9.45245C26.4159 10.0796 25.5181 10.2801 25.1887 9.89858C24.8593 9.51711 25.305 8.81882 26.1769 8.35329L31.3507 5.58599C32.2227 5.12047 32.3131 5.24978 31.5445 5.87695L27.1781 9.45245H27.1846Z" fill="#546697"/>
<path d="M20.5454 72.3271C20.9265 71.9974 21.7856 72.3271 22.4509 73.0642L26.236 77.2475C26.9013 77.9846 26.7979 78.101 25.997 77.5061L21.2883 74.0017C20.4938 73.4069 20.1579 72.6569 20.539 72.3271H20.5454Z" fill="#546697"/>
<path d="M85.9374 15.9505C86.3185 15.6208 87.016 16.0669 87.4811 16.9398L90.2456 22.1188C90.7107 22.9916 90.5815 23.0821 89.9549 22.3127L86.383 17.9419C85.7565 17.1725 85.5563 16.2738 85.9374 15.9441V15.9505Z" fill="#546697"/>
<path d="M83.7863 12.6461C84.5808 13.241 84.9167 13.991 84.5356 14.3207C84.1545 14.6505 83.2954 14.3207 82.6301 13.5836L78.845 9.40037C78.1798 8.66329 78.2831 8.5469 79.084 9.14174L83.7928 12.6461H83.7863Z" fill="#546697"/>
<path d="M18.6993 68.7023C19.3258 69.4717 19.526 70.3704 19.1449 70.7001C18.7639 71.0299 18.0663 70.5838 17.6012 69.7109L14.8367 64.5319C14.3716 63.659 14.5008 63.5685 15.1274 64.3379L18.6993 68.7087V68.7023Z" fill="#546697"/>
<defs>
<clipPath id="clip0_1329_18730">
<rect width="105" height="67.9412" fill="white" transform="translate(0 64.0801)"/>
</clipPath>
</defs>
</svg>
